G04 #@! TF.FileFunction,Legend,Bot*
%FSLAX46Y46*%
G04 Gerber Fmt 4.6, Leading zero omitted, Abs format (unit mm)*
G04 Created by KiCad (PCBNEW 4.0.5) date 12/27/16 23:39:24*
%MOMM*%
%LPD*%
G01*
G04 APERTURE LIST*
%ADD10C,0.100000*%
%ADD11C,0.150000*%
%ADD12R,1.200000X1.200000*%
%ADD13C,1.200000*%
%ADD14O,2.199640X1.524000*%
%ADD15O,2.197100X1.524000*%
%ADD16R,1.727200X2.032000*%
%ADD17O,1.727200X2.032000*%
%ADD18R,1.727200X1.727200*%
%ADD19O,1.727200X1.727200*%
%ADD20C,1.524000*%
%ADD21O,1.600000X1.600000*%
%ADD22C,1.778000*%
G04 APERTURE END LIST*
D10*
D11*
X125730000Y-80010000D02*
X105410000Y-80010000D01*
X107950000Y-74930000D02*
X125730000Y-74930000D01*
X125730000Y-80010000D02*
X125730000Y-74930000D01*
X105410000Y-80010000D02*
X105410000Y-77470000D01*
X105130000Y-76200000D02*
X105130000Y-74650000D01*
X105410000Y-77470000D02*
X107950000Y-77470000D01*
X107950000Y-77470000D02*
X107950000Y-74930000D01*
X105130000Y-74650000D02*
X106680000Y-74650000D01*
X125730000Y-49530000D02*
X105410000Y-49530000D01*
X107950000Y-44450000D02*
X125730000Y-44450000D01*
X125730000Y-49530000D02*
X125730000Y-44450000D01*
X105410000Y-49530000D02*
X105410000Y-46990000D01*
X105130000Y-45720000D02*
X105130000Y-44170000D01*
X105410000Y-46990000D02*
X107950000Y-46990000D01*
X107950000Y-46990000D02*
X107950000Y-44450000D01*
X105130000Y-44170000D02*
X106680000Y-44170000D01*
X102032381Y-74509524D02*
X101032381Y-74509524D01*
X101032381Y-74890477D01*
X101080000Y-74985715D01*
X101127619Y-75033334D01*
X101222857Y-75080953D01*
X101365714Y-75080953D01*
X101460952Y-75033334D01*
X101508571Y-74985715D01*
X101556190Y-74890477D01*
X101556190Y-74509524D01*
X102032381Y-76033334D02*
X102032381Y-75461905D01*
X102032381Y-75747619D02*
X101032381Y-75747619D01*
X101175238Y-75652381D01*
X101270476Y-75557143D01*
X101318095Y-75461905D01*
X101032381Y-76652381D02*
X101032381Y-76747620D01*
X101080000Y-76842858D01*
X101127619Y-76890477D01*
X101222857Y-76938096D01*
X101413333Y-76985715D01*
X101651429Y-76985715D01*
X101841905Y-76938096D01*
X101937143Y-76890477D01*
X101984762Y-76842858D01*
X102032381Y-76747620D01*
X102032381Y-76652381D01*
X101984762Y-76557143D01*
X101937143Y-76509524D01*
X101841905Y-76461905D01*
X101651429Y-76414286D01*
X101413333Y-76414286D01*
X101222857Y-76461905D01*
X101127619Y-76509524D01*
X101080000Y-76557143D01*
X101032381Y-76652381D01*
X101032381Y-77319048D02*
X101032381Y-77938096D01*
X101413333Y-77604762D01*
X101413333Y-77747620D01*
X101460952Y-77842858D01*
X101508571Y-77890477D01*
X101603810Y-77938096D01*
X101841905Y-77938096D01*
X101937143Y-77890477D01*
X101984762Y-77842858D01*
X102032381Y-77747620D01*
X102032381Y-77461905D01*
X101984762Y-77366667D01*
X101937143Y-77319048D01*
X102032381Y-44029524D02*
X101032381Y-44029524D01*
X101032381Y-44410477D01*
X101080000Y-44505715D01*
X101127619Y-44553334D01*
X101222857Y-44600953D01*
X101365714Y-44600953D01*
X101460952Y-44553334D01*
X101508571Y-44505715D01*
X101556190Y-44410477D01*
X101556190Y-44029524D01*
X102032381Y-45553334D02*
X102032381Y-44981905D01*
X102032381Y-45267619D02*
X101032381Y-45267619D01*
X101175238Y-45172381D01*
X101270476Y-45077143D01*
X101318095Y-44981905D01*
X101032381Y-46172381D02*
X101032381Y-46267620D01*
X101080000Y-46362858D01*
X101127619Y-46410477D01*
X101222857Y-46458096D01*
X101413333Y-46505715D01*
X101651429Y-46505715D01*
X101841905Y-46458096D01*
X101937143Y-46410477D01*
X101984762Y-46362858D01*
X102032381Y-46267620D01*
X102032381Y-46172381D01*
X101984762Y-46077143D01*
X101937143Y-46029524D01*
X101841905Y-45981905D01*
X101651429Y-45934286D01*
X101413333Y-45934286D01*
X101222857Y-45981905D01*
X101127619Y-46029524D01*
X101080000Y-46077143D01*
X101032381Y-46172381D01*
X101365714Y-47362858D02*
X102032381Y-47362858D01*
X100984762Y-47124762D02*
X101699048Y-46886667D01*
X101699048Y-47505715D01*
%LPC*%
D12*
X73660000Y-68580000D03*
D13*
X73660000Y-66080000D03*
D12*
X73660000Y-76200000D03*
D13*
X73660000Y-73700000D03*
D12*
X81280000Y-58420000D03*
D13*
X83780000Y-58420000D03*
D12*
X73660000Y-83820000D03*
D13*
X73660000Y-81320000D03*
D12*
X132080000Y-55880000D03*
D13*
X134580000Y-55880000D03*
D12*
X132080000Y-76200000D03*
D13*
X134580000Y-76200000D03*
D14*
X68580000Y-83820000D03*
X68580000Y-81280000D03*
X68580000Y-78740000D03*
X68580000Y-76200000D03*
X68580000Y-73660000D03*
X68580000Y-71120000D03*
X68580000Y-68580000D03*
X68580000Y-66040000D03*
X68580000Y-63500000D03*
X68580000Y-60960000D03*
X68580000Y-58420000D03*
X68580000Y-55880000D03*
X68580000Y-53340000D03*
X68580000Y-50800000D03*
X68580000Y-48260000D03*
X53340000Y-48260000D03*
X53340000Y-50800000D03*
X53340000Y-53340000D03*
X53340000Y-55880000D03*
D15*
X53340000Y-58420000D03*
X53340000Y-60960000D03*
X53340000Y-63500000D03*
X53340000Y-66040000D03*
X53340000Y-68580000D03*
X53340000Y-71120000D03*
X53340000Y-73660000D03*
X53340000Y-76200000D03*
X53340000Y-78740000D03*
X53340000Y-81280000D03*
X53340000Y-83820000D03*
D16*
X78740000Y-53340000D03*
D17*
X81280000Y-53340000D03*
X83820000Y-53340000D03*
D18*
X142240000Y-53340000D03*
D19*
X144780000Y-53340000D03*
X142240000Y-55880000D03*
X144780000Y-55880000D03*
X142240000Y-58420000D03*
X144780000Y-58420000D03*
X142240000Y-60960000D03*
X144780000Y-60960000D03*
X142240000Y-63500000D03*
X144780000Y-63500000D03*
X142240000Y-66040000D03*
X144780000Y-66040000D03*
X142240000Y-68580000D03*
X144780000Y-68580000D03*
X142240000Y-71120000D03*
X144780000Y-71120000D03*
X142240000Y-73660000D03*
X144780000Y-73660000D03*
X142240000Y-76200000D03*
X144780000Y-76200000D03*
D16*
X76200000Y-45720000D03*
D17*
X78740000Y-45720000D03*
X81280000Y-45720000D03*
X83820000Y-45720000D03*
X86360000Y-45720000D03*
D18*
X106680000Y-76200000D03*
D19*
X106680000Y-78740000D03*
X109220000Y-76200000D03*
X109220000Y-78740000D03*
X111760000Y-76200000D03*
X111760000Y-78740000D03*
X114300000Y-76200000D03*
X114300000Y-78740000D03*
X116840000Y-76200000D03*
X116840000Y-78740000D03*
X119380000Y-76200000D03*
X119380000Y-78740000D03*
X121920000Y-76200000D03*
X121920000Y-78740000D03*
X124460000Y-76200000D03*
X124460000Y-78740000D03*
D18*
X106680000Y-45720000D03*
D19*
X106680000Y-48260000D03*
X109220000Y-45720000D03*
X109220000Y-48260000D03*
X111760000Y-45720000D03*
X111760000Y-48260000D03*
X114300000Y-45720000D03*
X114300000Y-48260000D03*
X116840000Y-45720000D03*
X116840000Y-48260000D03*
X119380000Y-45720000D03*
X119380000Y-48260000D03*
X121920000Y-45720000D03*
X121920000Y-48260000D03*
X124460000Y-45720000D03*
X124460000Y-48260000D03*
D20*
X91440000Y-48260000D03*
X93980000Y-45720000D03*
X93980000Y-50800000D03*
X91440000Y-63500000D03*
X93980000Y-60960000D03*
X93980000Y-66040000D03*
X91440000Y-78740000D03*
X93980000Y-76200000D03*
X93980000Y-81280000D03*
D21*
X78740000Y-66040000D03*
X78740000Y-68580000D03*
X78740000Y-71120000D03*
X78740000Y-73660000D03*
X78740000Y-76200000D03*
X78740000Y-78740000D03*
X78740000Y-81280000D03*
X78740000Y-83820000D03*
X86360000Y-83820000D03*
X86360000Y-81280000D03*
X86360000Y-78740000D03*
X86360000Y-76200000D03*
X86360000Y-73660000D03*
X86360000Y-71120000D03*
X86360000Y-68580000D03*
X86360000Y-66040000D03*
D22*
X132080000Y-63500000D03*
X132080000Y-68580000D03*
M02*
