M48
;DRILL file {KiCad 4.0.5} date 12/26/16 23:26:35
;FORMAT={-:-/ absolute / metric / decimal}
FMAT,2
METRIC,TZ
T1C0.400
T2C0.700
T3C0.800
T4C0.813
T5C0.998
T6C1.001
T7C1.016
%
G90
G05
M71
T1
X105.005Y-69.712
X106.68Y-71.563
X107.203Y-55.851
X109.61Y-66.758
X114.22Y-60.832
X115.07Y-69.727
X116.919Y-66.684
X121.401Y-54.409
X121.862Y-57.185
X121.992Y-55.779
X125.196Y-56.285
X127.818Y-52.859
X134.593Y-61.556
T2
X73.66Y-66.08
X73.66Y-68.58
X73.66Y-73.7
X73.66Y-76.2
X73.66Y-81.32
X73.66Y-83.82
X81.28Y-58.42
X83.78Y-58.42
X132.08Y-55.88
X132.08Y-76.2
X134.58Y-55.88
X134.58Y-76.2
T3
X78.74Y-66.04
X78.74Y-68.58
X78.74Y-71.12
X78.74Y-73.66
X78.74Y-76.2
X78.74Y-78.74
X78.74Y-81.28
X78.74Y-83.82
X86.36Y-66.04
X86.36Y-68.58
X86.36Y-71.12
X86.36Y-73.66
X86.36Y-76.2
X86.36Y-78.74
X86.36Y-81.28
X86.36Y-83.82
T4
X91.44Y-48.26
X91.44Y-63.5
X91.44Y-78.74
X93.98Y-45.72
X93.98Y-50.8
X93.98Y-60.96
X93.98Y-66.04
X93.98Y-76.2
X93.98Y-81.28
X132.08Y-63.5
X132.08Y-68.58
T5
X53.34Y-68.58
X53.34Y-71.12
X53.34Y-73.66
X53.34Y-76.2
X53.34Y-78.74
X53.34Y-81.28
X53.34Y-83.82
T6
X53.34Y-48.26
X53.34Y-50.8
X53.34Y-53.34
X53.34Y-55.88
X53.34Y-58.42
X53.34Y-60.96
X53.34Y-63.5
X53.34Y-66.04
X68.58Y-48.26
X68.58Y-50.8
X68.58Y-53.34
X68.58Y-55.88
X68.58Y-58.42
X68.58Y-60.96
X68.58Y-63.5
X68.58Y-66.04
X68.58Y-68.58
X68.58Y-71.12
X68.58Y-73.66
X68.58Y-76.2
X68.58Y-78.74
X68.58Y-81.28
X68.58Y-83.82
T7
X76.2Y-45.72
X78.74Y-45.72
X78.74Y-53.34
X81.28Y-45.72
X81.28Y-53.34
X83.82Y-45.72
X83.82Y-53.34
X86.36Y-45.72
X106.68Y-45.72
X106.68Y-48.26
X106.68Y-76.2
X106.68Y-78.74
X109.22Y-45.72
X109.22Y-48.26
X109.22Y-76.2
X109.22Y-78.74
X111.76Y-45.72
X111.76Y-48.26
X111.76Y-76.2
X111.76Y-78.74
X114.3Y-45.72
X114.3Y-48.26
X114.3Y-76.2
X114.3Y-78.74
X116.84Y-45.72
X116.84Y-48.26
X116.84Y-76.2
X116.84Y-78.74
X119.38Y-45.72
X119.38Y-48.26
X119.38Y-76.2
X119.38Y-78.74
X121.92Y-45.72
X121.92Y-48.26
X121.92Y-76.2
X121.92Y-78.74
X124.46Y-45.72
X124.46Y-48.26
X124.46Y-76.2
X124.46Y-78.74
X142.24Y-53.34
X142.24Y-55.88
X142.24Y-58.42
X142.24Y-60.96
X142.24Y-63.5
X142.24Y-66.04
X142.24Y-68.58
X142.24Y-71.12
X142.24Y-73.66
X142.24Y-76.2
X144.78Y-53.34
X144.78Y-55.88
X144.78Y-58.42
X144.78Y-60.96
X144.78Y-63.5
X144.78Y-66.04
X144.78Y-68.58
X144.78Y-71.12
X144.78Y-73.66
X144.78Y-76.2
T0
M30
