G04 #@! TF.FileFunction,Legend,Top*
%FSLAX46Y46*%
G04 Gerber Fmt 4.6, Leading zero omitted, Abs format (unit mm)*
G04 Created by KiCad (PCBNEW 4.0.5) date 12/27/16 23:39:24*
%MOMM*%
%LPD*%
G01*
G04 APERTURE LIST*
%ADD10C,0.100000*%
%ADD11C,0.150000*%
%ADD12C,0.381000*%
%ADD13C,0.203200*%
%ADD14R,1.200000X1.200000*%
%ADD15C,1.200000*%
%ADD16O,2.199640X1.524000*%
%ADD17O,2.197100X1.524000*%
%ADD18R,1.727200X2.032000*%
%ADD19O,1.727200X2.032000*%
%ADD20R,1.727200X1.727200*%
%ADD21O,1.727200X1.727200*%
%ADD22C,1.524000*%
%ADD23O,1.600000X1.600000*%
%ADD24R,0.550000X1.925000*%
%ADD25C,1.778000*%
G04 APERTURE END LIST*
D10*
D11*
X72410000Y-69330000D02*
X72410000Y-65330000D01*
X74910000Y-69330000D02*
X74910000Y-65330000D01*
X72410000Y-76950000D02*
X72410000Y-72950000D01*
X74910000Y-76950000D02*
X74910000Y-72950000D01*
X80530000Y-57170000D02*
X84530000Y-57170000D01*
X80530000Y-59670000D02*
X84530000Y-59670000D01*
X72410000Y-84570000D02*
X72410000Y-80570000D01*
X74910000Y-84570000D02*
X74910000Y-80570000D01*
X131330000Y-54630000D02*
X135330000Y-54630000D01*
X131330000Y-57130000D02*
X135330000Y-57130000D01*
X131330000Y-74950000D02*
X135330000Y-74950000D01*
X131330000Y-77450000D02*
X135330000Y-77450000D01*
D12*
X59690000Y-82550000D02*
X59690000Y-87630000D01*
X62230000Y-82550000D02*
X62230000Y-87630000D01*
X57150000Y-85090000D02*
X64770000Y-85090000D01*
X57150000Y-87630000D02*
X57150000Y-82550000D01*
X57150000Y-82550000D02*
X64770000Y-82550000D01*
X64770000Y-82550000D02*
X64770000Y-87630000D01*
X52070000Y-44450000D02*
X52070000Y-87630000D01*
X69850000Y-87630000D02*
X69850000Y-44450000D01*
X69850000Y-87630000D02*
X52070000Y-87630000D01*
X69850000Y-44450000D02*
X52070000Y-44450000D01*
X54610000Y-86360000D02*
G75*
G03X54610000Y-86360000I-1270000J0D01*
G01*
X69850000Y-86360000D02*
G75*
G03X69850000Y-86360000I-1270000J0D01*
G01*
X54610000Y-45720000D02*
G75*
G03X54610000Y-45720000I-1270000J0D01*
G01*
X69850000Y-45720000D02*
G75*
G03X69850000Y-45720000I-1270000J0D01*
G01*
X54610000Y-46990000D02*
X54610000Y-85090000D01*
X67310000Y-85090000D02*
X67310000Y-46990000D01*
X69850000Y-46990000D02*
X67310000Y-46990000D01*
X54610000Y-46990000D02*
X52070000Y-46990000D01*
X52070000Y-85090000D02*
X54610000Y-85090000D01*
X69850000Y-85090000D02*
X67310000Y-85090000D01*
D11*
X80010000Y-54610000D02*
X85090000Y-54610000D01*
X85090000Y-54610000D02*
X85090000Y-52070000D01*
X85090000Y-52070000D02*
X80010000Y-52070000D01*
X77190000Y-51790000D02*
X78740000Y-51790000D01*
X80010000Y-52070000D02*
X80010000Y-54610000D01*
X78740000Y-54890000D02*
X77190000Y-54890000D01*
X77190000Y-54890000D02*
X77190000Y-51790000D01*
X146050000Y-77470000D02*
X146050000Y-52070000D01*
X140970000Y-54610000D02*
X140970000Y-77470000D01*
X146050000Y-77470000D02*
X140970000Y-77470000D01*
X146050000Y-52070000D02*
X143510000Y-52070000D01*
X142240000Y-51790000D02*
X140690000Y-51790000D01*
X143510000Y-52070000D02*
X143510000Y-54610000D01*
X143510000Y-54610000D02*
X140970000Y-54610000D01*
X140690000Y-51790000D02*
X140690000Y-53340000D01*
X76200000Y-47270000D02*
X74650000Y-47270000D01*
X74650000Y-47270000D02*
X74650000Y-44170000D01*
X74650000Y-44170000D02*
X76200000Y-44170000D01*
X77470000Y-44450000D02*
X87630000Y-44450000D01*
X87630000Y-44450000D02*
X87630000Y-46990000D01*
X87630000Y-46990000D02*
X77470000Y-46990000D01*
X77470000Y-44450000D02*
X77470000Y-46990000D01*
X94615000Y-52070000D02*
X94615000Y-53086000D01*
X94615000Y-46990000D02*
X94615000Y-49530000D01*
X94615000Y-43434000D02*
X94615000Y-44450000D01*
X90678000Y-51816000D02*
X91948000Y-51816000D01*
X91427300Y-51028600D02*
X91173300Y-51066700D01*
X91173300Y-51066700D02*
X90893900Y-51244500D01*
X90893900Y-51244500D02*
X90678000Y-51562000D01*
X90678000Y-51562000D02*
X90665300Y-52006500D01*
X90665300Y-52006500D02*
X90868500Y-52362100D01*
X90868500Y-52362100D02*
X91160600Y-52539900D01*
X91160600Y-52539900D02*
X91478100Y-52590700D01*
X91478100Y-52590700D02*
X91884500Y-52489100D01*
X91884500Y-52489100D02*
X92138500Y-52146200D01*
X92138500Y-52146200D02*
X92227400Y-51968400D01*
X91440000Y-53086000D02*
X90170000Y-53086000D01*
X90170000Y-53086000D02*
X90170000Y-43434000D01*
X90170000Y-43434000D02*
X95250000Y-43434000D01*
X95250000Y-53086000D02*
X92710000Y-53086000D01*
X92710000Y-53086000D02*
X91440000Y-53086000D01*
X94615000Y-67310000D02*
X94615000Y-68326000D01*
X94615000Y-62230000D02*
X94615000Y-64770000D01*
X94615000Y-58674000D02*
X94615000Y-59690000D01*
X90678000Y-67056000D02*
X91948000Y-67056000D01*
X91427300Y-66268600D02*
X91173300Y-66306700D01*
X91173300Y-66306700D02*
X90893900Y-66484500D01*
X90893900Y-66484500D02*
X90678000Y-66802000D01*
X90678000Y-66802000D02*
X90665300Y-67246500D01*
X90665300Y-67246500D02*
X90868500Y-67602100D01*
X90868500Y-67602100D02*
X91160600Y-67779900D01*
X91160600Y-67779900D02*
X91478100Y-67830700D01*
X91478100Y-67830700D02*
X91884500Y-67729100D01*
X91884500Y-67729100D02*
X92138500Y-67386200D01*
X92138500Y-67386200D02*
X92227400Y-67208400D01*
X91440000Y-68326000D02*
X90170000Y-68326000D01*
X90170000Y-68326000D02*
X90170000Y-58674000D01*
X90170000Y-58674000D02*
X95250000Y-58674000D01*
X95250000Y-68326000D02*
X92710000Y-68326000D01*
X92710000Y-68326000D02*
X91440000Y-68326000D01*
X94615000Y-82550000D02*
X94615000Y-83566000D01*
X94615000Y-77470000D02*
X94615000Y-80010000D01*
X94615000Y-73914000D02*
X94615000Y-74930000D01*
X90678000Y-82296000D02*
X91948000Y-82296000D01*
X91427300Y-81508600D02*
X91173300Y-81546700D01*
X91173300Y-81546700D02*
X90893900Y-81724500D01*
X90893900Y-81724500D02*
X90678000Y-82042000D01*
X90678000Y-82042000D02*
X90665300Y-82486500D01*
X90665300Y-82486500D02*
X90868500Y-82842100D01*
X90868500Y-82842100D02*
X91160600Y-83019900D01*
X91160600Y-83019900D02*
X91478100Y-83070700D01*
X91478100Y-83070700D02*
X91884500Y-82969100D01*
X91884500Y-82969100D02*
X92138500Y-82626200D01*
X92138500Y-82626200D02*
X92227400Y-82448400D01*
X91440000Y-83566000D02*
X90170000Y-83566000D01*
X90170000Y-83566000D02*
X90170000Y-73914000D01*
X90170000Y-73914000D02*
X95250000Y-73914000D01*
X95250000Y-83566000D02*
X92710000Y-83566000D01*
X92710000Y-83566000D02*
X91440000Y-83566000D01*
X78875000Y-63745000D02*
X78875000Y-65015000D01*
X86225000Y-63745000D02*
X86225000Y-65015000D01*
X86225000Y-86115000D02*
X86225000Y-84845000D01*
X78875000Y-86115000D02*
X78875000Y-84845000D01*
X78875000Y-63745000D02*
X86225000Y-63745000D01*
X78875000Y-86115000D02*
X86225000Y-86115000D01*
X78875000Y-65015000D02*
X77940000Y-65015000D01*
X108113553Y-66500000D02*
G75*
G03X108113553Y-66500000I-353553J0D01*
G01*
X122260000Y-60000000D02*
X122760000Y-60000000D01*
X122760000Y-60000000D02*
X122760000Y-67000000D01*
X122760000Y-67000000D02*
X106760000Y-67000000D01*
X106760000Y-67000000D02*
X106760000Y-60000000D01*
X106760000Y-60000000D02*
X122260000Y-60000000D01*
X133350000Y-59055000D02*
X134620000Y-60325000D01*
X134620000Y-71755000D02*
X133350000Y-73025000D01*
X130810000Y-73025000D02*
X129540000Y-71755000D01*
X130810000Y-59055000D02*
X129540000Y-60325000D01*
X134620000Y-60325000D02*
X134620000Y-71755000D01*
X133350000Y-59055000D02*
X130810000Y-59055000D01*
X129540000Y-60325000D02*
X129540000Y-71755000D01*
X130810000Y-73025000D02*
X133350000Y-73025000D01*
X71517143Y-68449047D02*
X71564762Y-68496666D01*
X71612381Y-68639523D01*
X71612381Y-68734761D01*
X71564762Y-68877619D01*
X71469524Y-68972857D01*
X71374286Y-69020476D01*
X71183810Y-69068095D01*
X71040952Y-69068095D01*
X70850476Y-69020476D01*
X70755238Y-68972857D01*
X70660000Y-68877619D01*
X70612381Y-68734761D01*
X70612381Y-68639523D01*
X70660000Y-68496666D01*
X70707619Y-68449047D01*
X71612381Y-67496666D02*
X71612381Y-68068095D01*
X71612381Y-67782381D02*
X70612381Y-67782381D01*
X70755238Y-67877619D01*
X70850476Y-67972857D01*
X70898095Y-68068095D01*
X70612381Y-66877619D02*
X70612381Y-66782380D01*
X70660000Y-66687142D01*
X70707619Y-66639523D01*
X70802857Y-66591904D01*
X70993333Y-66544285D01*
X71231429Y-66544285D01*
X71421905Y-66591904D01*
X71517143Y-66639523D01*
X71564762Y-66687142D01*
X71612381Y-66782380D01*
X71612381Y-66877619D01*
X71564762Y-66972857D01*
X71517143Y-67020476D01*
X71421905Y-67068095D01*
X71231429Y-67115714D01*
X70993333Y-67115714D01*
X70802857Y-67068095D01*
X70707619Y-67020476D01*
X70660000Y-66972857D01*
X70612381Y-66877619D01*
X71612381Y-65591904D02*
X71612381Y-66163333D01*
X71612381Y-65877619D02*
X70612381Y-65877619D01*
X70755238Y-65972857D01*
X70850476Y-66068095D01*
X70898095Y-66163333D01*
X71517143Y-76069047D02*
X71564762Y-76116666D01*
X71612381Y-76259523D01*
X71612381Y-76354761D01*
X71564762Y-76497619D01*
X71469524Y-76592857D01*
X71374286Y-76640476D01*
X71183810Y-76688095D01*
X71040952Y-76688095D01*
X70850476Y-76640476D01*
X70755238Y-76592857D01*
X70660000Y-76497619D01*
X70612381Y-76354761D01*
X70612381Y-76259523D01*
X70660000Y-76116666D01*
X70707619Y-76069047D01*
X71612381Y-75116666D02*
X71612381Y-75688095D01*
X71612381Y-75402381D02*
X70612381Y-75402381D01*
X70755238Y-75497619D01*
X70850476Y-75592857D01*
X70898095Y-75688095D01*
X70612381Y-74497619D02*
X70612381Y-74402380D01*
X70660000Y-74307142D01*
X70707619Y-74259523D01*
X70802857Y-74211904D01*
X70993333Y-74164285D01*
X71231429Y-74164285D01*
X71421905Y-74211904D01*
X71517143Y-74259523D01*
X71564762Y-74307142D01*
X71612381Y-74402380D01*
X71612381Y-74497619D01*
X71564762Y-74592857D01*
X71517143Y-74640476D01*
X71421905Y-74688095D01*
X71231429Y-74735714D01*
X70993333Y-74735714D01*
X70802857Y-74688095D01*
X70707619Y-74640476D01*
X70660000Y-74592857D01*
X70612381Y-74497619D01*
X70707619Y-73783333D02*
X70660000Y-73735714D01*
X70612381Y-73640476D01*
X70612381Y-73402380D01*
X70660000Y-73307142D01*
X70707619Y-73259523D01*
X70802857Y-73211904D01*
X70898095Y-73211904D01*
X71040952Y-73259523D01*
X71612381Y-73830952D01*
X71612381Y-73211904D01*
X81410953Y-56277143D02*
X81363334Y-56324762D01*
X81220477Y-56372381D01*
X81125239Y-56372381D01*
X80982381Y-56324762D01*
X80887143Y-56229524D01*
X80839524Y-56134286D01*
X80791905Y-55943810D01*
X80791905Y-55800952D01*
X80839524Y-55610476D01*
X80887143Y-55515238D01*
X80982381Y-55420000D01*
X81125239Y-55372381D01*
X81220477Y-55372381D01*
X81363334Y-55420000D01*
X81410953Y-55467619D01*
X82363334Y-56372381D02*
X81791905Y-56372381D01*
X82077619Y-56372381D02*
X82077619Y-55372381D01*
X81982381Y-55515238D01*
X81887143Y-55610476D01*
X81791905Y-55658095D01*
X82982381Y-55372381D02*
X83077620Y-55372381D01*
X83172858Y-55420000D01*
X83220477Y-55467619D01*
X83268096Y-55562857D01*
X83315715Y-55753333D01*
X83315715Y-55991429D01*
X83268096Y-56181905D01*
X83220477Y-56277143D01*
X83172858Y-56324762D01*
X83077620Y-56372381D01*
X82982381Y-56372381D01*
X82887143Y-56324762D01*
X82839524Y-56277143D01*
X82791905Y-56181905D01*
X82744286Y-55991429D01*
X82744286Y-55753333D01*
X82791905Y-55562857D01*
X82839524Y-55467619D01*
X82887143Y-55420000D01*
X82982381Y-55372381D01*
X83649048Y-55372381D02*
X84268096Y-55372381D01*
X83934762Y-55753333D01*
X84077620Y-55753333D01*
X84172858Y-55800952D01*
X84220477Y-55848571D01*
X84268096Y-55943810D01*
X84268096Y-56181905D01*
X84220477Y-56277143D01*
X84172858Y-56324762D01*
X84077620Y-56372381D01*
X83791905Y-56372381D01*
X83696667Y-56324762D01*
X83649048Y-56277143D01*
X71517143Y-83689047D02*
X71564762Y-83736666D01*
X71612381Y-83879523D01*
X71612381Y-83974761D01*
X71564762Y-84117619D01*
X71469524Y-84212857D01*
X71374286Y-84260476D01*
X71183810Y-84308095D01*
X71040952Y-84308095D01*
X70850476Y-84260476D01*
X70755238Y-84212857D01*
X70660000Y-84117619D01*
X70612381Y-83974761D01*
X70612381Y-83879523D01*
X70660000Y-83736666D01*
X70707619Y-83689047D01*
X71612381Y-82736666D02*
X71612381Y-83308095D01*
X71612381Y-83022381D02*
X70612381Y-83022381D01*
X70755238Y-83117619D01*
X70850476Y-83212857D01*
X70898095Y-83308095D01*
X70612381Y-82117619D02*
X70612381Y-82022380D01*
X70660000Y-81927142D01*
X70707619Y-81879523D01*
X70802857Y-81831904D01*
X70993333Y-81784285D01*
X71231429Y-81784285D01*
X71421905Y-81831904D01*
X71517143Y-81879523D01*
X71564762Y-81927142D01*
X71612381Y-82022380D01*
X71612381Y-82117619D01*
X71564762Y-82212857D01*
X71517143Y-82260476D01*
X71421905Y-82308095D01*
X71231429Y-82355714D01*
X70993333Y-82355714D01*
X70802857Y-82308095D01*
X70707619Y-82260476D01*
X70660000Y-82212857D01*
X70612381Y-82117619D01*
X70945714Y-80927142D02*
X71612381Y-80927142D01*
X70564762Y-81165238D02*
X71279048Y-81403333D01*
X71279048Y-80784285D01*
X132210953Y-53737143D02*
X132163334Y-53784762D01*
X132020477Y-53832381D01*
X131925239Y-53832381D01*
X131782381Y-53784762D01*
X131687143Y-53689524D01*
X131639524Y-53594286D01*
X131591905Y-53403810D01*
X131591905Y-53260952D01*
X131639524Y-53070476D01*
X131687143Y-52975238D01*
X131782381Y-52880000D01*
X131925239Y-52832381D01*
X132020477Y-52832381D01*
X132163334Y-52880000D01*
X132210953Y-52927619D01*
X133163334Y-53832381D02*
X132591905Y-53832381D01*
X132877619Y-53832381D02*
X132877619Y-52832381D01*
X132782381Y-52975238D01*
X132687143Y-53070476D01*
X132591905Y-53118095D01*
X133782381Y-52832381D02*
X133877620Y-52832381D01*
X133972858Y-52880000D01*
X134020477Y-52927619D01*
X134068096Y-53022857D01*
X134115715Y-53213333D01*
X134115715Y-53451429D01*
X134068096Y-53641905D01*
X134020477Y-53737143D01*
X133972858Y-53784762D01*
X133877620Y-53832381D01*
X133782381Y-53832381D01*
X133687143Y-53784762D01*
X133639524Y-53737143D01*
X133591905Y-53641905D01*
X133544286Y-53451429D01*
X133544286Y-53213333D01*
X133591905Y-53022857D01*
X133639524Y-52927619D01*
X133687143Y-52880000D01*
X133782381Y-52832381D01*
X135020477Y-52832381D02*
X134544286Y-52832381D01*
X134496667Y-53308571D01*
X134544286Y-53260952D01*
X134639524Y-53213333D01*
X134877620Y-53213333D01*
X134972858Y-53260952D01*
X135020477Y-53308571D01*
X135068096Y-53403810D01*
X135068096Y-53641905D01*
X135020477Y-53737143D01*
X134972858Y-53784762D01*
X134877620Y-53832381D01*
X134639524Y-53832381D01*
X134544286Y-53784762D01*
X134496667Y-53737143D01*
X132210953Y-74057143D02*
X132163334Y-74104762D01*
X132020477Y-74152381D01*
X131925239Y-74152381D01*
X131782381Y-74104762D01*
X131687143Y-74009524D01*
X131639524Y-73914286D01*
X131591905Y-73723810D01*
X131591905Y-73580952D01*
X131639524Y-73390476D01*
X131687143Y-73295238D01*
X131782381Y-73200000D01*
X131925239Y-73152381D01*
X132020477Y-73152381D01*
X132163334Y-73200000D01*
X132210953Y-73247619D01*
X133163334Y-74152381D02*
X132591905Y-74152381D01*
X132877619Y-74152381D02*
X132877619Y-73152381D01*
X132782381Y-73295238D01*
X132687143Y-73390476D01*
X132591905Y-73438095D01*
X133782381Y-73152381D02*
X133877620Y-73152381D01*
X133972858Y-73200000D01*
X134020477Y-73247619D01*
X134068096Y-73342857D01*
X134115715Y-73533333D01*
X134115715Y-73771429D01*
X134068096Y-73961905D01*
X134020477Y-74057143D01*
X133972858Y-74104762D01*
X133877620Y-74152381D01*
X133782381Y-74152381D01*
X133687143Y-74104762D01*
X133639524Y-74057143D01*
X133591905Y-73961905D01*
X133544286Y-73771429D01*
X133544286Y-73533333D01*
X133591905Y-73342857D01*
X133639524Y-73247619D01*
X133687143Y-73200000D01*
X133782381Y-73152381D01*
X134972858Y-73152381D02*
X134782381Y-73152381D01*
X134687143Y-73200000D01*
X134639524Y-73247619D01*
X134544286Y-73390476D01*
X134496667Y-73580952D01*
X134496667Y-73961905D01*
X134544286Y-74057143D01*
X134591905Y-74104762D01*
X134687143Y-74152381D01*
X134877620Y-74152381D01*
X134972858Y-74104762D01*
X135020477Y-74057143D01*
X135068096Y-73961905D01*
X135068096Y-73723810D01*
X135020477Y-73628571D01*
X134972858Y-73580952D01*
X134877620Y-73533333D01*
X134687143Y-73533333D01*
X134591905Y-73580952D01*
X134544286Y-73628571D01*
X134496667Y-73723810D01*
D13*
X61673619Y-67346286D02*
X62399333Y-67346286D01*
X62544476Y-67394666D01*
X62641238Y-67491428D01*
X62689619Y-67636571D01*
X62689619Y-67733333D01*
X62689619Y-66330286D02*
X62689619Y-66910857D01*
X62689619Y-66620571D02*
X61673619Y-66620571D01*
X61818762Y-66717333D01*
X61915524Y-66814095D01*
X61963905Y-66910857D01*
X61673619Y-65701333D02*
X61673619Y-65604572D01*
X61722000Y-65507810D01*
X61770381Y-65459429D01*
X61867143Y-65411048D01*
X62060667Y-65362667D01*
X62302571Y-65362667D01*
X62496095Y-65411048D01*
X62592857Y-65459429D01*
X62641238Y-65507810D01*
X62689619Y-65604572D01*
X62689619Y-65701333D01*
X62641238Y-65798095D01*
X62592857Y-65846476D01*
X62496095Y-65894857D01*
X62302571Y-65943238D01*
X62060667Y-65943238D01*
X61867143Y-65894857D01*
X61770381Y-65846476D01*
X61722000Y-65798095D01*
X61673619Y-65701333D01*
X62689619Y-64395048D02*
X62689619Y-64975619D01*
X62689619Y-64685333D02*
X61673619Y-64685333D01*
X61818762Y-64782095D01*
X61915524Y-64878857D01*
X61963905Y-64975619D01*
X59859333Y-73003831D02*
X59859333Y-72580497D01*
X60149619Y-73088497D02*
X59133619Y-72792164D01*
X60149619Y-72495831D01*
X60149619Y-72199497D02*
X59472286Y-72199497D01*
X59665810Y-72199497D02*
X59569048Y-72157164D01*
X59520667Y-72114831D01*
X59472286Y-72030164D01*
X59472286Y-71945497D01*
X60149619Y-71268164D02*
X59133619Y-71268164D01*
X60101238Y-71268164D02*
X60149619Y-71352831D01*
X60149619Y-71522164D01*
X60101238Y-71606831D01*
X60052857Y-71649164D01*
X59956095Y-71691498D01*
X59665810Y-71691498D01*
X59569048Y-71649164D01*
X59520667Y-71606831D01*
X59472286Y-71522164D01*
X59472286Y-71352831D01*
X59520667Y-71268164D01*
X59472286Y-70463831D02*
X60149619Y-70463831D01*
X59472286Y-70844831D02*
X60004476Y-70844831D01*
X60101238Y-70802498D01*
X60149619Y-70717831D01*
X60149619Y-70590831D01*
X60101238Y-70506165D01*
X60052857Y-70463831D01*
X60149619Y-70040498D02*
X59472286Y-70040498D01*
X59133619Y-70040498D02*
X59182000Y-70082832D01*
X59230381Y-70040498D01*
X59182000Y-69998165D01*
X59133619Y-70040498D01*
X59230381Y-70040498D01*
X59472286Y-69617165D02*
X60149619Y-69617165D01*
X59569048Y-69617165D02*
X59520667Y-69574832D01*
X59472286Y-69490165D01*
X59472286Y-69363165D01*
X59520667Y-69278499D01*
X59617429Y-69236165D01*
X60149619Y-69236165D01*
X60149619Y-68685832D02*
X60101238Y-68770499D01*
X60052857Y-68812832D01*
X59956095Y-68855166D01*
X59665810Y-68855166D01*
X59569048Y-68812832D01*
X59520667Y-68770499D01*
X59472286Y-68685832D01*
X59472286Y-68558832D01*
X59520667Y-68474166D01*
X59569048Y-68431832D01*
X59665810Y-68389499D01*
X59956095Y-68389499D01*
X60052857Y-68431832D01*
X60101238Y-68474166D01*
X60149619Y-68558832D01*
X60149619Y-68685832D01*
X60246381Y-68220166D02*
X60246381Y-67542833D01*
X60149619Y-67331166D02*
X59133619Y-67331166D01*
X60149619Y-66823166D01*
X59133619Y-66823166D01*
X60149619Y-66018833D02*
X59617429Y-66018833D01*
X59520667Y-66061167D01*
X59472286Y-66145833D01*
X59472286Y-66315167D01*
X59520667Y-66399833D01*
X60101238Y-66018833D02*
X60149619Y-66103500D01*
X60149619Y-66315167D01*
X60101238Y-66399833D01*
X60004476Y-66442167D01*
X59907714Y-66442167D01*
X59810952Y-66399833D01*
X59762571Y-66315167D01*
X59762571Y-66103500D01*
X59714190Y-66018833D01*
X59472286Y-65595500D02*
X60149619Y-65595500D01*
X59569048Y-65595500D02*
X59520667Y-65553167D01*
X59472286Y-65468500D01*
X59472286Y-65341500D01*
X59520667Y-65256834D01*
X59617429Y-65214500D01*
X60149619Y-65214500D01*
X60149619Y-64664167D02*
X60101238Y-64748834D01*
X60052857Y-64791167D01*
X59956095Y-64833501D01*
X59665810Y-64833501D01*
X59569048Y-64791167D01*
X59520667Y-64748834D01*
X59472286Y-64664167D01*
X59472286Y-64537167D01*
X59520667Y-64452501D01*
X59569048Y-64410167D01*
X59665810Y-64367834D01*
X59956095Y-64367834D01*
X60052857Y-64410167D01*
X60101238Y-64452501D01*
X60149619Y-64537167D01*
X60149619Y-64664167D01*
X60246381Y-64198501D02*
X60246381Y-63521168D01*
X60149619Y-63309501D02*
X59133619Y-63309501D01*
X59617429Y-63309501D02*
X59617429Y-62801501D01*
X60149619Y-62801501D02*
X59133619Y-62801501D01*
X60101238Y-62039502D02*
X60149619Y-62124168D01*
X60149619Y-62293502D01*
X60101238Y-62378168D01*
X60004476Y-62420502D01*
X59617429Y-62420502D01*
X59520667Y-62378168D01*
X59472286Y-62293502D01*
X59472286Y-62124168D01*
X59520667Y-62039502D01*
X59617429Y-61997168D01*
X59714190Y-61997168D01*
X59810952Y-62420502D01*
X60149619Y-61235168D02*
X59617429Y-61235168D01*
X59520667Y-61277502D01*
X59472286Y-61362168D01*
X59472286Y-61531502D01*
X59520667Y-61616168D01*
X60101238Y-61235168D02*
X60149619Y-61319835D01*
X60149619Y-61531502D01*
X60101238Y-61616168D01*
X60004476Y-61658502D01*
X59907714Y-61658502D01*
X59810952Y-61616168D01*
X59762571Y-61531502D01*
X59762571Y-61319835D01*
X59714190Y-61235168D01*
X60149619Y-60430835D02*
X59133619Y-60430835D01*
X60101238Y-60430835D02*
X60149619Y-60515502D01*
X60149619Y-60684835D01*
X60101238Y-60769502D01*
X60052857Y-60811835D01*
X59956095Y-60854169D01*
X59665810Y-60854169D01*
X59569048Y-60811835D01*
X59520667Y-60769502D01*
X59472286Y-60684835D01*
X59472286Y-60515502D01*
X59520667Y-60430835D01*
X60101238Y-59668836D02*
X60149619Y-59753502D01*
X60149619Y-59922836D01*
X60101238Y-60007502D01*
X60004476Y-60049836D01*
X59617429Y-60049836D01*
X59520667Y-60007502D01*
X59472286Y-59922836D01*
X59472286Y-59753502D01*
X59520667Y-59668836D01*
X59617429Y-59626502D01*
X59714190Y-59626502D01*
X59810952Y-60049836D01*
X60149619Y-59245502D02*
X59472286Y-59245502D01*
X59665810Y-59245502D02*
X59569048Y-59203169D01*
X59520667Y-59160836D01*
X59472286Y-59076169D01*
X59472286Y-58991502D01*
D11*
X75652381Y-55125714D02*
X76366667Y-55125714D01*
X76509524Y-55173334D01*
X76604762Y-55268572D01*
X76652381Y-55411429D01*
X76652381Y-55506667D01*
X76652381Y-54649524D02*
X75652381Y-54649524D01*
X75652381Y-54268571D01*
X75700000Y-54173333D01*
X75747619Y-54125714D01*
X75842857Y-54078095D01*
X75985714Y-54078095D01*
X76080952Y-54125714D01*
X76128571Y-54173333D01*
X76176190Y-54268571D01*
X76176190Y-54649524D01*
X76652381Y-53125714D02*
X76652381Y-53697143D01*
X76652381Y-53411429D02*
X75652381Y-53411429D01*
X75795238Y-53506667D01*
X75890476Y-53601905D01*
X75938095Y-53697143D01*
X75652381Y-52506667D02*
X75652381Y-52411428D01*
X75700000Y-52316190D01*
X75747619Y-52268571D01*
X75842857Y-52220952D01*
X76033333Y-52173333D01*
X76271429Y-52173333D01*
X76461905Y-52220952D01*
X76557143Y-52268571D01*
X76604762Y-52316190D01*
X76652381Y-52411428D01*
X76652381Y-52506667D01*
X76604762Y-52601905D01*
X76557143Y-52649524D01*
X76461905Y-52697143D01*
X76271429Y-52744762D01*
X76033333Y-52744762D01*
X75842857Y-52697143D01*
X75747619Y-52649524D01*
X75700000Y-52601905D01*
X75652381Y-52506667D01*
X76652381Y-51220952D02*
X76652381Y-51792381D01*
X76652381Y-51506667D02*
X75652381Y-51506667D01*
X75795238Y-51601905D01*
X75890476Y-51697143D01*
X75938095Y-51792381D01*
X140549524Y-48692381D02*
X140549524Y-47692381D01*
X140930477Y-47692381D01*
X141025715Y-47740000D01*
X141073334Y-47787619D01*
X141120953Y-47882857D01*
X141120953Y-48025714D01*
X141073334Y-48120952D01*
X141025715Y-48168571D01*
X140930477Y-48216190D01*
X140549524Y-48216190D01*
X142073334Y-48692381D02*
X141501905Y-48692381D01*
X141787619Y-48692381D02*
X141787619Y-47692381D01*
X141692381Y-47835238D01*
X141597143Y-47930476D01*
X141501905Y-47978095D01*
X142692381Y-47692381D02*
X142787620Y-47692381D01*
X142882858Y-47740000D01*
X142930477Y-47787619D01*
X142978096Y-47882857D01*
X143025715Y-48073333D01*
X143025715Y-48311429D01*
X142978096Y-48501905D01*
X142930477Y-48597143D01*
X142882858Y-48644762D01*
X142787620Y-48692381D01*
X142692381Y-48692381D01*
X142597143Y-48644762D01*
X142549524Y-48597143D01*
X142501905Y-48501905D01*
X142454286Y-48311429D01*
X142454286Y-48073333D01*
X142501905Y-47882857D01*
X142549524Y-47787619D01*
X142597143Y-47740000D01*
X142692381Y-47692381D01*
X143978096Y-48692381D02*
X143406667Y-48692381D01*
X143692381Y-48692381D02*
X143692381Y-47692381D01*
X143597143Y-47835238D01*
X143501905Y-47930476D01*
X143406667Y-47978095D01*
X71552381Y-47410476D02*
X70552381Y-47410476D01*
X70552381Y-47029523D01*
X70600000Y-46934285D01*
X70647619Y-46886666D01*
X70742857Y-46839047D01*
X70885714Y-46839047D01*
X70980952Y-46886666D01*
X71028571Y-46934285D01*
X71076190Y-47029523D01*
X71076190Y-47410476D01*
X71552381Y-45886666D02*
X71552381Y-46458095D01*
X71552381Y-46172381D02*
X70552381Y-46172381D01*
X70695238Y-46267619D01*
X70790476Y-46362857D01*
X70838095Y-46458095D01*
X70552381Y-45267619D02*
X70552381Y-45172380D01*
X70600000Y-45077142D01*
X70647619Y-45029523D01*
X70742857Y-44981904D01*
X70933333Y-44934285D01*
X71171429Y-44934285D01*
X71361905Y-44981904D01*
X71457143Y-45029523D01*
X71504762Y-45077142D01*
X71552381Y-45172380D01*
X71552381Y-45267619D01*
X71504762Y-45362857D01*
X71457143Y-45410476D01*
X71361905Y-45458095D01*
X71171429Y-45505714D01*
X70933333Y-45505714D01*
X70742857Y-45458095D01*
X70647619Y-45410476D01*
X70600000Y-45362857D01*
X70552381Y-45267619D01*
X70647619Y-44553333D02*
X70600000Y-44505714D01*
X70552381Y-44410476D01*
X70552381Y-44172380D01*
X70600000Y-44077142D01*
X70647619Y-44029523D01*
X70742857Y-43981904D01*
X70838095Y-43981904D01*
X70980952Y-44029523D01*
X71552381Y-44600952D01*
X71552381Y-43981904D01*
X89352381Y-49807619D02*
X88876190Y-50140953D01*
X89352381Y-50379048D02*
X88352381Y-50379048D01*
X88352381Y-49998095D01*
X88400000Y-49902857D01*
X88447619Y-49855238D01*
X88542857Y-49807619D01*
X88685714Y-49807619D01*
X88780952Y-49855238D01*
X88828571Y-49902857D01*
X88876190Y-49998095D01*
X88876190Y-50379048D01*
X88352381Y-49521905D02*
X89352381Y-49188572D01*
X88352381Y-48855238D01*
X89352381Y-47998095D02*
X89352381Y-48569524D01*
X89352381Y-48283810D02*
X88352381Y-48283810D01*
X88495238Y-48379048D01*
X88590476Y-48474286D01*
X88638095Y-48569524D01*
X88352381Y-47379048D02*
X88352381Y-47283809D01*
X88400000Y-47188571D01*
X88447619Y-47140952D01*
X88542857Y-47093333D01*
X88733333Y-47045714D01*
X88971429Y-47045714D01*
X89161905Y-47093333D01*
X89257143Y-47140952D01*
X89304762Y-47188571D01*
X89352381Y-47283809D01*
X89352381Y-47379048D01*
X89304762Y-47474286D01*
X89257143Y-47521905D01*
X89161905Y-47569524D01*
X88971429Y-47617143D01*
X88733333Y-47617143D01*
X88542857Y-47569524D01*
X88447619Y-47521905D01*
X88400000Y-47474286D01*
X88352381Y-47379048D01*
X89352381Y-46093333D02*
X89352381Y-46664762D01*
X89352381Y-46379048D02*
X88352381Y-46379048D01*
X88495238Y-46474286D01*
X88590476Y-46569524D01*
X88638095Y-46664762D01*
X89352381Y-65047619D02*
X88876190Y-65380953D01*
X89352381Y-65619048D02*
X88352381Y-65619048D01*
X88352381Y-65238095D01*
X88400000Y-65142857D01*
X88447619Y-65095238D01*
X88542857Y-65047619D01*
X88685714Y-65047619D01*
X88780952Y-65095238D01*
X88828571Y-65142857D01*
X88876190Y-65238095D01*
X88876190Y-65619048D01*
X88352381Y-64761905D02*
X89352381Y-64428572D01*
X88352381Y-64095238D01*
X89352381Y-63238095D02*
X89352381Y-63809524D01*
X89352381Y-63523810D02*
X88352381Y-63523810D01*
X88495238Y-63619048D01*
X88590476Y-63714286D01*
X88638095Y-63809524D01*
X88352381Y-62619048D02*
X88352381Y-62523809D01*
X88400000Y-62428571D01*
X88447619Y-62380952D01*
X88542857Y-62333333D01*
X88733333Y-62285714D01*
X88971429Y-62285714D01*
X89161905Y-62333333D01*
X89257143Y-62380952D01*
X89304762Y-62428571D01*
X89352381Y-62523809D01*
X89352381Y-62619048D01*
X89304762Y-62714286D01*
X89257143Y-62761905D01*
X89161905Y-62809524D01*
X88971429Y-62857143D01*
X88733333Y-62857143D01*
X88542857Y-62809524D01*
X88447619Y-62761905D01*
X88400000Y-62714286D01*
X88352381Y-62619048D01*
X88447619Y-61904762D02*
X88400000Y-61857143D01*
X88352381Y-61761905D01*
X88352381Y-61523809D01*
X88400000Y-61428571D01*
X88447619Y-61380952D01*
X88542857Y-61333333D01*
X88638095Y-61333333D01*
X88780952Y-61380952D01*
X89352381Y-61952381D01*
X89352381Y-61333333D01*
X89352381Y-80287619D02*
X88876190Y-80620953D01*
X89352381Y-80859048D02*
X88352381Y-80859048D01*
X88352381Y-80478095D01*
X88400000Y-80382857D01*
X88447619Y-80335238D01*
X88542857Y-80287619D01*
X88685714Y-80287619D01*
X88780952Y-80335238D01*
X88828571Y-80382857D01*
X88876190Y-80478095D01*
X88876190Y-80859048D01*
X88352381Y-80001905D02*
X89352381Y-79668572D01*
X88352381Y-79335238D01*
X89352381Y-78478095D02*
X89352381Y-79049524D01*
X89352381Y-78763810D02*
X88352381Y-78763810D01*
X88495238Y-78859048D01*
X88590476Y-78954286D01*
X88638095Y-79049524D01*
X88352381Y-77859048D02*
X88352381Y-77763809D01*
X88400000Y-77668571D01*
X88447619Y-77620952D01*
X88542857Y-77573333D01*
X88733333Y-77525714D01*
X88971429Y-77525714D01*
X89161905Y-77573333D01*
X89257143Y-77620952D01*
X89304762Y-77668571D01*
X89352381Y-77763809D01*
X89352381Y-77859048D01*
X89304762Y-77954286D01*
X89257143Y-78001905D01*
X89161905Y-78049524D01*
X88971429Y-78097143D01*
X88733333Y-78097143D01*
X88542857Y-78049524D01*
X88447619Y-78001905D01*
X88400000Y-77954286D01*
X88352381Y-77859048D01*
X88352381Y-77192381D02*
X88352381Y-76573333D01*
X88733333Y-76906667D01*
X88733333Y-76763809D01*
X88780952Y-76668571D01*
X88828571Y-76620952D01*
X88923810Y-76573333D01*
X89161905Y-76573333D01*
X89257143Y-76620952D01*
X89304762Y-76668571D01*
X89352381Y-76763809D01*
X89352381Y-77049524D01*
X89304762Y-77144762D01*
X89257143Y-77192381D01*
X77025714Y-60272381D02*
X77025714Y-61081905D01*
X77073333Y-61177143D01*
X77120952Y-61224762D01*
X77216190Y-61272381D01*
X77406667Y-61272381D01*
X77501905Y-61224762D01*
X77549524Y-61177143D01*
X77597143Y-61081905D01*
X77597143Y-60272381D01*
X78597143Y-61272381D02*
X78025714Y-61272381D01*
X78311428Y-61272381D02*
X78311428Y-60272381D01*
X78216190Y-60415238D01*
X78120952Y-60510476D01*
X78025714Y-60558095D01*
X79216190Y-60272381D02*
X79311429Y-60272381D01*
X79406667Y-60320000D01*
X79454286Y-60367619D01*
X79501905Y-60462857D01*
X79549524Y-60653333D01*
X79549524Y-60891429D01*
X79501905Y-61081905D01*
X79454286Y-61177143D01*
X79406667Y-61224762D01*
X79311429Y-61272381D01*
X79216190Y-61272381D01*
X79120952Y-61224762D01*
X79073333Y-61177143D01*
X79025714Y-61081905D01*
X78978095Y-60891429D01*
X78978095Y-60653333D01*
X79025714Y-60462857D01*
X79073333Y-60367619D01*
X79120952Y-60320000D01*
X79216190Y-60272381D01*
X80501905Y-61272381D02*
X79930476Y-61272381D01*
X80216190Y-61272381D02*
X80216190Y-60272381D01*
X80120952Y-60415238D01*
X80025714Y-60510476D01*
X79930476Y-60558095D01*
X123212381Y-65214286D02*
X124021905Y-65214286D01*
X124117143Y-65166667D01*
X124164762Y-65119048D01*
X124212381Y-65023810D01*
X124212381Y-64833333D01*
X124164762Y-64738095D01*
X124117143Y-64690476D01*
X124021905Y-64642857D01*
X123212381Y-64642857D01*
X124212381Y-63642857D02*
X124212381Y-64214286D01*
X124212381Y-63928572D02*
X123212381Y-63928572D01*
X123355238Y-64023810D01*
X123450476Y-64119048D01*
X123498095Y-64214286D01*
X123212381Y-63023810D02*
X123212381Y-62928571D01*
X123260000Y-62833333D01*
X123307619Y-62785714D01*
X123402857Y-62738095D01*
X123593333Y-62690476D01*
X123831429Y-62690476D01*
X124021905Y-62738095D01*
X124117143Y-62785714D01*
X124164762Y-62833333D01*
X124212381Y-62928571D01*
X124212381Y-63023810D01*
X124164762Y-63119048D01*
X124117143Y-63166667D01*
X124021905Y-63214286D01*
X123831429Y-63261905D01*
X123593333Y-63261905D01*
X123402857Y-63214286D01*
X123307619Y-63166667D01*
X123260000Y-63119048D01*
X123212381Y-63023810D01*
X123307619Y-62309524D02*
X123260000Y-62261905D01*
X123212381Y-62166667D01*
X123212381Y-61928571D01*
X123260000Y-61833333D01*
X123307619Y-61785714D01*
X123402857Y-61738095D01*
X123498095Y-61738095D01*
X123640952Y-61785714D01*
X124212381Y-62357143D01*
X124212381Y-61738095D01*
X137136190Y-67468572D02*
X137612381Y-67468572D01*
X136612381Y-67801905D02*
X137136190Y-67468572D01*
X136612381Y-67135238D01*
X137612381Y-66278095D02*
X137612381Y-66849524D01*
X137612381Y-66563810D02*
X136612381Y-66563810D01*
X136755238Y-66659048D01*
X136850476Y-66754286D01*
X136898095Y-66849524D01*
X136612381Y-65659048D02*
X136612381Y-65563809D01*
X136660000Y-65468571D01*
X136707619Y-65420952D01*
X136802857Y-65373333D01*
X136993333Y-65325714D01*
X137231429Y-65325714D01*
X137421905Y-65373333D01*
X137517143Y-65420952D01*
X137564762Y-65468571D01*
X137612381Y-65563809D01*
X137612381Y-65659048D01*
X137564762Y-65754286D01*
X137517143Y-65801905D01*
X137421905Y-65849524D01*
X137231429Y-65897143D01*
X136993333Y-65897143D01*
X136802857Y-65849524D01*
X136707619Y-65801905D01*
X136660000Y-65754286D01*
X136612381Y-65659048D01*
X137612381Y-64373333D02*
X137612381Y-64944762D01*
X137612381Y-64659048D02*
X136612381Y-64659048D01*
X136755238Y-64754286D01*
X136850476Y-64849524D01*
X136898095Y-64944762D01*
%LPC*%
D14*
X73660000Y-68580000D03*
D15*
X73660000Y-66080000D03*
D14*
X73660000Y-76200000D03*
D15*
X73660000Y-73700000D03*
D14*
X81280000Y-58420000D03*
D15*
X83780000Y-58420000D03*
D14*
X73660000Y-83820000D03*
D15*
X73660000Y-81320000D03*
D14*
X132080000Y-55880000D03*
D15*
X134580000Y-55880000D03*
D14*
X132080000Y-76200000D03*
D15*
X134580000Y-76200000D03*
D16*
X68580000Y-83820000D03*
X68580000Y-81280000D03*
X68580000Y-78740000D03*
X68580000Y-76200000D03*
X68580000Y-73660000D03*
X68580000Y-71120000D03*
X68580000Y-68580000D03*
X68580000Y-66040000D03*
X68580000Y-63500000D03*
X68580000Y-60960000D03*
X68580000Y-58420000D03*
X68580000Y-55880000D03*
X68580000Y-53340000D03*
X68580000Y-50800000D03*
X68580000Y-48260000D03*
X53340000Y-48260000D03*
X53340000Y-50800000D03*
X53340000Y-53340000D03*
X53340000Y-55880000D03*
D17*
X53340000Y-58420000D03*
X53340000Y-60960000D03*
X53340000Y-63500000D03*
X53340000Y-66040000D03*
X53340000Y-68580000D03*
X53340000Y-71120000D03*
X53340000Y-73660000D03*
X53340000Y-76200000D03*
X53340000Y-78740000D03*
X53340000Y-81280000D03*
X53340000Y-83820000D03*
D18*
X78740000Y-53340000D03*
D19*
X81280000Y-53340000D03*
X83820000Y-53340000D03*
D20*
X142240000Y-53340000D03*
D21*
X144780000Y-53340000D03*
X142240000Y-55880000D03*
X144780000Y-55880000D03*
X142240000Y-58420000D03*
X144780000Y-58420000D03*
X142240000Y-60960000D03*
X144780000Y-60960000D03*
X142240000Y-63500000D03*
X144780000Y-63500000D03*
X142240000Y-66040000D03*
X144780000Y-66040000D03*
X142240000Y-68580000D03*
X144780000Y-68580000D03*
X142240000Y-71120000D03*
X144780000Y-71120000D03*
X142240000Y-73660000D03*
X144780000Y-73660000D03*
X142240000Y-76200000D03*
X144780000Y-76200000D03*
D18*
X76200000Y-45720000D03*
D19*
X78740000Y-45720000D03*
X81280000Y-45720000D03*
X83820000Y-45720000D03*
X86360000Y-45720000D03*
D20*
X106680000Y-76200000D03*
D21*
X106680000Y-78740000D03*
X109220000Y-76200000D03*
X109220000Y-78740000D03*
X111760000Y-76200000D03*
X111760000Y-78740000D03*
X114300000Y-76200000D03*
X114300000Y-78740000D03*
X116840000Y-76200000D03*
X116840000Y-78740000D03*
X119380000Y-76200000D03*
X119380000Y-78740000D03*
X121920000Y-76200000D03*
X121920000Y-78740000D03*
X124460000Y-76200000D03*
X124460000Y-78740000D03*
D20*
X106680000Y-45720000D03*
D21*
X106680000Y-48260000D03*
X109220000Y-45720000D03*
X109220000Y-48260000D03*
X111760000Y-45720000D03*
X111760000Y-48260000D03*
X114300000Y-45720000D03*
X114300000Y-48260000D03*
X116840000Y-45720000D03*
X116840000Y-48260000D03*
X119380000Y-45720000D03*
X119380000Y-48260000D03*
X121920000Y-45720000D03*
X121920000Y-48260000D03*
X124460000Y-45720000D03*
X124460000Y-48260000D03*
D22*
X91440000Y-48260000D03*
X93980000Y-45720000D03*
X93980000Y-50800000D03*
X91440000Y-63500000D03*
X93980000Y-60960000D03*
X93980000Y-66040000D03*
X91440000Y-78740000D03*
X93980000Y-76200000D03*
X93980000Y-81280000D03*
D23*
X78740000Y-66040000D03*
X78740000Y-68580000D03*
X78740000Y-71120000D03*
X78740000Y-73660000D03*
X78740000Y-76200000D03*
X78740000Y-78740000D03*
X78740000Y-81280000D03*
X78740000Y-83820000D03*
X86360000Y-83820000D03*
X86360000Y-81280000D03*
X86360000Y-78740000D03*
X86360000Y-76200000D03*
X86360000Y-73660000D03*
X86360000Y-71120000D03*
X86360000Y-68580000D03*
X86360000Y-66040000D03*
D24*
X107760000Y-68250000D03*
X108760000Y-68250000D03*
X109760000Y-68250000D03*
X110760000Y-68250000D03*
X111760000Y-68250000D03*
X112760000Y-68250000D03*
X113760000Y-68250000D03*
X114760000Y-68250000D03*
X115760000Y-68250000D03*
X116760000Y-68250000D03*
X117760000Y-68250000D03*
X118760000Y-68250000D03*
X119760000Y-68250000D03*
X120760000Y-68250000D03*
X121760000Y-68250000D03*
X121760000Y-58750000D03*
X120760000Y-58750000D03*
X119760000Y-58750000D03*
X118760000Y-58750000D03*
X117760000Y-58750000D03*
X116760000Y-58750000D03*
X115760000Y-58750000D03*
X114760000Y-58750000D03*
X113760000Y-58750000D03*
X112760000Y-58750000D03*
X111760000Y-58750000D03*
X110760000Y-58750000D03*
X109760000Y-58750000D03*
X108760000Y-58750000D03*
X107760000Y-58750000D03*
D25*
X132080000Y-63500000D03*
X132080000Y-68580000D03*
M02*
