G04 #@! TF.FileFunction,Copper,L2,Bot,Signal*
%FSLAX46Y46*%
G04 Gerber Fmt 4.6, Leading zero omitted, Abs format (unit mm)*
G04 Created by KiCad (PCBNEW 4.0.5) date 12/27/16 23:39:24*
%MOMM*%
%LPD*%
G01*
G04 APERTURE LIST*
%ADD10C,0.100000*%
%ADD11R,1.200000X1.200000*%
%ADD12C,1.200000*%
%ADD13O,2.199640X1.524000*%
%ADD14O,2.197100X1.524000*%
%ADD15R,1.727200X2.032000*%
%ADD16O,1.727200X2.032000*%
%ADD17R,1.727200X1.727200*%
%ADD18O,1.727200X1.727200*%
%ADD19C,1.524000*%
%ADD20O,1.600000X1.600000*%
%ADD21C,1.778000*%
%ADD22C,0.600000*%
%ADD23C,0.500000*%
%ADD24C,0.254000*%
G04 APERTURE END LIST*
D10*
D11*
X73660000Y-68580000D03*
D12*
X73660000Y-66080000D03*
D11*
X73660000Y-76200000D03*
D12*
X73660000Y-73700000D03*
D11*
X81280000Y-58420000D03*
D12*
X83780000Y-58420000D03*
D11*
X73660000Y-83820000D03*
D12*
X73660000Y-81320000D03*
D11*
X132080000Y-55880000D03*
D12*
X134580000Y-55880000D03*
D11*
X132080000Y-76200000D03*
D12*
X134580000Y-76200000D03*
D13*
X68580000Y-83820000D03*
X68580000Y-81280000D03*
X68580000Y-78740000D03*
X68580000Y-76200000D03*
X68580000Y-73660000D03*
X68580000Y-71120000D03*
X68580000Y-68580000D03*
X68580000Y-66040000D03*
X68580000Y-63500000D03*
X68580000Y-60960000D03*
X68580000Y-58420000D03*
X68580000Y-55880000D03*
X68580000Y-53340000D03*
X68580000Y-50800000D03*
X68580000Y-48260000D03*
X53340000Y-48260000D03*
X53340000Y-50800000D03*
X53340000Y-53340000D03*
X53340000Y-55880000D03*
D14*
X53340000Y-58420000D03*
X53340000Y-60960000D03*
X53340000Y-63500000D03*
X53340000Y-66040000D03*
X53340000Y-68580000D03*
X53340000Y-71120000D03*
X53340000Y-73660000D03*
X53340000Y-76200000D03*
X53340000Y-78740000D03*
X53340000Y-81280000D03*
X53340000Y-83820000D03*
D15*
X78740000Y-53340000D03*
D16*
X81280000Y-53340000D03*
X83820000Y-53340000D03*
D17*
X142240000Y-53340000D03*
D18*
X144780000Y-53340000D03*
X142240000Y-55880000D03*
X144780000Y-55880000D03*
X142240000Y-58420000D03*
X144780000Y-58420000D03*
X142240000Y-60960000D03*
X144780000Y-60960000D03*
X142240000Y-63500000D03*
X144780000Y-63500000D03*
X142240000Y-66040000D03*
X144780000Y-66040000D03*
X142240000Y-68580000D03*
X144780000Y-68580000D03*
X142240000Y-71120000D03*
X144780000Y-71120000D03*
X142240000Y-73660000D03*
X144780000Y-73660000D03*
X142240000Y-76200000D03*
X144780000Y-76200000D03*
D15*
X76200000Y-45720000D03*
D16*
X78740000Y-45720000D03*
X81280000Y-45720000D03*
X83820000Y-45720000D03*
X86360000Y-45720000D03*
D17*
X106680000Y-76200000D03*
D18*
X106680000Y-78740000D03*
X109220000Y-76200000D03*
X109220000Y-78740000D03*
X111760000Y-76200000D03*
X111760000Y-78740000D03*
X114300000Y-76200000D03*
X114300000Y-78740000D03*
X116840000Y-76200000D03*
X116840000Y-78740000D03*
X119380000Y-76200000D03*
X119380000Y-78740000D03*
X121920000Y-76200000D03*
X121920000Y-78740000D03*
X124460000Y-76200000D03*
X124460000Y-78740000D03*
D17*
X106680000Y-45720000D03*
D18*
X106680000Y-48260000D03*
X109220000Y-45720000D03*
X109220000Y-48260000D03*
X111760000Y-45720000D03*
X111760000Y-48260000D03*
X114300000Y-45720000D03*
X114300000Y-48260000D03*
X116840000Y-45720000D03*
X116840000Y-48260000D03*
X119380000Y-45720000D03*
X119380000Y-48260000D03*
X121920000Y-45720000D03*
X121920000Y-48260000D03*
X124460000Y-45720000D03*
X124460000Y-48260000D03*
D19*
X91440000Y-48260000D03*
X93980000Y-45720000D03*
X93980000Y-50800000D03*
X91440000Y-63500000D03*
X93980000Y-60960000D03*
X93980000Y-66040000D03*
X91440000Y-78740000D03*
X93980000Y-76200000D03*
X93980000Y-81280000D03*
D20*
X78740000Y-66040000D03*
X78740000Y-68580000D03*
X78740000Y-71120000D03*
X78740000Y-73660000D03*
X78740000Y-76200000D03*
X78740000Y-78740000D03*
X78740000Y-81280000D03*
X78740000Y-83820000D03*
X86360000Y-83820000D03*
X86360000Y-81280000D03*
X86360000Y-78740000D03*
X86360000Y-76200000D03*
X86360000Y-73660000D03*
X86360000Y-71120000D03*
X86360000Y-68580000D03*
X86360000Y-66040000D03*
D21*
X132080000Y-63500000D03*
X132080000Y-68580000D03*
D22*
X106680000Y-71563000D03*
X109610200Y-66758500D03*
X127817600Y-52859100D03*
X121400600Y-54408700D03*
X116919300Y-66684100D03*
X114220200Y-60832200D03*
X125196000Y-56285400D03*
X115070100Y-69726500D03*
X134593200Y-61556100D03*
X105004700Y-69712500D03*
X107202500Y-55850700D03*
X121992000Y-55779300D03*
X121862000Y-57185500D03*
D23*
X73660000Y-68580000D02*
X74760000Y-68580000D01*
X77300000Y-71120000D02*
X74760000Y-68580000D01*
X78740000Y-71120000D02*
X77300000Y-71120000D01*
X106680000Y-71563000D02*
X106680000Y-74836400D01*
X106680000Y-76200000D02*
X106680000Y-74836400D01*
X81280000Y-66040000D02*
X81280000Y-58420000D01*
X78740000Y-68580000D02*
X81280000Y-66040000D01*
X86360000Y-66040000D02*
X86360000Y-64740000D01*
X86291700Y-64671700D02*
X86360000Y-64740000D01*
X86291700Y-58488300D02*
X86291700Y-64671700D01*
X93980000Y-50800000D02*
X86291700Y-58488300D01*
X83848300Y-58488300D02*
X83780000Y-58420000D01*
X86291700Y-58488300D02*
X83848300Y-58488300D01*
X109426300Y-66758500D02*
X109610200Y-66758500D01*
X109426300Y-66758500D02*
X109426300Y-71164300D01*
X109426300Y-49829900D02*
X109426300Y-66758500D01*
X109220000Y-49623600D02*
X109426300Y-49829900D01*
X133529600Y-54829600D02*
X134580000Y-55880000D01*
X131291400Y-54829600D02*
X133529600Y-54829600D01*
X120350100Y-65770900D02*
X131291400Y-54829600D01*
X120350100Y-71164300D02*
X120350100Y-65770900D01*
X120350100Y-73266500D02*
X120350100Y-71164300D01*
X121920000Y-74836400D02*
X120350100Y-73266500D01*
X120350100Y-71164300D02*
X109426300Y-71164300D01*
X109426300Y-74630100D02*
X109220000Y-74836400D01*
X109426300Y-71164300D02*
X109426300Y-74630100D01*
X109220000Y-76200000D02*
X109220000Y-74836400D01*
X121920000Y-76200000D02*
X121920000Y-74836400D01*
X109220000Y-48260000D02*
X109220000Y-49623600D01*
X83820000Y-48260000D02*
X86360000Y-45720000D01*
X83820000Y-53340000D02*
X83820000Y-48260000D01*
X111760000Y-48260000D02*
X111760000Y-47083600D01*
X111760000Y-45720000D02*
X111760000Y-47083600D01*
X87610400Y-72409600D02*
X86360000Y-73660000D01*
X87610400Y-69830400D02*
X87610400Y-72409600D01*
X87231900Y-69451800D02*
X87610400Y-69830400D01*
X86360000Y-68580000D02*
X87231900Y-69451800D01*
X93980000Y-62703700D02*
X93980000Y-60960000D01*
X87231900Y-69451800D02*
X93980000Y-62703700D01*
X87649600Y-77450400D02*
X86360000Y-78740000D01*
X87649600Y-76200000D02*
X87649600Y-77450400D01*
X87649600Y-74949600D02*
X87649600Y-76200000D01*
X86360000Y-73660000D02*
X87649600Y-74949600D01*
X87649600Y-76200000D02*
X93980000Y-76200000D01*
X86360000Y-78740000D02*
X86360000Y-81280000D01*
X76240000Y-78740000D02*
X73660000Y-81320000D01*
X78740000Y-78740000D02*
X76240000Y-78740000D01*
X123234700Y-80054700D02*
X121920000Y-78740000D01*
X125016200Y-80054700D02*
X123234700Y-80054700D01*
X126436300Y-78634600D02*
X125016200Y-80054700D01*
X126436300Y-69143700D02*
X126436300Y-78634600D01*
X132080000Y-63500000D02*
X126436300Y-69143700D01*
X132080000Y-56980000D02*
X132080000Y-63500000D01*
X132080000Y-55880000D02*
X132080000Y-56980000D01*
X132080000Y-68580000D02*
X132080000Y-76200000D01*
X68580000Y-55880000D02*
X68580000Y-54618000D01*
X69842000Y-54618000D02*
X68580000Y-54618000D01*
X78740000Y-45720000D02*
X69842000Y-54618000D01*
X68580000Y-53340000D02*
X68580000Y-52078000D01*
X76200000Y-45720000D02*
X74836400Y-45720000D01*
X69440800Y-52078000D02*
X68580000Y-52078000D01*
X74836400Y-46682400D02*
X69440800Y-52078000D01*
X74836400Y-45720000D02*
X74836400Y-46682400D01*
X71894200Y-43683800D02*
X68580000Y-46998000D01*
X118707400Y-43683800D02*
X71894200Y-43683800D01*
X119380000Y-44356400D02*
X118707400Y-43683800D01*
X120036300Y-43700100D02*
X119380000Y-44356400D01*
X125305700Y-43700100D02*
X120036300Y-43700100D01*
X129420700Y-47815100D02*
X125305700Y-43700100D01*
X129420700Y-51256000D02*
X129420700Y-47815100D01*
X119380000Y-45720000D02*
X119380000Y-44356400D01*
X68580000Y-48260000D02*
X68580000Y-46998000D01*
X129420700Y-51256000D02*
X127817600Y-52859100D01*
X144602600Y-51256000D02*
X129420700Y-51256000D01*
X146132700Y-52786100D02*
X144602600Y-51256000D01*
X146132700Y-62147300D02*
X146132700Y-52786100D01*
X144780000Y-63500000D02*
X146132700Y-62147300D01*
X119380000Y-52388100D02*
X121400600Y-54408700D01*
X119380000Y-48260000D02*
X119380000Y-52388100D01*
X53340000Y-73660000D02*
X53340000Y-72398000D01*
X54602000Y-72398000D02*
X53340000Y-72398000D01*
X62230000Y-64770000D02*
X54602000Y-72398000D01*
X73034500Y-64770000D02*
X62230000Y-64770000D01*
X81509100Y-56295400D02*
X73034500Y-64770000D01*
X83404600Y-56295400D02*
X81509100Y-56295400D01*
X91440000Y-48260000D02*
X83404600Y-56295400D01*
X114300000Y-64064800D02*
X116919300Y-66684100D01*
X114300000Y-60832200D02*
X114300000Y-64064800D01*
X114300000Y-48260000D02*
X114300000Y-60832200D01*
X114300000Y-60832200D02*
X114220200Y-60832200D01*
X95920900Y-79339100D02*
X93980000Y-81280000D01*
X95920900Y-67980900D02*
X95920900Y-79339100D01*
X93980000Y-66040000D02*
X95920900Y-67980900D01*
X116840000Y-45720000D02*
X114300000Y-48260000D01*
X123239500Y-44400500D02*
X121920000Y-45720000D01*
X125007100Y-44400500D02*
X123239500Y-44400500D01*
X126474400Y-45867800D02*
X125007100Y-44400500D01*
X126474400Y-55007000D02*
X126474400Y-45867800D01*
X125196000Y-56285400D02*
X126474400Y-55007000D01*
X142240000Y-58420000D02*
X140876400Y-58420000D01*
X130689100Y-54107500D02*
X115070100Y-69726500D01*
X136563900Y-54107500D02*
X130689100Y-54107500D01*
X140876400Y-58420000D02*
X136563900Y-54107500D01*
X135238700Y-62201600D02*
X134593200Y-61556100D01*
X135238700Y-63500000D02*
X135238700Y-62201600D01*
X135238700Y-63500000D02*
X142240000Y-63500000D01*
X130233700Y-68505000D02*
X135238700Y-63500000D01*
X130233700Y-75926200D02*
X130233700Y-68505000D01*
X125378200Y-80781700D02*
X130233700Y-75926200D01*
X116341700Y-80781700D02*
X125378200Y-80781700D01*
X114300000Y-78740000D02*
X116341700Y-80781700D01*
X114502100Y-81482100D02*
X111760000Y-78740000D01*
X128692500Y-81482100D02*
X114502100Y-81482100D01*
X133235400Y-76939200D02*
X128692500Y-81482100D01*
X133235400Y-75044600D02*
X133235400Y-76939200D01*
X142240000Y-66040000D02*
X133235400Y-75044600D01*
X105004700Y-77064700D02*
X106680000Y-78740000D01*
X105004700Y-69712500D02*
X105004700Y-77064700D01*
X93221800Y-78740000D02*
X91440000Y-78740000D01*
X95192400Y-76769400D02*
X93221800Y-78740000D01*
X95192400Y-69967000D02*
X95192400Y-76769400D01*
X92753800Y-67528400D02*
X95192400Y-69967000D01*
X92753800Y-65509200D02*
X92753800Y-67528400D01*
X104070700Y-54192300D02*
X92753800Y-65509200D01*
X105315300Y-54192300D02*
X104070700Y-54192300D01*
X105544100Y-54192300D02*
X107202500Y-55850700D01*
X105315300Y-54192300D02*
X105544100Y-54192300D01*
X107906000Y-44406000D02*
X109220000Y-45720000D01*
X105611600Y-44406000D02*
X107906000Y-44406000D01*
X105315300Y-44702300D02*
X105611600Y-44406000D01*
X105315300Y-54192300D02*
X105315300Y-44702300D01*
X121920000Y-48260000D02*
X121920000Y-49623600D01*
X122164600Y-49868200D02*
X121920000Y-49623600D01*
X122164600Y-55606700D02*
X122164600Y-49868200D01*
X121992000Y-55779300D02*
X122164600Y-55606700D01*
X125774000Y-53273500D02*
X121862000Y-57185500D01*
X125774000Y-47034000D02*
X125774000Y-53273500D01*
X124460000Y-45720000D02*
X125774000Y-47034000D01*
D24*
G36*
X147193000Y-88773000D02*
X50927000Y-88773000D01*
X50927000Y-83820000D01*
X51572488Y-83820000D01*
X51678828Y-84354609D01*
X51981660Y-84807828D01*
X52434879Y-85110660D01*
X52969488Y-85217000D01*
X53710512Y-85217000D01*
X54245121Y-85110660D01*
X54698340Y-84807828D01*
X55001172Y-84354609D01*
X55107512Y-83820000D01*
X55001172Y-83285391D01*
X54698340Y-82832172D01*
X54263107Y-82541358D01*
X54328491Y-82522059D01*
X54754180Y-82178026D01*
X55015810Y-81697277D01*
X55030770Y-81623070D01*
X54908270Y-81407000D01*
X53467000Y-81407000D01*
X53467000Y-81427000D01*
X53213000Y-81427000D01*
X53213000Y-81407000D01*
X51771730Y-81407000D01*
X51649230Y-81623070D01*
X51664190Y-81697277D01*
X51925820Y-82178026D01*
X52351509Y-82522059D01*
X52416893Y-82541358D01*
X51981660Y-82832172D01*
X51678828Y-83285391D01*
X51572488Y-83820000D01*
X50927000Y-83820000D01*
X50927000Y-48260000D01*
X51571193Y-48260000D01*
X51677533Y-48794609D01*
X51980365Y-49247828D01*
X52402664Y-49530000D01*
X51980365Y-49812172D01*
X51677533Y-50265391D01*
X51571193Y-50800000D01*
X51677533Y-51334609D01*
X51980365Y-51787828D01*
X52402664Y-52070000D01*
X51980365Y-52352172D01*
X51677533Y-52805391D01*
X51571193Y-53340000D01*
X51677533Y-53874609D01*
X51980365Y-54327828D01*
X52402664Y-54610000D01*
X51980365Y-54892172D01*
X51677533Y-55345391D01*
X51571193Y-55880000D01*
X51677533Y-56414609D01*
X51980365Y-56867828D01*
X52403312Y-57150433D01*
X51981660Y-57432172D01*
X51678828Y-57885391D01*
X51572488Y-58420000D01*
X51678828Y-58954609D01*
X51981660Y-59407828D01*
X52403959Y-59690000D01*
X51981660Y-59972172D01*
X51678828Y-60425391D01*
X51572488Y-60960000D01*
X51678828Y-61494609D01*
X51981660Y-61947828D01*
X52403959Y-62230000D01*
X51981660Y-62512172D01*
X51678828Y-62965391D01*
X51572488Y-63500000D01*
X51678828Y-64034609D01*
X51981660Y-64487828D01*
X52403959Y-64770000D01*
X51981660Y-65052172D01*
X51678828Y-65505391D01*
X51572488Y-66040000D01*
X51678828Y-66574609D01*
X51981660Y-67027828D01*
X52403959Y-67310000D01*
X51981660Y-67592172D01*
X51678828Y-68045391D01*
X51572488Y-68580000D01*
X51678828Y-69114609D01*
X51981660Y-69567828D01*
X52403959Y-69850000D01*
X51981660Y-70132172D01*
X51678828Y-70585391D01*
X51572488Y-71120000D01*
X51678828Y-71654609D01*
X51981660Y-72107828D01*
X52403959Y-72390000D01*
X51981660Y-72672172D01*
X51678828Y-73125391D01*
X51572488Y-73660000D01*
X51678828Y-74194609D01*
X51981660Y-74647828D01*
X52403959Y-74930000D01*
X51981660Y-75212172D01*
X51678828Y-75665391D01*
X51572488Y-76200000D01*
X51678828Y-76734609D01*
X51981660Y-77187828D01*
X52403959Y-77470000D01*
X51981660Y-77752172D01*
X51678828Y-78205391D01*
X51572488Y-78740000D01*
X51678828Y-79274609D01*
X51981660Y-79727828D01*
X52416893Y-80018642D01*
X52351509Y-80037941D01*
X51925820Y-80381974D01*
X51664190Y-80862723D01*
X51649230Y-80936930D01*
X51771730Y-81153000D01*
X53213000Y-81153000D01*
X53213000Y-81133000D01*
X53467000Y-81133000D01*
X53467000Y-81153000D01*
X54908270Y-81153000D01*
X55030770Y-80936930D01*
X55015810Y-80862723D01*
X54754180Y-80381974D01*
X54328491Y-80037941D01*
X54263107Y-80018642D01*
X54698340Y-79727828D01*
X55001172Y-79274609D01*
X55107512Y-78740000D01*
X66811193Y-78740000D01*
X66917533Y-79274609D01*
X67220365Y-79727828D01*
X67642664Y-80010000D01*
X67220365Y-80292172D01*
X66917533Y-80745391D01*
X66811193Y-81280000D01*
X66917533Y-81814609D01*
X67220365Y-82267828D01*
X67642664Y-82550000D01*
X67220365Y-82832172D01*
X66917533Y-83285391D01*
X66811193Y-83820000D01*
X66917533Y-84354609D01*
X67220365Y-84807828D01*
X67673584Y-85110660D01*
X68208193Y-85217000D01*
X68951807Y-85217000D01*
X69486416Y-85110660D01*
X69939635Y-84807828D01*
X70242467Y-84354609D01*
X70291967Y-84105750D01*
X72425000Y-84105750D01*
X72425000Y-84546309D01*
X72521673Y-84779698D01*
X72700301Y-84958327D01*
X72933690Y-85055000D01*
X73374250Y-85055000D01*
X73533000Y-84896250D01*
X73533000Y-83947000D01*
X73787000Y-83947000D01*
X73787000Y-84896250D01*
X73945750Y-85055000D01*
X74386310Y-85055000D01*
X74619699Y-84958327D01*
X74798327Y-84779698D01*
X74895000Y-84546309D01*
X74895000Y-84169039D01*
X77348096Y-84169039D01*
X77508959Y-84557423D01*
X77884866Y-84972389D01*
X78390959Y-85211914D01*
X78613000Y-85090629D01*
X78613000Y-83947000D01*
X78867000Y-83947000D01*
X78867000Y-85090629D01*
X79089041Y-85211914D01*
X79595134Y-84972389D01*
X79971041Y-84557423D01*
X80131904Y-84169039D01*
X80009915Y-83947000D01*
X78867000Y-83947000D01*
X78613000Y-83947000D01*
X77470085Y-83947000D01*
X77348096Y-84169039D01*
X74895000Y-84169039D01*
X74895000Y-84105750D01*
X74736250Y-83947000D01*
X73787000Y-83947000D01*
X73533000Y-83947000D01*
X72583750Y-83947000D01*
X72425000Y-84105750D01*
X70291967Y-84105750D01*
X70348807Y-83820000D01*
X84896887Y-83820000D01*
X85006120Y-84369151D01*
X85317189Y-84834698D01*
X85782736Y-85145767D01*
X86331887Y-85255000D01*
X86388113Y-85255000D01*
X86937264Y-85145767D01*
X87402811Y-84834698D01*
X87713880Y-84369151D01*
X87823113Y-83820000D01*
X87713880Y-83270849D01*
X87402811Y-82805302D01*
X86998297Y-82535014D01*
X87215134Y-82432389D01*
X87591041Y-82017423D01*
X87751904Y-81629039D01*
X87629915Y-81407000D01*
X86487000Y-81407000D01*
X86487000Y-81427000D01*
X86233000Y-81427000D01*
X86233000Y-81407000D01*
X85090085Y-81407000D01*
X84968096Y-81629039D01*
X85128959Y-82017423D01*
X85504866Y-82432389D01*
X85721703Y-82535014D01*
X85317189Y-82805302D01*
X85006120Y-83270849D01*
X84896887Y-83820000D01*
X70348807Y-83820000D01*
X70242467Y-83285391D01*
X70114377Y-83093691D01*
X72425000Y-83093691D01*
X72425000Y-83534250D01*
X72583750Y-83693000D01*
X73533000Y-83693000D01*
X73533000Y-82743750D01*
X73787000Y-82743750D01*
X73787000Y-83693000D01*
X74736250Y-83693000D01*
X74895000Y-83534250D01*
X74895000Y-83093691D01*
X74798327Y-82860302D01*
X74619699Y-82681673D01*
X74386310Y-82585000D01*
X73945750Y-82585000D01*
X73787000Y-82743750D01*
X73533000Y-82743750D01*
X73374250Y-82585000D01*
X72933690Y-82585000D01*
X72700301Y-82681673D01*
X72521673Y-82860302D01*
X72425000Y-83093691D01*
X70114377Y-83093691D01*
X69939635Y-82832172D01*
X69517336Y-82550000D01*
X69939635Y-82267828D01*
X70242467Y-81814609D01*
X70348807Y-81280000D01*
X70242467Y-80745391D01*
X69939635Y-80292172D01*
X69517336Y-80010000D01*
X69939635Y-79727828D01*
X70242467Y-79274609D01*
X70348807Y-78740000D01*
X70242467Y-78205391D01*
X69939635Y-77752172D01*
X69504394Y-77461353D01*
X69569761Y-77442059D01*
X69995450Y-77098026D01*
X70257080Y-76617277D01*
X70272040Y-76543070D01*
X70149540Y-76327000D01*
X68707000Y-76327000D01*
X68707000Y-76347000D01*
X68453000Y-76347000D01*
X68453000Y-76327000D01*
X67010460Y-76327000D01*
X66887960Y-76543070D01*
X66902920Y-76617277D01*
X67164550Y-77098026D01*
X67590239Y-77442059D01*
X67655606Y-77461353D01*
X67220365Y-77752172D01*
X66917533Y-78205391D01*
X66811193Y-78740000D01*
X55107512Y-78740000D01*
X55001172Y-78205391D01*
X54698340Y-77752172D01*
X54276041Y-77470000D01*
X54698340Y-77187828D01*
X55001172Y-76734609D01*
X55107512Y-76200000D01*
X55001172Y-75665391D01*
X54698340Y-75212172D01*
X54276041Y-74930000D01*
X54698340Y-74647828D01*
X55001172Y-74194609D01*
X55107512Y-73660000D01*
X55009919Y-73169366D01*
X55227790Y-73023790D01*
X62596579Y-65655000D01*
X66887774Y-65655000D01*
X66811193Y-66040000D01*
X66917533Y-66574609D01*
X67220365Y-67027828D01*
X67642664Y-67310000D01*
X67220365Y-67592172D01*
X66917533Y-68045391D01*
X66811193Y-68580000D01*
X66917533Y-69114609D01*
X67220365Y-69567828D01*
X67642664Y-69850000D01*
X67220365Y-70132172D01*
X66917533Y-70585391D01*
X66811193Y-71120000D01*
X66917533Y-71654609D01*
X67220365Y-72107828D01*
X67642664Y-72390000D01*
X67220365Y-72672172D01*
X66917533Y-73125391D01*
X66811193Y-73660000D01*
X66917533Y-74194609D01*
X67220365Y-74647828D01*
X67655606Y-74938647D01*
X67590239Y-74957941D01*
X67164550Y-75301974D01*
X66902920Y-75782723D01*
X66887960Y-75856930D01*
X67010460Y-76073000D01*
X68453000Y-76073000D01*
X68453000Y-76053000D01*
X68707000Y-76053000D01*
X68707000Y-76073000D01*
X70149540Y-76073000D01*
X70272040Y-75856930D01*
X70257080Y-75782723D01*
X70157640Y-75600000D01*
X72412560Y-75600000D01*
X72412560Y-76800000D01*
X72456838Y-77035317D01*
X72595910Y-77251441D01*
X72808110Y-77396431D01*
X73060000Y-77447440D01*
X74260000Y-77447440D01*
X74495317Y-77403162D01*
X74711441Y-77264090D01*
X74856431Y-77051890D01*
X74907440Y-76800000D01*
X74907440Y-75600000D01*
X74863162Y-75364683D01*
X74724090Y-75148559D01*
X74511890Y-75003569D01*
X74260000Y-74952560D01*
X73060000Y-74952560D01*
X72824683Y-74996838D01*
X72608559Y-75135910D01*
X72463569Y-75348110D01*
X72412560Y-75600000D01*
X70157640Y-75600000D01*
X69995450Y-75301974D01*
X69569761Y-74957941D01*
X69504394Y-74938647D01*
X69939635Y-74647828D01*
X70242467Y-74194609D01*
X70292200Y-73944579D01*
X72424786Y-73944579D01*
X72612408Y-74398657D01*
X72959515Y-74746371D01*
X73413266Y-74934785D01*
X73904579Y-74935214D01*
X74358657Y-74747592D01*
X74706371Y-74400485D01*
X74894785Y-73946734D01*
X74895214Y-73455421D01*
X74707592Y-73001343D01*
X74360485Y-72653629D01*
X73906734Y-72465215D01*
X73415421Y-72464786D01*
X72961343Y-72652408D01*
X72613629Y-72999515D01*
X72425215Y-73453266D01*
X72424786Y-73944579D01*
X70292200Y-73944579D01*
X70348807Y-73660000D01*
X70242467Y-73125391D01*
X69939635Y-72672172D01*
X69517336Y-72390000D01*
X69939635Y-72107828D01*
X70242467Y-71654609D01*
X70348807Y-71120000D01*
X70242467Y-70585391D01*
X69939635Y-70132172D01*
X69517336Y-69850000D01*
X69939635Y-69567828D01*
X70242467Y-69114609D01*
X70348807Y-68580000D01*
X70242467Y-68045391D01*
X69939635Y-67592172D01*
X69517336Y-67310000D01*
X69939635Y-67027828D01*
X70242467Y-66574609D01*
X70348807Y-66040000D01*
X70272226Y-65655000D01*
X72499238Y-65655000D01*
X72425215Y-65833266D01*
X72424786Y-66324579D01*
X72612408Y-66778657D01*
X72959515Y-67126371D01*
X73413266Y-67314785D01*
X73904579Y-67315214D01*
X74358657Y-67127592D01*
X74706371Y-66780485D01*
X74894785Y-66326734D01*
X74895214Y-65835421D01*
X74707592Y-65381343D01*
X74360485Y-65033629D01*
X74121632Y-64934448D01*
X80033117Y-59022962D01*
X80076838Y-59255317D01*
X80215910Y-59471441D01*
X80395000Y-59593808D01*
X80395000Y-65673421D01*
X80174130Y-65894291D01*
X80093880Y-65490849D01*
X79782811Y-65025302D01*
X79317264Y-64714233D01*
X78768113Y-64605000D01*
X78711887Y-64605000D01*
X78162736Y-64714233D01*
X77697189Y-65025302D01*
X77386120Y-65490849D01*
X77276887Y-66040000D01*
X77386120Y-66589151D01*
X77697189Y-67054698D01*
X78079275Y-67310000D01*
X77697189Y-67565302D01*
X77386120Y-68030849D01*
X77276887Y-68580000D01*
X77386120Y-69129151D01*
X77697189Y-69594698D01*
X78079275Y-69850000D01*
X77697189Y-70105302D01*
X77632979Y-70201399D01*
X75385790Y-67954210D01*
X75273544Y-67879210D01*
X75098675Y-67762367D01*
X75042484Y-67751190D01*
X74841641Y-67711239D01*
X74724090Y-67528559D01*
X74511890Y-67383569D01*
X74260000Y-67332560D01*
X73060000Y-67332560D01*
X72824683Y-67376838D01*
X72608559Y-67515910D01*
X72463569Y-67728110D01*
X72412560Y-67980000D01*
X72412560Y-69180000D01*
X72456838Y-69415317D01*
X72595910Y-69631441D01*
X72808110Y-69776431D01*
X73060000Y-69827440D01*
X74260000Y-69827440D01*
X74495317Y-69783162D01*
X74626907Y-69698486D01*
X76674208Y-71745787D01*
X76674210Y-71745790D01*
X76961325Y-71937633D01*
X77300000Y-72005000D01*
X77610527Y-72005000D01*
X77697189Y-72134698D01*
X78079275Y-72390000D01*
X77697189Y-72645302D01*
X77386120Y-73110849D01*
X77276887Y-73660000D01*
X77386120Y-74209151D01*
X77697189Y-74674698D01*
X78079275Y-74930000D01*
X77697189Y-75185302D01*
X77386120Y-75650849D01*
X77276887Y-76200000D01*
X77386120Y-76749151D01*
X77697189Y-77214698D01*
X78079275Y-77470000D01*
X77697189Y-77725302D01*
X77610527Y-77855000D01*
X76240005Y-77855000D01*
X76240000Y-77854999D01*
X75957516Y-77911190D01*
X75901325Y-77922367D01*
X75614210Y-78114210D01*
X75614208Y-78114213D01*
X73643435Y-80084985D01*
X73415421Y-80084786D01*
X72961343Y-80272408D01*
X72613629Y-80619515D01*
X72425215Y-81073266D01*
X72424786Y-81564579D01*
X72612408Y-82018657D01*
X72959515Y-82366371D01*
X73413266Y-82554785D01*
X73904579Y-82555214D01*
X74358657Y-82367592D01*
X74706371Y-82020485D01*
X74894785Y-81566734D01*
X74894986Y-81336594D01*
X76606579Y-79625000D01*
X77610527Y-79625000D01*
X77697189Y-79754698D01*
X78079275Y-80010000D01*
X77697189Y-80265302D01*
X77386120Y-80730849D01*
X77276887Y-81280000D01*
X77386120Y-81829151D01*
X77697189Y-82294698D01*
X78101703Y-82564986D01*
X77884866Y-82667611D01*
X77508959Y-83082577D01*
X77348096Y-83470961D01*
X77470085Y-83693000D01*
X78613000Y-83693000D01*
X78613000Y-83673000D01*
X78867000Y-83673000D01*
X78867000Y-83693000D01*
X80009915Y-83693000D01*
X80131904Y-83470961D01*
X79971041Y-83082577D01*
X79595134Y-82667611D01*
X79378297Y-82564986D01*
X79782811Y-82294698D01*
X80093880Y-81829151D01*
X80203113Y-81280000D01*
X80093880Y-80730849D01*
X79782811Y-80265302D01*
X79400725Y-80010000D01*
X79782811Y-79754698D01*
X80093880Y-79289151D01*
X80133684Y-79089039D01*
X84968096Y-79089039D01*
X85128959Y-79477423D01*
X85504866Y-79892389D01*
X85753367Y-80010000D01*
X85504866Y-80127611D01*
X85128959Y-80542577D01*
X84968096Y-80930961D01*
X85090085Y-81153000D01*
X86233000Y-81153000D01*
X86233000Y-78867000D01*
X86487000Y-78867000D01*
X86487000Y-81153000D01*
X87629915Y-81153000D01*
X87751904Y-80930961D01*
X87591041Y-80542577D01*
X87215134Y-80127611D01*
X86966633Y-80010000D01*
X87215134Y-79892389D01*
X87591041Y-79477423D01*
X87751904Y-79089039D01*
X87629915Y-78867000D01*
X86487000Y-78867000D01*
X86233000Y-78867000D01*
X85090085Y-78867000D01*
X84968096Y-79089039D01*
X80133684Y-79089039D01*
X80203113Y-78740000D01*
X80093880Y-78190849D01*
X79782811Y-77725302D01*
X79400725Y-77470000D01*
X79782811Y-77214698D01*
X80093880Y-76749151D01*
X80203113Y-76200000D01*
X84896887Y-76200000D01*
X85006120Y-76749151D01*
X85317189Y-77214698D01*
X85721703Y-77484986D01*
X85504866Y-77587611D01*
X85128959Y-78002577D01*
X84968096Y-78390961D01*
X85090085Y-78613000D01*
X86233000Y-78613000D01*
X86233000Y-78593000D01*
X86487000Y-78593000D01*
X86487000Y-78613000D01*
X87629915Y-78613000D01*
X87751904Y-78390961D01*
X87591041Y-78002577D01*
X87215134Y-77587611D01*
X86998297Y-77484986D01*
X87402811Y-77214698D01*
X87713880Y-76749151D01*
X87823113Y-76200000D01*
X87781800Y-75992302D01*
X92570856Y-75992302D01*
X92598638Y-76547368D01*
X92757603Y-76931143D01*
X92999787Y-77000608D01*
X93800395Y-76200000D01*
X92999787Y-75399392D01*
X92757603Y-75468857D01*
X92570856Y-75992302D01*
X87781800Y-75992302D01*
X87713880Y-75650849D01*
X87402811Y-75185302D01*
X86998297Y-74915014D01*
X87215134Y-74812389D01*
X87591041Y-74397423D01*
X87751904Y-74009039D01*
X87629915Y-73787000D01*
X86487000Y-73787000D01*
X86487000Y-73807000D01*
X86233000Y-73807000D01*
X86233000Y-73787000D01*
X85090085Y-73787000D01*
X84968096Y-74009039D01*
X85128959Y-74397423D01*
X85504866Y-74812389D01*
X85721703Y-74915014D01*
X85317189Y-75185302D01*
X85006120Y-75650849D01*
X84896887Y-76200000D01*
X80203113Y-76200000D01*
X80093880Y-75650849D01*
X79782811Y-75185302D01*
X79400725Y-74930000D01*
X79782811Y-74674698D01*
X80093880Y-74209151D01*
X80203113Y-73660000D01*
X80093880Y-73110849D01*
X79782811Y-72645302D01*
X79400725Y-72390000D01*
X79782811Y-72134698D01*
X80093880Y-71669151D01*
X80203113Y-71120000D01*
X84896887Y-71120000D01*
X85006120Y-71669151D01*
X85317189Y-72134698D01*
X85721703Y-72404986D01*
X85504866Y-72507611D01*
X85128959Y-72922577D01*
X84968096Y-73310961D01*
X85090085Y-73533000D01*
X86233000Y-73533000D01*
X86233000Y-73513000D01*
X86487000Y-73513000D01*
X86487000Y-73533000D01*
X87629915Y-73533000D01*
X87751904Y-73310961D01*
X87591041Y-72922577D01*
X87215134Y-72507611D01*
X86998297Y-72404986D01*
X87402811Y-72134698D01*
X87713880Y-71669151D01*
X87823113Y-71120000D01*
X87713880Y-70570849D01*
X87402811Y-70105302D01*
X86998297Y-69835014D01*
X87215134Y-69732389D01*
X87591041Y-69317423D01*
X87751904Y-68929039D01*
X87629915Y-68707000D01*
X86487000Y-68707000D01*
X86487000Y-68727000D01*
X86233000Y-68727000D01*
X86233000Y-68707000D01*
X85090085Y-68707000D01*
X84968096Y-68929039D01*
X85128959Y-69317423D01*
X85504866Y-69732389D01*
X85721703Y-69835014D01*
X85317189Y-70105302D01*
X85006120Y-70570849D01*
X84896887Y-71120000D01*
X80203113Y-71120000D01*
X80093880Y-70570849D01*
X79782811Y-70105302D01*
X79400725Y-69850000D01*
X79782811Y-69594698D01*
X80093880Y-69129151D01*
X80203113Y-68580000D01*
X80168017Y-68403562D01*
X81905787Y-66665792D01*
X81905790Y-66665790D01*
X82097633Y-66378675D01*
X82165000Y-66040000D01*
X82165000Y-59591192D01*
X82331441Y-59484090D01*
X82476431Y-59271890D01*
X82527440Y-59020000D01*
X82527440Y-58664579D01*
X82544786Y-58664579D01*
X82732408Y-59118657D01*
X83079515Y-59466371D01*
X83533266Y-59654785D01*
X84024579Y-59655214D01*
X84478657Y-59467592D01*
X84573114Y-59373300D01*
X85406700Y-59373300D01*
X85406700Y-64671695D01*
X85406699Y-64671700D01*
X85448812Y-64883410D01*
X85458283Y-64931026D01*
X85317189Y-65025302D01*
X85006120Y-65490849D01*
X84896887Y-66040000D01*
X85006120Y-66589151D01*
X85317189Y-67054698D01*
X85721703Y-67324986D01*
X85504866Y-67427611D01*
X85128959Y-67842577D01*
X84968096Y-68230961D01*
X85090085Y-68453000D01*
X86233000Y-68453000D01*
X86233000Y-68433000D01*
X86487000Y-68433000D01*
X86487000Y-68453000D01*
X87629915Y-68453000D01*
X87751904Y-68230961D01*
X87591041Y-67842577D01*
X87215134Y-67427611D01*
X86998297Y-67324986D01*
X87402811Y-67054698D01*
X87713880Y-66589151D01*
X87823113Y-66040000D01*
X87713880Y-65490849D01*
X87402811Y-65025302D01*
X87245000Y-64919856D01*
X87245000Y-64740005D01*
X87245001Y-64740000D01*
X87183600Y-64431325D01*
X87177633Y-64401325D01*
X87176700Y-64399929D01*
X87176700Y-63776661D01*
X90042758Y-63776661D01*
X90254990Y-64290303D01*
X90647630Y-64683629D01*
X91160900Y-64896757D01*
X91716661Y-64897242D01*
X92230303Y-64685010D01*
X92623629Y-64292370D01*
X92836757Y-63779100D01*
X92837242Y-63223339D01*
X92625010Y-62709697D01*
X92232370Y-62316371D01*
X91719100Y-62103243D01*
X91163339Y-62102758D01*
X90649697Y-62314990D01*
X90256371Y-62707630D01*
X90043243Y-63220900D01*
X90042758Y-63776661D01*
X87176700Y-63776661D01*
X87176700Y-61940213D01*
X93179392Y-61940213D01*
X93248857Y-62182397D01*
X93772302Y-62369144D01*
X94327368Y-62341362D01*
X94711143Y-62182397D01*
X94780608Y-61940213D01*
X93980000Y-61139605D01*
X93179392Y-61940213D01*
X87176700Y-61940213D01*
X87176700Y-60752302D01*
X92570856Y-60752302D01*
X92598638Y-61307368D01*
X92757603Y-61691143D01*
X92999787Y-61760608D01*
X93800395Y-60960000D01*
X94159605Y-60960000D01*
X94960213Y-61760608D01*
X95202397Y-61691143D01*
X95389144Y-61167698D01*
X95361362Y-60612632D01*
X95202397Y-60228857D01*
X94960213Y-60159392D01*
X94159605Y-60960000D01*
X93800395Y-60960000D01*
X92999787Y-60159392D01*
X92757603Y-60228857D01*
X92570856Y-60752302D01*
X87176700Y-60752302D01*
X87176700Y-59979787D01*
X93179392Y-59979787D01*
X93980000Y-60780395D01*
X94780608Y-59979787D01*
X94711143Y-59737603D01*
X94187698Y-59550856D01*
X93632632Y-59578638D01*
X93248857Y-59737603D01*
X93179392Y-59979787D01*
X87176700Y-59979787D01*
X87176700Y-58854880D01*
X93834705Y-52196874D01*
X94256661Y-52197242D01*
X94770303Y-51985010D01*
X95163629Y-51592370D01*
X95376757Y-51079100D01*
X95377242Y-50523339D01*
X95165010Y-50009697D01*
X94772370Y-49616371D01*
X94259100Y-49403243D01*
X93703339Y-49402758D01*
X93189697Y-49614990D01*
X92796371Y-50007630D01*
X92583243Y-50520900D01*
X92582872Y-50945548D01*
X85925120Y-57603300D01*
X84709755Y-57603300D01*
X84480485Y-57373629D01*
X84026734Y-57185215D01*
X83535421Y-57184786D01*
X83081343Y-57372408D01*
X82733629Y-57719515D01*
X82545215Y-58173266D01*
X82544786Y-58664579D01*
X82527440Y-58664579D01*
X82527440Y-57820000D01*
X82483162Y-57584683D01*
X82344090Y-57368559D01*
X82131890Y-57223569D01*
X81918715Y-57180400D01*
X83404595Y-57180400D01*
X83404600Y-57180401D01*
X83687084Y-57124210D01*
X83743275Y-57113033D01*
X84030390Y-56921190D01*
X91294705Y-49656874D01*
X91716661Y-49657242D01*
X92230303Y-49445010D01*
X92623629Y-49052370D01*
X92836757Y-48539100D01*
X92837242Y-47983339D01*
X92625010Y-47469697D01*
X92232370Y-47076371D01*
X91719100Y-46863243D01*
X91163339Y-46862758D01*
X90649697Y-47074990D01*
X90256371Y-47467630D01*
X90043243Y-47980900D01*
X90042872Y-48405548D01*
X85235422Y-53212998D01*
X85160925Y-53212998D01*
X85305184Y-52978087D01*
X85111954Y-52425680D01*
X84722036Y-51989268D01*
X84194791Y-51735291D01*
X84179026Y-51732642D01*
X83947000Y-51853783D01*
X83947000Y-53213000D01*
X83967000Y-53213000D01*
X83967000Y-53467000D01*
X83947000Y-53467000D01*
X83947000Y-53487000D01*
X83693000Y-53487000D01*
X83693000Y-53467000D01*
X83673000Y-53467000D01*
X83673000Y-53213000D01*
X83693000Y-53213000D01*
X83693000Y-51853783D01*
X83460974Y-51732642D01*
X83445209Y-51735291D01*
X82917964Y-51989268D01*
X82546461Y-52405069D01*
X82339670Y-52095585D01*
X81853489Y-51770729D01*
X81280000Y-51656655D01*
X80706511Y-51770729D01*
X80220330Y-52095585D01*
X80210757Y-52109913D01*
X80206762Y-52088683D01*
X80067690Y-51872559D01*
X79855490Y-51727569D01*
X79603600Y-51676560D01*
X77876400Y-51676560D01*
X77641083Y-51720838D01*
X77424959Y-51859910D01*
X77279969Y-52072110D01*
X77228960Y-52324000D01*
X77228960Y-54356000D01*
X77273238Y-54591317D01*
X77412310Y-54807441D01*
X77624510Y-54952431D01*
X77876400Y-55003440D01*
X79603600Y-55003440D01*
X79838917Y-54959162D01*
X80055041Y-54820090D01*
X80200031Y-54607890D01*
X80208400Y-54566561D01*
X80220330Y-54584415D01*
X80706511Y-54909271D01*
X81280000Y-55023345D01*
X81853489Y-54909271D01*
X82339670Y-54584415D01*
X82546461Y-54274931D01*
X82917964Y-54690732D01*
X83445209Y-54944709D01*
X83460974Y-54947358D01*
X83544858Y-54903562D01*
X83038020Y-55410400D01*
X81509105Y-55410400D01*
X81509100Y-55410399D01*
X81170425Y-55477767D01*
X80883310Y-55669610D01*
X80883308Y-55669613D01*
X72667920Y-63885000D01*
X70272226Y-63885000D01*
X70348807Y-63500000D01*
X70242467Y-62965391D01*
X69939635Y-62512172D01*
X69517336Y-62230000D01*
X69939635Y-61947828D01*
X70242467Y-61494609D01*
X70348807Y-60960000D01*
X70242467Y-60425391D01*
X69939635Y-59972172D01*
X69517336Y-59690000D01*
X69939635Y-59407828D01*
X70242467Y-58954609D01*
X70348807Y-58420000D01*
X70242467Y-57885391D01*
X69939635Y-57432172D01*
X69517336Y-57150000D01*
X69939635Y-56867828D01*
X70242467Y-56414609D01*
X70348807Y-55880000D01*
X70251062Y-55388602D01*
X70467790Y-55243790D01*
X78379869Y-47331710D01*
X78740000Y-47403345D01*
X79313489Y-47289271D01*
X79799670Y-46964415D01*
X80010000Y-46649634D01*
X80220330Y-46964415D01*
X80706511Y-47289271D01*
X81280000Y-47403345D01*
X81853489Y-47289271D01*
X82339670Y-46964415D01*
X82550000Y-46649634D01*
X82760330Y-46964415D01*
X83246511Y-47289271D01*
X83820000Y-47403345D01*
X84393489Y-47289271D01*
X84879670Y-46964415D01*
X85086461Y-46654931D01*
X85457964Y-47070732D01*
X85985209Y-47324709D01*
X86000974Y-47327358D01*
X86233000Y-47206217D01*
X86233000Y-45847000D01*
X86487000Y-45847000D01*
X86487000Y-47206217D01*
X86719026Y-47327358D01*
X86734791Y-47324709D01*
X87262036Y-47070732D01*
X87593081Y-46700213D01*
X93179392Y-46700213D01*
X93248857Y-46942397D01*
X93772302Y-47129144D01*
X94327368Y-47101362D01*
X94711143Y-46942397D01*
X94780608Y-46700213D01*
X93980000Y-45899605D01*
X93179392Y-46700213D01*
X87593081Y-46700213D01*
X87651954Y-46634320D01*
X87845184Y-46081913D01*
X87700924Y-45847000D01*
X86487000Y-45847000D01*
X86233000Y-45847000D01*
X86213000Y-45847000D01*
X86213000Y-45593000D01*
X86233000Y-45593000D01*
X86233000Y-45573000D01*
X86487000Y-45573000D01*
X86487000Y-45593000D01*
X87700924Y-45593000D01*
X87750480Y-45512302D01*
X92570856Y-45512302D01*
X92598638Y-46067368D01*
X92757603Y-46451143D01*
X92999787Y-46520608D01*
X93800395Y-45720000D01*
X94159605Y-45720000D01*
X94960213Y-46520608D01*
X95202397Y-46451143D01*
X95389144Y-45927698D01*
X95361362Y-45372632D01*
X95202397Y-44988857D01*
X94960213Y-44919392D01*
X94159605Y-45720000D01*
X93800395Y-45720000D01*
X92999787Y-44919392D01*
X92757603Y-44988857D01*
X92570856Y-45512302D01*
X87750480Y-45512302D01*
X87845184Y-45358087D01*
X87651954Y-44805680D01*
X87440310Y-44568800D01*
X93228436Y-44568800D01*
X93179392Y-44739787D01*
X93980000Y-45540395D01*
X94780608Y-44739787D01*
X94731564Y-44568800D01*
X104456854Y-44568800D01*
X104430299Y-44702300D01*
X104430300Y-44702305D01*
X104430300Y-53307300D01*
X104070700Y-53307300D01*
X103732025Y-53374667D01*
X103444910Y-53566510D01*
X103444908Y-53566513D01*
X92128010Y-64883410D01*
X91936167Y-65170525D01*
X91936167Y-65170526D01*
X91868799Y-65509200D01*
X91868800Y-65509205D01*
X91868800Y-67528395D01*
X91868799Y-67528400D01*
X91915339Y-67762367D01*
X91936167Y-67867075D01*
X92128010Y-68154190D01*
X94307400Y-70333579D01*
X94307400Y-74833562D01*
X94187698Y-74790856D01*
X93632632Y-74818638D01*
X93248857Y-74977603D01*
X93179392Y-75219787D01*
X93980000Y-76020395D01*
X93994143Y-76006253D01*
X94173748Y-76185858D01*
X94159605Y-76200000D01*
X94173748Y-76214143D01*
X93994143Y-76393748D01*
X93980000Y-76379605D01*
X93179392Y-77180213D01*
X93248857Y-77422397D01*
X93277577Y-77432643D01*
X92855220Y-77855000D01*
X92530478Y-77855000D01*
X92232370Y-77556371D01*
X91719100Y-77343243D01*
X91163339Y-77342758D01*
X90649697Y-77554990D01*
X90256371Y-77947630D01*
X90043243Y-78460900D01*
X90042758Y-79016661D01*
X90254990Y-79530303D01*
X90647630Y-79923629D01*
X91160900Y-80136757D01*
X91716661Y-80137242D01*
X92230303Y-79925010D01*
X92530837Y-79625000D01*
X93221795Y-79625000D01*
X93221800Y-79625001D01*
X93504284Y-79568810D01*
X93560475Y-79557633D01*
X93847590Y-79365790D01*
X93847591Y-79365789D01*
X95035900Y-78177479D01*
X95035900Y-78972521D01*
X94125294Y-79883126D01*
X93703339Y-79882758D01*
X93189697Y-80094990D01*
X92796371Y-80487630D01*
X92583243Y-81000900D01*
X92582758Y-81556661D01*
X92794990Y-82070303D01*
X93187630Y-82463629D01*
X93700900Y-82676757D01*
X94256661Y-82677242D01*
X94770303Y-82465010D01*
X95163629Y-82072370D01*
X95376757Y-81559100D01*
X95377128Y-81134452D01*
X96546687Y-79964892D01*
X96546690Y-79964890D01*
X96738533Y-79677775D01*
X96805901Y-79339100D01*
X96805900Y-79339095D01*
X96805900Y-67980905D01*
X96805901Y-67980900D01*
X96738533Y-67642225D01*
X96662478Y-67528400D01*
X96546690Y-67355110D01*
X96546687Y-67355108D01*
X95376874Y-66185294D01*
X95377242Y-65763339D01*
X95165010Y-65249697D01*
X94772370Y-64856371D01*
X94691704Y-64822876D01*
X104437279Y-55077300D01*
X105177520Y-55077300D01*
X106359755Y-56259534D01*
X106409383Y-56379643D01*
X106672173Y-56642892D01*
X107015701Y-56785538D01*
X107387667Y-56785862D01*
X107731443Y-56643817D01*
X107994692Y-56381027D01*
X108137338Y-56037499D01*
X108137662Y-55665533D01*
X107995617Y-55321757D01*
X107732827Y-55058508D01*
X107611513Y-55008134D01*
X106200300Y-53596920D01*
X106200300Y-49664976D01*
X106320974Y-49714958D01*
X106553000Y-49593817D01*
X106553000Y-48387000D01*
X106807000Y-48387000D01*
X106807000Y-49593817D01*
X107039026Y-49714958D01*
X107454947Y-49542688D01*
X107886821Y-49148490D01*
X107950000Y-49013687D01*
X108013179Y-49148490D01*
X108445053Y-49542688D01*
X108860974Y-49714958D01*
X109093000Y-49593817D01*
X109093000Y-48387000D01*
X109347000Y-48387000D01*
X109347000Y-49593817D01*
X109579026Y-49714958D01*
X109994947Y-49542688D01*
X110426821Y-49148490D01*
X110490000Y-49013687D01*
X110553179Y-49148490D01*
X110985053Y-49542688D01*
X111400974Y-49714958D01*
X111633000Y-49593817D01*
X111633000Y-48387000D01*
X109347000Y-48387000D01*
X109093000Y-48387000D01*
X106807000Y-48387000D01*
X106553000Y-48387000D01*
X106533000Y-48387000D01*
X106533000Y-48133000D01*
X106553000Y-48133000D01*
X106553000Y-48113000D01*
X106807000Y-48113000D01*
X106807000Y-48133000D01*
X109093000Y-48133000D01*
X109093000Y-48113000D01*
X109347000Y-48113000D01*
X109347000Y-48133000D01*
X111633000Y-48133000D01*
X111633000Y-45847000D01*
X111613000Y-45847000D01*
X111613000Y-45593000D01*
X111633000Y-45593000D01*
X111633000Y-45573000D01*
X111887000Y-45573000D01*
X111887000Y-45593000D01*
X114173000Y-45593000D01*
X114173000Y-45573000D01*
X114427000Y-45573000D01*
X114427000Y-45593000D01*
X114447000Y-45593000D01*
X114447000Y-45847000D01*
X114427000Y-45847000D01*
X114427000Y-45867000D01*
X114173000Y-45867000D01*
X114173000Y-45847000D01*
X111887000Y-45847000D01*
X111887000Y-48133000D01*
X111907000Y-48133000D01*
X111907000Y-48387000D01*
X111887000Y-48387000D01*
X111887000Y-49593817D01*
X112119026Y-49714958D01*
X112534947Y-49542688D01*
X112966821Y-49148490D01*
X113024336Y-49025772D01*
X113240330Y-49349029D01*
X113415000Y-49465740D01*
X113415000Y-60333200D01*
X113285362Y-60645401D01*
X113285038Y-61017367D01*
X113415000Y-61331900D01*
X113415000Y-64064795D01*
X113414999Y-64064800D01*
X113460267Y-64292370D01*
X113482367Y-64403475D01*
X113538730Y-64487828D01*
X113674210Y-64690590D01*
X116076555Y-67092934D01*
X116126183Y-67213043D01*
X116228990Y-67316030D01*
X114661264Y-68883756D01*
X114541157Y-68933383D01*
X114277908Y-69196173D01*
X114135262Y-69539701D01*
X114134938Y-69911667D01*
X114276983Y-70255443D01*
X114539773Y-70518692D01*
X114883301Y-70661338D01*
X115255267Y-70661662D01*
X115599043Y-70519617D01*
X115862292Y-70256827D01*
X115912666Y-70135514D01*
X130848908Y-55199271D01*
X130832560Y-55280000D01*
X130832560Y-56480000D01*
X130876838Y-56715317D01*
X131015910Y-56931441D01*
X131195000Y-57053808D01*
X131195000Y-62230073D01*
X130788769Y-62635596D01*
X130556265Y-63195528D01*
X130555761Y-63772659D01*
X125810510Y-68517910D01*
X125618667Y-68805025D01*
X125610979Y-68843674D01*
X125551299Y-69143700D01*
X125551300Y-69143705D01*
X125551300Y-75158309D01*
X125519670Y-75110971D01*
X125033489Y-74786115D01*
X124460000Y-74672041D01*
X123886511Y-74786115D01*
X123400330Y-75110971D01*
X123184336Y-75434228D01*
X123126821Y-75311510D01*
X122694947Y-74917312D01*
X122279026Y-74745042D01*
X122047000Y-74866183D01*
X122047000Y-76073000D01*
X122067000Y-76073000D01*
X122067000Y-76327000D01*
X122047000Y-76327000D01*
X122047000Y-76347000D01*
X121793000Y-76347000D01*
X121793000Y-76327000D01*
X121773000Y-76327000D01*
X121773000Y-76073000D01*
X121793000Y-76073000D01*
X121793000Y-74866183D01*
X121560974Y-74745042D01*
X121145053Y-74917312D01*
X120713179Y-75311510D01*
X120655664Y-75434228D01*
X120439670Y-75110971D01*
X119953489Y-74786115D01*
X119380000Y-74672041D01*
X118806511Y-74786115D01*
X118320330Y-75110971D01*
X118110000Y-75425752D01*
X117899670Y-75110971D01*
X117413489Y-74786115D01*
X116840000Y-74672041D01*
X116266511Y-74786115D01*
X115780330Y-75110971D01*
X115570000Y-75425752D01*
X115359670Y-75110971D01*
X114873489Y-74786115D01*
X114300000Y-74672041D01*
X113726511Y-74786115D01*
X113240330Y-75110971D01*
X113030000Y-75425752D01*
X112819670Y-75110971D01*
X112333489Y-74786115D01*
X111760000Y-74672041D01*
X111186511Y-74786115D01*
X110700330Y-75110971D01*
X110484336Y-75434228D01*
X110426821Y-75311510D01*
X109994947Y-74917312D01*
X109579026Y-74745042D01*
X109347000Y-74866183D01*
X109347000Y-76073000D01*
X109367000Y-76073000D01*
X109367000Y-76327000D01*
X109347000Y-76327000D01*
X109347000Y-76347000D01*
X109093000Y-76347000D01*
X109093000Y-76327000D01*
X109073000Y-76327000D01*
X109073000Y-76073000D01*
X109093000Y-76073000D01*
X109093000Y-74866183D01*
X108860974Y-74745042D01*
X108445053Y-74917312D01*
X108160973Y-75176609D01*
X108146762Y-75101083D01*
X108007690Y-74884959D01*
X107795490Y-74739969D01*
X107565000Y-74693294D01*
X107565000Y-71869822D01*
X107614838Y-71749799D01*
X107615162Y-71377833D01*
X107473117Y-71034057D01*
X107210327Y-70770808D01*
X106866799Y-70628162D01*
X106494833Y-70627838D01*
X106151057Y-70769883D01*
X105889700Y-71030784D01*
X105889700Y-70019322D01*
X105939538Y-69899299D01*
X105939862Y-69527333D01*
X105797817Y-69183557D01*
X105535027Y-68920308D01*
X105191499Y-68777662D01*
X104819533Y-68777338D01*
X104475757Y-68919383D01*
X104212508Y-69182173D01*
X104069862Y-69525701D01*
X104069538Y-69897667D01*
X104119700Y-70019069D01*
X104119700Y-77064695D01*
X104119699Y-77064700D01*
X104156845Y-77251441D01*
X104187067Y-77403375D01*
X104341833Y-77635000D01*
X104378910Y-77690490D01*
X105217512Y-78529092D01*
X105181400Y-78710641D01*
X105181400Y-78769359D01*
X105295474Y-79342848D01*
X105620330Y-79829029D01*
X106106511Y-80153885D01*
X106680000Y-80267959D01*
X107253489Y-80153885D01*
X107739670Y-79829029D01*
X107950000Y-79514248D01*
X108160330Y-79829029D01*
X108646511Y-80153885D01*
X109220000Y-80267959D01*
X109793489Y-80153885D01*
X110279670Y-79829029D01*
X110490000Y-79514248D01*
X110700330Y-79829029D01*
X111186511Y-80153885D01*
X111760000Y-80267959D01*
X111990525Y-80222105D01*
X113876308Y-82107887D01*
X113876310Y-82107890D01*
X114163425Y-82299733D01*
X114219616Y-82310910D01*
X114502100Y-82367101D01*
X114502105Y-82367100D01*
X128692495Y-82367100D01*
X128692500Y-82367101D01*
X128974984Y-82310910D01*
X129031175Y-82299733D01*
X129318290Y-82107890D01*
X129318291Y-82107889D01*
X133861187Y-77564992D01*
X133861190Y-77564990D01*
X134027530Y-77316044D01*
X134411036Y-77447807D01*
X134901413Y-77417482D01*
X135213617Y-77288164D01*
X135263130Y-77062735D01*
X134580000Y-76379605D01*
X134565858Y-76393748D01*
X134386253Y-76214143D01*
X134400395Y-76200000D01*
X134759605Y-76200000D01*
X135442735Y-76883130D01*
X135668164Y-76833617D01*
X135762506Y-76559026D01*
X140785042Y-76559026D01*
X140957312Y-76974947D01*
X141351510Y-77406821D01*
X141880973Y-77654968D01*
X142113000Y-77534469D01*
X142113000Y-76327000D01*
X142367000Y-76327000D01*
X142367000Y-77534469D01*
X142599027Y-77654968D01*
X143128490Y-77406821D01*
X143510000Y-76988848D01*
X143891510Y-77406821D01*
X144420973Y-77654968D01*
X144653000Y-77534469D01*
X144653000Y-76327000D01*
X144907000Y-76327000D01*
X144907000Y-77534469D01*
X145139027Y-77654968D01*
X145668490Y-77406821D01*
X146062688Y-76974947D01*
X146234958Y-76559026D01*
X146113817Y-76327000D01*
X144907000Y-76327000D01*
X144653000Y-76327000D01*
X142367000Y-76327000D01*
X142113000Y-76327000D01*
X140906183Y-76327000D01*
X140785042Y-76559026D01*
X135762506Y-76559026D01*
X135827807Y-76368964D01*
X135797482Y-75878587D01*
X135668164Y-75566383D01*
X135442735Y-75516870D01*
X134759605Y-76200000D01*
X134400395Y-76200000D01*
X134386253Y-76185858D01*
X134565858Y-76006253D01*
X134580000Y-76020395D01*
X135263130Y-75337265D01*
X135213617Y-75111836D01*
X134748964Y-74952193D01*
X134568209Y-74963371D01*
X140751783Y-68779796D01*
X140826115Y-69153489D01*
X141150971Y-69639670D01*
X141465752Y-69850000D01*
X141150971Y-70060330D01*
X140826115Y-70546511D01*
X140712041Y-71120000D01*
X140826115Y-71693489D01*
X141150971Y-72179670D01*
X141465752Y-72390000D01*
X141150971Y-72600330D01*
X140826115Y-73086511D01*
X140712041Y-73660000D01*
X140826115Y-74233489D01*
X141150971Y-74719670D01*
X141474228Y-74935664D01*
X141351510Y-74993179D01*
X140957312Y-75425053D01*
X140785042Y-75840974D01*
X140906183Y-76073000D01*
X142113000Y-76073000D01*
X142113000Y-76053000D01*
X142367000Y-76053000D01*
X142367000Y-76073000D01*
X144653000Y-76073000D01*
X144653000Y-76053000D01*
X144907000Y-76053000D01*
X144907000Y-76073000D01*
X146113817Y-76073000D01*
X146234958Y-75840974D01*
X146062688Y-75425053D01*
X145668490Y-74993179D01*
X145545772Y-74935664D01*
X145869029Y-74719670D01*
X146193885Y-74233489D01*
X146307959Y-73660000D01*
X146193885Y-73086511D01*
X145869029Y-72600330D01*
X145554248Y-72390000D01*
X145869029Y-72179670D01*
X146193885Y-71693489D01*
X146307959Y-71120000D01*
X146193885Y-70546511D01*
X145869029Y-70060330D01*
X145554248Y-69850000D01*
X145869029Y-69639670D01*
X146193885Y-69153489D01*
X146307959Y-68580000D01*
X146193885Y-68006511D01*
X145869029Y-67520330D01*
X145554248Y-67310000D01*
X145869029Y-67099670D01*
X146193885Y-66613489D01*
X146307959Y-66040000D01*
X146193885Y-65466511D01*
X145869029Y-64980330D01*
X145554248Y-64770000D01*
X145869029Y-64559670D01*
X146193885Y-64073489D01*
X146307959Y-63500000D01*
X146262105Y-63269475D01*
X146758487Y-62773092D01*
X146758490Y-62773090D01*
X146950333Y-62485975D01*
X146978469Y-62344526D01*
X147017701Y-62147300D01*
X147017700Y-62147295D01*
X147017700Y-52786105D01*
X147017701Y-52786100D01*
X146950333Y-52447425D01*
X146758490Y-52160310D01*
X146758487Y-52160308D01*
X145228390Y-50630210D01*
X145064795Y-50520900D01*
X144941275Y-50438367D01*
X144885084Y-50427190D01*
X144602600Y-50370999D01*
X144602595Y-50371000D01*
X130305700Y-50371000D01*
X130305700Y-47815105D01*
X130305701Y-47815100D01*
X130238333Y-47476426D01*
X130238333Y-47476425D01*
X130046490Y-47189310D01*
X130046487Y-47189308D01*
X125931490Y-43074310D01*
X125907095Y-43058010D01*
X125644375Y-42882467D01*
X125562425Y-42866166D01*
X125305700Y-42815099D01*
X125305695Y-42815100D01*
X120036300Y-42815100D01*
X119697625Y-42882467D01*
X119410510Y-43074310D01*
X119410508Y-43074313D01*
X119380000Y-43104821D01*
X119333190Y-43058010D01*
X119046075Y-42866167D01*
X118989884Y-42854990D01*
X118707400Y-42798799D01*
X118707395Y-42798800D01*
X71894205Y-42798800D01*
X71894200Y-42798799D01*
X71555526Y-42866166D01*
X71555524Y-42866167D01*
X71555525Y-42866167D01*
X71268410Y-43058010D01*
X71268408Y-43058013D01*
X67954210Y-46372210D01*
X67762367Y-46659325D01*
X67762367Y-46659326D01*
X67701817Y-46963724D01*
X67673584Y-46969340D01*
X67220365Y-47272172D01*
X66917533Y-47725391D01*
X66811193Y-48260000D01*
X66917533Y-48794609D01*
X67220365Y-49247828D01*
X67642664Y-49530000D01*
X67220365Y-49812172D01*
X66917533Y-50265391D01*
X66811193Y-50800000D01*
X66917533Y-51334609D01*
X67220365Y-51787828D01*
X67642664Y-52070000D01*
X67220365Y-52352172D01*
X66917533Y-52805391D01*
X66811193Y-53340000D01*
X66917533Y-53874609D01*
X67220365Y-54327828D01*
X67642664Y-54610000D01*
X67220365Y-54892172D01*
X66917533Y-55345391D01*
X66811193Y-55880000D01*
X66917533Y-56414609D01*
X67220365Y-56867828D01*
X67642664Y-57150000D01*
X67220365Y-57432172D01*
X66917533Y-57885391D01*
X66811193Y-58420000D01*
X66917533Y-58954609D01*
X67220365Y-59407828D01*
X67642664Y-59690000D01*
X67220365Y-59972172D01*
X66917533Y-60425391D01*
X66811193Y-60960000D01*
X66917533Y-61494609D01*
X67220365Y-61947828D01*
X67642664Y-62230000D01*
X67220365Y-62512172D01*
X66917533Y-62965391D01*
X66811193Y-63500000D01*
X66887774Y-63885000D01*
X62230005Y-63885000D01*
X62230000Y-63884999D01*
X61947516Y-63941190D01*
X61891325Y-63952367D01*
X61604210Y-64144210D01*
X61604208Y-64144213D01*
X55028026Y-70720394D01*
X55001172Y-70585391D01*
X54698340Y-70132172D01*
X54276041Y-69850000D01*
X54698340Y-69567828D01*
X55001172Y-69114609D01*
X55107512Y-68580000D01*
X55001172Y-68045391D01*
X54698340Y-67592172D01*
X54276041Y-67310000D01*
X54698340Y-67027828D01*
X55001172Y-66574609D01*
X55107512Y-66040000D01*
X55001172Y-65505391D01*
X54698340Y-65052172D01*
X54276041Y-64770000D01*
X54698340Y-64487828D01*
X55001172Y-64034609D01*
X55107512Y-63500000D01*
X55001172Y-62965391D01*
X54698340Y-62512172D01*
X54276041Y-62230000D01*
X54698340Y-61947828D01*
X55001172Y-61494609D01*
X55107512Y-60960000D01*
X55001172Y-60425391D01*
X54698340Y-59972172D01*
X54276041Y-59690000D01*
X54698340Y-59407828D01*
X55001172Y-58954609D01*
X55107512Y-58420000D01*
X55001172Y-57885391D01*
X54698340Y-57432172D01*
X54276688Y-57150433D01*
X54699635Y-56867828D01*
X55002467Y-56414609D01*
X55108807Y-55880000D01*
X55002467Y-55345391D01*
X54699635Y-54892172D01*
X54277336Y-54610000D01*
X54699635Y-54327828D01*
X55002467Y-53874609D01*
X55108807Y-53340000D01*
X55002467Y-52805391D01*
X54699635Y-52352172D01*
X54277336Y-52070000D01*
X54699635Y-51787828D01*
X55002467Y-51334609D01*
X55108807Y-50800000D01*
X55002467Y-50265391D01*
X54699635Y-49812172D01*
X54277336Y-49530000D01*
X54699635Y-49247828D01*
X55002467Y-48794609D01*
X55108807Y-48260000D01*
X55002467Y-47725391D01*
X54699635Y-47272172D01*
X54246416Y-46969340D01*
X53711807Y-46863000D01*
X52968193Y-46863000D01*
X52433584Y-46969340D01*
X51980365Y-47272172D01*
X51677533Y-47725391D01*
X51571193Y-48260000D01*
X50927000Y-48260000D01*
X50927000Y-40767000D01*
X147193000Y-40767000D01*
X147193000Y-88773000D01*
X147193000Y-88773000D01*
G37*
X147193000Y-88773000D02*
X50927000Y-88773000D01*
X50927000Y-83820000D01*
X51572488Y-83820000D01*
X51678828Y-84354609D01*
X51981660Y-84807828D01*
X52434879Y-85110660D01*
X52969488Y-85217000D01*
X53710512Y-85217000D01*
X54245121Y-85110660D01*
X54698340Y-84807828D01*
X55001172Y-84354609D01*
X55107512Y-83820000D01*
X55001172Y-83285391D01*
X54698340Y-82832172D01*
X54263107Y-82541358D01*
X54328491Y-82522059D01*
X54754180Y-82178026D01*
X55015810Y-81697277D01*
X55030770Y-81623070D01*
X54908270Y-81407000D01*
X53467000Y-81407000D01*
X53467000Y-81427000D01*
X53213000Y-81427000D01*
X53213000Y-81407000D01*
X51771730Y-81407000D01*
X51649230Y-81623070D01*
X51664190Y-81697277D01*
X51925820Y-82178026D01*
X52351509Y-82522059D01*
X52416893Y-82541358D01*
X51981660Y-82832172D01*
X51678828Y-83285391D01*
X51572488Y-83820000D01*
X50927000Y-83820000D01*
X50927000Y-48260000D01*
X51571193Y-48260000D01*
X51677533Y-48794609D01*
X51980365Y-49247828D01*
X52402664Y-49530000D01*
X51980365Y-49812172D01*
X51677533Y-50265391D01*
X51571193Y-50800000D01*
X51677533Y-51334609D01*
X51980365Y-51787828D01*
X52402664Y-52070000D01*
X51980365Y-52352172D01*
X51677533Y-52805391D01*
X51571193Y-53340000D01*
X51677533Y-53874609D01*
X51980365Y-54327828D01*
X52402664Y-54610000D01*
X51980365Y-54892172D01*
X51677533Y-55345391D01*
X51571193Y-55880000D01*
X51677533Y-56414609D01*
X51980365Y-56867828D01*
X52403312Y-57150433D01*
X51981660Y-57432172D01*
X51678828Y-57885391D01*
X51572488Y-58420000D01*
X51678828Y-58954609D01*
X51981660Y-59407828D01*
X52403959Y-59690000D01*
X51981660Y-59972172D01*
X51678828Y-60425391D01*
X51572488Y-60960000D01*
X51678828Y-61494609D01*
X51981660Y-61947828D01*
X52403959Y-62230000D01*
X51981660Y-62512172D01*
X51678828Y-62965391D01*
X51572488Y-63500000D01*
X51678828Y-64034609D01*
X51981660Y-64487828D01*
X52403959Y-64770000D01*
X51981660Y-65052172D01*
X51678828Y-65505391D01*
X51572488Y-66040000D01*
X51678828Y-66574609D01*
X51981660Y-67027828D01*
X52403959Y-67310000D01*
X51981660Y-67592172D01*
X51678828Y-68045391D01*
X51572488Y-68580000D01*
X51678828Y-69114609D01*
X51981660Y-69567828D01*
X52403959Y-69850000D01*
X51981660Y-70132172D01*
X51678828Y-70585391D01*
X51572488Y-71120000D01*
X51678828Y-71654609D01*
X51981660Y-72107828D01*
X52403959Y-72390000D01*
X51981660Y-72672172D01*
X51678828Y-73125391D01*
X51572488Y-73660000D01*
X51678828Y-74194609D01*
X51981660Y-74647828D01*
X52403959Y-74930000D01*
X51981660Y-75212172D01*
X51678828Y-75665391D01*
X51572488Y-76200000D01*
X51678828Y-76734609D01*
X51981660Y-77187828D01*
X52403959Y-77470000D01*
X51981660Y-77752172D01*
X51678828Y-78205391D01*
X51572488Y-78740000D01*
X51678828Y-79274609D01*
X51981660Y-79727828D01*
X52416893Y-80018642D01*
X52351509Y-80037941D01*
X51925820Y-80381974D01*
X51664190Y-80862723D01*
X51649230Y-80936930D01*
X51771730Y-81153000D01*
X53213000Y-81153000D01*
X53213000Y-81133000D01*
X53467000Y-81133000D01*
X53467000Y-81153000D01*
X54908270Y-81153000D01*
X55030770Y-80936930D01*
X55015810Y-80862723D01*
X54754180Y-80381974D01*
X54328491Y-80037941D01*
X54263107Y-80018642D01*
X54698340Y-79727828D01*
X55001172Y-79274609D01*
X55107512Y-78740000D01*
X66811193Y-78740000D01*
X66917533Y-79274609D01*
X67220365Y-79727828D01*
X67642664Y-80010000D01*
X67220365Y-80292172D01*
X66917533Y-80745391D01*
X66811193Y-81280000D01*
X66917533Y-81814609D01*
X67220365Y-82267828D01*
X67642664Y-82550000D01*
X67220365Y-82832172D01*
X66917533Y-83285391D01*
X66811193Y-83820000D01*
X66917533Y-84354609D01*
X67220365Y-84807828D01*
X67673584Y-85110660D01*
X68208193Y-85217000D01*
X68951807Y-85217000D01*
X69486416Y-85110660D01*
X69939635Y-84807828D01*
X70242467Y-84354609D01*
X70291967Y-84105750D01*
X72425000Y-84105750D01*
X72425000Y-84546309D01*
X72521673Y-84779698D01*
X72700301Y-84958327D01*
X72933690Y-85055000D01*
X73374250Y-85055000D01*
X73533000Y-84896250D01*
X73533000Y-83947000D01*
X73787000Y-83947000D01*
X73787000Y-84896250D01*
X73945750Y-85055000D01*
X74386310Y-85055000D01*
X74619699Y-84958327D01*
X74798327Y-84779698D01*
X74895000Y-84546309D01*
X74895000Y-84169039D01*
X77348096Y-84169039D01*
X77508959Y-84557423D01*
X77884866Y-84972389D01*
X78390959Y-85211914D01*
X78613000Y-85090629D01*
X78613000Y-83947000D01*
X78867000Y-83947000D01*
X78867000Y-85090629D01*
X79089041Y-85211914D01*
X79595134Y-84972389D01*
X79971041Y-84557423D01*
X80131904Y-84169039D01*
X80009915Y-83947000D01*
X78867000Y-83947000D01*
X78613000Y-83947000D01*
X77470085Y-83947000D01*
X77348096Y-84169039D01*
X74895000Y-84169039D01*
X74895000Y-84105750D01*
X74736250Y-83947000D01*
X73787000Y-83947000D01*
X73533000Y-83947000D01*
X72583750Y-83947000D01*
X72425000Y-84105750D01*
X70291967Y-84105750D01*
X70348807Y-83820000D01*
X84896887Y-83820000D01*
X85006120Y-84369151D01*
X85317189Y-84834698D01*
X85782736Y-85145767D01*
X86331887Y-85255000D01*
X86388113Y-85255000D01*
X86937264Y-85145767D01*
X87402811Y-84834698D01*
X87713880Y-84369151D01*
X87823113Y-83820000D01*
X87713880Y-83270849D01*
X87402811Y-82805302D01*
X86998297Y-82535014D01*
X87215134Y-82432389D01*
X87591041Y-82017423D01*
X87751904Y-81629039D01*
X87629915Y-81407000D01*
X86487000Y-81407000D01*
X86487000Y-81427000D01*
X86233000Y-81427000D01*
X86233000Y-81407000D01*
X85090085Y-81407000D01*
X84968096Y-81629039D01*
X85128959Y-82017423D01*
X85504866Y-82432389D01*
X85721703Y-82535014D01*
X85317189Y-82805302D01*
X85006120Y-83270849D01*
X84896887Y-83820000D01*
X70348807Y-83820000D01*
X70242467Y-83285391D01*
X70114377Y-83093691D01*
X72425000Y-83093691D01*
X72425000Y-83534250D01*
X72583750Y-83693000D01*
X73533000Y-83693000D01*
X73533000Y-82743750D01*
X73787000Y-82743750D01*
X73787000Y-83693000D01*
X74736250Y-83693000D01*
X74895000Y-83534250D01*
X74895000Y-83093691D01*
X74798327Y-82860302D01*
X74619699Y-82681673D01*
X74386310Y-82585000D01*
X73945750Y-82585000D01*
X73787000Y-82743750D01*
X73533000Y-82743750D01*
X73374250Y-82585000D01*
X72933690Y-82585000D01*
X72700301Y-82681673D01*
X72521673Y-82860302D01*
X72425000Y-83093691D01*
X70114377Y-83093691D01*
X69939635Y-82832172D01*
X69517336Y-82550000D01*
X69939635Y-82267828D01*
X70242467Y-81814609D01*
X70348807Y-81280000D01*
X70242467Y-80745391D01*
X69939635Y-80292172D01*
X69517336Y-80010000D01*
X69939635Y-79727828D01*
X70242467Y-79274609D01*
X70348807Y-78740000D01*
X70242467Y-78205391D01*
X69939635Y-77752172D01*
X69504394Y-77461353D01*
X69569761Y-77442059D01*
X69995450Y-77098026D01*
X70257080Y-76617277D01*
X70272040Y-76543070D01*
X70149540Y-76327000D01*
X68707000Y-76327000D01*
X68707000Y-76347000D01*
X68453000Y-76347000D01*
X68453000Y-76327000D01*
X67010460Y-76327000D01*
X66887960Y-76543070D01*
X66902920Y-76617277D01*
X67164550Y-77098026D01*
X67590239Y-77442059D01*
X67655606Y-77461353D01*
X67220365Y-77752172D01*
X66917533Y-78205391D01*
X66811193Y-78740000D01*
X55107512Y-78740000D01*
X55001172Y-78205391D01*
X54698340Y-77752172D01*
X54276041Y-77470000D01*
X54698340Y-77187828D01*
X55001172Y-76734609D01*
X55107512Y-76200000D01*
X55001172Y-75665391D01*
X54698340Y-75212172D01*
X54276041Y-74930000D01*
X54698340Y-74647828D01*
X55001172Y-74194609D01*
X55107512Y-73660000D01*
X55009919Y-73169366D01*
X55227790Y-73023790D01*
X62596579Y-65655000D01*
X66887774Y-65655000D01*
X66811193Y-66040000D01*
X66917533Y-66574609D01*
X67220365Y-67027828D01*
X67642664Y-67310000D01*
X67220365Y-67592172D01*
X66917533Y-68045391D01*
X66811193Y-68580000D01*
X66917533Y-69114609D01*
X67220365Y-69567828D01*
X67642664Y-69850000D01*
X67220365Y-70132172D01*
X66917533Y-70585391D01*
X66811193Y-71120000D01*
X66917533Y-71654609D01*
X67220365Y-72107828D01*
X67642664Y-72390000D01*
X67220365Y-72672172D01*
X66917533Y-73125391D01*
X66811193Y-73660000D01*
X66917533Y-74194609D01*
X67220365Y-74647828D01*
X67655606Y-74938647D01*
X67590239Y-74957941D01*
X67164550Y-75301974D01*
X66902920Y-75782723D01*
X66887960Y-75856930D01*
X67010460Y-76073000D01*
X68453000Y-76073000D01*
X68453000Y-76053000D01*
X68707000Y-76053000D01*
X68707000Y-76073000D01*
X70149540Y-76073000D01*
X70272040Y-75856930D01*
X70257080Y-75782723D01*
X70157640Y-75600000D01*
X72412560Y-75600000D01*
X72412560Y-76800000D01*
X72456838Y-77035317D01*
X72595910Y-77251441D01*
X72808110Y-77396431D01*
X73060000Y-77447440D01*
X74260000Y-77447440D01*
X74495317Y-77403162D01*
X74711441Y-77264090D01*
X74856431Y-77051890D01*
X74907440Y-76800000D01*
X74907440Y-75600000D01*
X74863162Y-75364683D01*
X74724090Y-75148559D01*
X74511890Y-75003569D01*
X74260000Y-74952560D01*
X73060000Y-74952560D01*
X72824683Y-74996838D01*
X72608559Y-75135910D01*
X72463569Y-75348110D01*
X72412560Y-75600000D01*
X70157640Y-75600000D01*
X69995450Y-75301974D01*
X69569761Y-74957941D01*
X69504394Y-74938647D01*
X69939635Y-74647828D01*
X70242467Y-74194609D01*
X70292200Y-73944579D01*
X72424786Y-73944579D01*
X72612408Y-74398657D01*
X72959515Y-74746371D01*
X73413266Y-74934785D01*
X73904579Y-74935214D01*
X74358657Y-74747592D01*
X74706371Y-74400485D01*
X74894785Y-73946734D01*
X74895214Y-73455421D01*
X74707592Y-73001343D01*
X74360485Y-72653629D01*
X73906734Y-72465215D01*
X73415421Y-72464786D01*
X72961343Y-72652408D01*
X72613629Y-72999515D01*
X72425215Y-73453266D01*
X72424786Y-73944579D01*
X70292200Y-73944579D01*
X70348807Y-73660000D01*
X70242467Y-73125391D01*
X69939635Y-72672172D01*
X69517336Y-72390000D01*
X69939635Y-72107828D01*
X70242467Y-71654609D01*
X70348807Y-71120000D01*
X70242467Y-70585391D01*
X69939635Y-70132172D01*
X69517336Y-69850000D01*
X69939635Y-69567828D01*
X70242467Y-69114609D01*
X70348807Y-68580000D01*
X70242467Y-68045391D01*
X69939635Y-67592172D01*
X69517336Y-67310000D01*
X69939635Y-67027828D01*
X70242467Y-66574609D01*
X70348807Y-66040000D01*
X70272226Y-65655000D01*
X72499238Y-65655000D01*
X72425215Y-65833266D01*
X72424786Y-66324579D01*
X72612408Y-66778657D01*
X72959515Y-67126371D01*
X73413266Y-67314785D01*
X73904579Y-67315214D01*
X74358657Y-67127592D01*
X74706371Y-66780485D01*
X74894785Y-66326734D01*
X74895214Y-65835421D01*
X74707592Y-65381343D01*
X74360485Y-65033629D01*
X74121632Y-64934448D01*
X80033117Y-59022962D01*
X80076838Y-59255317D01*
X80215910Y-59471441D01*
X80395000Y-59593808D01*
X80395000Y-65673421D01*
X80174130Y-65894291D01*
X80093880Y-65490849D01*
X79782811Y-65025302D01*
X79317264Y-64714233D01*
X78768113Y-64605000D01*
X78711887Y-64605000D01*
X78162736Y-64714233D01*
X77697189Y-65025302D01*
X77386120Y-65490849D01*
X77276887Y-66040000D01*
X77386120Y-66589151D01*
X77697189Y-67054698D01*
X78079275Y-67310000D01*
X77697189Y-67565302D01*
X77386120Y-68030849D01*
X77276887Y-68580000D01*
X77386120Y-69129151D01*
X77697189Y-69594698D01*
X78079275Y-69850000D01*
X77697189Y-70105302D01*
X77632979Y-70201399D01*
X75385790Y-67954210D01*
X75273544Y-67879210D01*
X75098675Y-67762367D01*
X75042484Y-67751190D01*
X74841641Y-67711239D01*
X74724090Y-67528559D01*
X74511890Y-67383569D01*
X74260000Y-67332560D01*
X73060000Y-67332560D01*
X72824683Y-67376838D01*
X72608559Y-67515910D01*
X72463569Y-67728110D01*
X72412560Y-67980000D01*
X72412560Y-69180000D01*
X72456838Y-69415317D01*
X72595910Y-69631441D01*
X72808110Y-69776431D01*
X73060000Y-69827440D01*
X74260000Y-69827440D01*
X74495317Y-69783162D01*
X74626907Y-69698486D01*
X76674208Y-71745787D01*
X76674210Y-71745790D01*
X76961325Y-71937633D01*
X77300000Y-72005000D01*
X77610527Y-72005000D01*
X77697189Y-72134698D01*
X78079275Y-72390000D01*
X77697189Y-72645302D01*
X77386120Y-73110849D01*
X77276887Y-73660000D01*
X77386120Y-74209151D01*
X77697189Y-74674698D01*
X78079275Y-74930000D01*
X77697189Y-75185302D01*
X77386120Y-75650849D01*
X77276887Y-76200000D01*
X77386120Y-76749151D01*
X77697189Y-77214698D01*
X78079275Y-77470000D01*
X77697189Y-77725302D01*
X77610527Y-77855000D01*
X76240005Y-77855000D01*
X76240000Y-77854999D01*
X75957516Y-77911190D01*
X75901325Y-77922367D01*
X75614210Y-78114210D01*
X75614208Y-78114213D01*
X73643435Y-80084985D01*
X73415421Y-80084786D01*
X72961343Y-80272408D01*
X72613629Y-80619515D01*
X72425215Y-81073266D01*
X72424786Y-81564579D01*
X72612408Y-82018657D01*
X72959515Y-82366371D01*
X73413266Y-82554785D01*
X73904579Y-82555214D01*
X74358657Y-82367592D01*
X74706371Y-82020485D01*
X74894785Y-81566734D01*
X74894986Y-81336594D01*
X76606579Y-79625000D01*
X77610527Y-79625000D01*
X77697189Y-79754698D01*
X78079275Y-80010000D01*
X77697189Y-80265302D01*
X77386120Y-80730849D01*
X77276887Y-81280000D01*
X77386120Y-81829151D01*
X77697189Y-82294698D01*
X78101703Y-82564986D01*
X77884866Y-82667611D01*
X77508959Y-83082577D01*
X77348096Y-83470961D01*
X77470085Y-83693000D01*
X78613000Y-83693000D01*
X78613000Y-83673000D01*
X78867000Y-83673000D01*
X78867000Y-83693000D01*
X80009915Y-83693000D01*
X80131904Y-83470961D01*
X79971041Y-83082577D01*
X79595134Y-82667611D01*
X79378297Y-82564986D01*
X79782811Y-82294698D01*
X80093880Y-81829151D01*
X80203113Y-81280000D01*
X80093880Y-80730849D01*
X79782811Y-80265302D01*
X79400725Y-80010000D01*
X79782811Y-79754698D01*
X80093880Y-79289151D01*
X80133684Y-79089039D01*
X84968096Y-79089039D01*
X85128959Y-79477423D01*
X85504866Y-79892389D01*
X85753367Y-80010000D01*
X85504866Y-80127611D01*
X85128959Y-80542577D01*
X84968096Y-80930961D01*
X85090085Y-81153000D01*
X86233000Y-81153000D01*
X86233000Y-78867000D01*
X86487000Y-78867000D01*
X86487000Y-81153000D01*
X87629915Y-81153000D01*
X87751904Y-80930961D01*
X87591041Y-80542577D01*
X87215134Y-80127611D01*
X86966633Y-80010000D01*
X87215134Y-79892389D01*
X87591041Y-79477423D01*
X87751904Y-79089039D01*
X87629915Y-78867000D01*
X86487000Y-78867000D01*
X86233000Y-78867000D01*
X85090085Y-78867000D01*
X84968096Y-79089039D01*
X80133684Y-79089039D01*
X80203113Y-78740000D01*
X80093880Y-78190849D01*
X79782811Y-77725302D01*
X79400725Y-77470000D01*
X79782811Y-77214698D01*
X80093880Y-76749151D01*
X80203113Y-76200000D01*
X84896887Y-76200000D01*
X85006120Y-76749151D01*
X85317189Y-77214698D01*
X85721703Y-77484986D01*
X85504866Y-77587611D01*
X85128959Y-78002577D01*
X84968096Y-78390961D01*
X85090085Y-78613000D01*
X86233000Y-78613000D01*
X86233000Y-78593000D01*
X86487000Y-78593000D01*
X86487000Y-78613000D01*
X87629915Y-78613000D01*
X87751904Y-78390961D01*
X87591041Y-78002577D01*
X87215134Y-77587611D01*
X86998297Y-77484986D01*
X87402811Y-77214698D01*
X87713880Y-76749151D01*
X87823113Y-76200000D01*
X87781800Y-75992302D01*
X92570856Y-75992302D01*
X92598638Y-76547368D01*
X92757603Y-76931143D01*
X92999787Y-77000608D01*
X93800395Y-76200000D01*
X92999787Y-75399392D01*
X92757603Y-75468857D01*
X92570856Y-75992302D01*
X87781800Y-75992302D01*
X87713880Y-75650849D01*
X87402811Y-75185302D01*
X86998297Y-74915014D01*
X87215134Y-74812389D01*
X87591041Y-74397423D01*
X87751904Y-74009039D01*
X87629915Y-73787000D01*
X86487000Y-73787000D01*
X86487000Y-73807000D01*
X86233000Y-73807000D01*
X86233000Y-73787000D01*
X85090085Y-73787000D01*
X84968096Y-74009039D01*
X85128959Y-74397423D01*
X85504866Y-74812389D01*
X85721703Y-74915014D01*
X85317189Y-75185302D01*
X85006120Y-75650849D01*
X84896887Y-76200000D01*
X80203113Y-76200000D01*
X80093880Y-75650849D01*
X79782811Y-75185302D01*
X79400725Y-74930000D01*
X79782811Y-74674698D01*
X80093880Y-74209151D01*
X80203113Y-73660000D01*
X80093880Y-73110849D01*
X79782811Y-72645302D01*
X79400725Y-72390000D01*
X79782811Y-72134698D01*
X80093880Y-71669151D01*
X80203113Y-71120000D01*
X84896887Y-71120000D01*
X85006120Y-71669151D01*
X85317189Y-72134698D01*
X85721703Y-72404986D01*
X85504866Y-72507611D01*
X85128959Y-72922577D01*
X84968096Y-73310961D01*
X85090085Y-73533000D01*
X86233000Y-73533000D01*
X86233000Y-73513000D01*
X86487000Y-73513000D01*
X86487000Y-73533000D01*
X87629915Y-73533000D01*
X87751904Y-73310961D01*
X87591041Y-72922577D01*
X87215134Y-72507611D01*
X86998297Y-72404986D01*
X87402811Y-72134698D01*
X87713880Y-71669151D01*
X87823113Y-71120000D01*
X87713880Y-70570849D01*
X87402811Y-70105302D01*
X86998297Y-69835014D01*
X87215134Y-69732389D01*
X87591041Y-69317423D01*
X87751904Y-68929039D01*
X87629915Y-68707000D01*
X86487000Y-68707000D01*
X86487000Y-68727000D01*
X86233000Y-68727000D01*
X86233000Y-68707000D01*
X85090085Y-68707000D01*
X84968096Y-68929039D01*
X85128959Y-69317423D01*
X85504866Y-69732389D01*
X85721703Y-69835014D01*
X85317189Y-70105302D01*
X85006120Y-70570849D01*
X84896887Y-71120000D01*
X80203113Y-71120000D01*
X80093880Y-70570849D01*
X79782811Y-70105302D01*
X79400725Y-69850000D01*
X79782811Y-69594698D01*
X80093880Y-69129151D01*
X80203113Y-68580000D01*
X80168017Y-68403562D01*
X81905787Y-66665792D01*
X81905790Y-66665790D01*
X82097633Y-66378675D01*
X82165000Y-66040000D01*
X82165000Y-59591192D01*
X82331441Y-59484090D01*
X82476431Y-59271890D01*
X82527440Y-59020000D01*
X82527440Y-58664579D01*
X82544786Y-58664579D01*
X82732408Y-59118657D01*
X83079515Y-59466371D01*
X83533266Y-59654785D01*
X84024579Y-59655214D01*
X84478657Y-59467592D01*
X84573114Y-59373300D01*
X85406700Y-59373300D01*
X85406700Y-64671695D01*
X85406699Y-64671700D01*
X85448812Y-64883410D01*
X85458283Y-64931026D01*
X85317189Y-65025302D01*
X85006120Y-65490849D01*
X84896887Y-66040000D01*
X85006120Y-66589151D01*
X85317189Y-67054698D01*
X85721703Y-67324986D01*
X85504866Y-67427611D01*
X85128959Y-67842577D01*
X84968096Y-68230961D01*
X85090085Y-68453000D01*
X86233000Y-68453000D01*
X86233000Y-68433000D01*
X86487000Y-68433000D01*
X86487000Y-68453000D01*
X87629915Y-68453000D01*
X87751904Y-68230961D01*
X87591041Y-67842577D01*
X87215134Y-67427611D01*
X86998297Y-67324986D01*
X87402811Y-67054698D01*
X87713880Y-66589151D01*
X87823113Y-66040000D01*
X87713880Y-65490849D01*
X87402811Y-65025302D01*
X87245000Y-64919856D01*
X87245000Y-64740005D01*
X87245001Y-64740000D01*
X87183600Y-64431325D01*
X87177633Y-64401325D01*
X87176700Y-64399929D01*
X87176700Y-63776661D01*
X90042758Y-63776661D01*
X90254990Y-64290303D01*
X90647630Y-64683629D01*
X91160900Y-64896757D01*
X91716661Y-64897242D01*
X92230303Y-64685010D01*
X92623629Y-64292370D01*
X92836757Y-63779100D01*
X92837242Y-63223339D01*
X92625010Y-62709697D01*
X92232370Y-62316371D01*
X91719100Y-62103243D01*
X91163339Y-62102758D01*
X90649697Y-62314990D01*
X90256371Y-62707630D01*
X90043243Y-63220900D01*
X90042758Y-63776661D01*
X87176700Y-63776661D01*
X87176700Y-61940213D01*
X93179392Y-61940213D01*
X93248857Y-62182397D01*
X93772302Y-62369144D01*
X94327368Y-62341362D01*
X94711143Y-62182397D01*
X94780608Y-61940213D01*
X93980000Y-61139605D01*
X93179392Y-61940213D01*
X87176700Y-61940213D01*
X87176700Y-60752302D01*
X92570856Y-60752302D01*
X92598638Y-61307368D01*
X92757603Y-61691143D01*
X92999787Y-61760608D01*
X93800395Y-60960000D01*
X94159605Y-60960000D01*
X94960213Y-61760608D01*
X95202397Y-61691143D01*
X95389144Y-61167698D01*
X95361362Y-60612632D01*
X95202397Y-60228857D01*
X94960213Y-60159392D01*
X94159605Y-60960000D01*
X93800395Y-60960000D01*
X92999787Y-60159392D01*
X92757603Y-60228857D01*
X92570856Y-60752302D01*
X87176700Y-60752302D01*
X87176700Y-59979787D01*
X93179392Y-59979787D01*
X93980000Y-60780395D01*
X94780608Y-59979787D01*
X94711143Y-59737603D01*
X94187698Y-59550856D01*
X93632632Y-59578638D01*
X93248857Y-59737603D01*
X93179392Y-59979787D01*
X87176700Y-59979787D01*
X87176700Y-58854880D01*
X93834705Y-52196874D01*
X94256661Y-52197242D01*
X94770303Y-51985010D01*
X95163629Y-51592370D01*
X95376757Y-51079100D01*
X95377242Y-50523339D01*
X95165010Y-50009697D01*
X94772370Y-49616371D01*
X94259100Y-49403243D01*
X93703339Y-49402758D01*
X93189697Y-49614990D01*
X92796371Y-50007630D01*
X92583243Y-50520900D01*
X92582872Y-50945548D01*
X85925120Y-57603300D01*
X84709755Y-57603300D01*
X84480485Y-57373629D01*
X84026734Y-57185215D01*
X83535421Y-57184786D01*
X83081343Y-57372408D01*
X82733629Y-57719515D01*
X82545215Y-58173266D01*
X82544786Y-58664579D01*
X82527440Y-58664579D01*
X82527440Y-57820000D01*
X82483162Y-57584683D01*
X82344090Y-57368559D01*
X82131890Y-57223569D01*
X81918715Y-57180400D01*
X83404595Y-57180400D01*
X83404600Y-57180401D01*
X83687084Y-57124210D01*
X83743275Y-57113033D01*
X84030390Y-56921190D01*
X91294705Y-49656874D01*
X91716661Y-49657242D01*
X92230303Y-49445010D01*
X92623629Y-49052370D01*
X92836757Y-48539100D01*
X92837242Y-47983339D01*
X92625010Y-47469697D01*
X92232370Y-47076371D01*
X91719100Y-46863243D01*
X91163339Y-46862758D01*
X90649697Y-47074990D01*
X90256371Y-47467630D01*
X90043243Y-47980900D01*
X90042872Y-48405548D01*
X85235422Y-53212998D01*
X85160925Y-53212998D01*
X85305184Y-52978087D01*
X85111954Y-52425680D01*
X84722036Y-51989268D01*
X84194791Y-51735291D01*
X84179026Y-51732642D01*
X83947000Y-51853783D01*
X83947000Y-53213000D01*
X83967000Y-53213000D01*
X83967000Y-53467000D01*
X83947000Y-53467000D01*
X83947000Y-53487000D01*
X83693000Y-53487000D01*
X83693000Y-53467000D01*
X83673000Y-53467000D01*
X83673000Y-53213000D01*
X83693000Y-53213000D01*
X83693000Y-51853783D01*
X83460974Y-51732642D01*
X83445209Y-51735291D01*
X82917964Y-51989268D01*
X82546461Y-52405069D01*
X82339670Y-52095585D01*
X81853489Y-51770729D01*
X81280000Y-51656655D01*
X80706511Y-51770729D01*
X80220330Y-52095585D01*
X80210757Y-52109913D01*
X80206762Y-52088683D01*
X80067690Y-51872559D01*
X79855490Y-51727569D01*
X79603600Y-51676560D01*
X77876400Y-51676560D01*
X77641083Y-51720838D01*
X77424959Y-51859910D01*
X77279969Y-52072110D01*
X77228960Y-52324000D01*
X77228960Y-54356000D01*
X77273238Y-54591317D01*
X77412310Y-54807441D01*
X77624510Y-54952431D01*
X77876400Y-55003440D01*
X79603600Y-55003440D01*
X79838917Y-54959162D01*
X80055041Y-54820090D01*
X80200031Y-54607890D01*
X80208400Y-54566561D01*
X80220330Y-54584415D01*
X80706511Y-54909271D01*
X81280000Y-55023345D01*
X81853489Y-54909271D01*
X82339670Y-54584415D01*
X82546461Y-54274931D01*
X82917964Y-54690732D01*
X83445209Y-54944709D01*
X83460974Y-54947358D01*
X83544858Y-54903562D01*
X83038020Y-55410400D01*
X81509105Y-55410400D01*
X81509100Y-55410399D01*
X81170425Y-55477767D01*
X80883310Y-55669610D01*
X80883308Y-55669613D01*
X72667920Y-63885000D01*
X70272226Y-63885000D01*
X70348807Y-63500000D01*
X70242467Y-62965391D01*
X69939635Y-62512172D01*
X69517336Y-62230000D01*
X69939635Y-61947828D01*
X70242467Y-61494609D01*
X70348807Y-60960000D01*
X70242467Y-60425391D01*
X69939635Y-59972172D01*
X69517336Y-59690000D01*
X69939635Y-59407828D01*
X70242467Y-58954609D01*
X70348807Y-58420000D01*
X70242467Y-57885391D01*
X69939635Y-57432172D01*
X69517336Y-57150000D01*
X69939635Y-56867828D01*
X70242467Y-56414609D01*
X70348807Y-55880000D01*
X70251062Y-55388602D01*
X70467790Y-55243790D01*
X78379869Y-47331710D01*
X78740000Y-47403345D01*
X79313489Y-47289271D01*
X79799670Y-46964415D01*
X80010000Y-46649634D01*
X80220330Y-46964415D01*
X80706511Y-47289271D01*
X81280000Y-47403345D01*
X81853489Y-47289271D01*
X82339670Y-46964415D01*
X82550000Y-46649634D01*
X82760330Y-46964415D01*
X83246511Y-47289271D01*
X83820000Y-47403345D01*
X84393489Y-47289271D01*
X84879670Y-46964415D01*
X85086461Y-46654931D01*
X85457964Y-47070732D01*
X85985209Y-47324709D01*
X86000974Y-47327358D01*
X86233000Y-47206217D01*
X86233000Y-45847000D01*
X86487000Y-45847000D01*
X86487000Y-47206217D01*
X86719026Y-47327358D01*
X86734791Y-47324709D01*
X87262036Y-47070732D01*
X87593081Y-46700213D01*
X93179392Y-46700213D01*
X93248857Y-46942397D01*
X93772302Y-47129144D01*
X94327368Y-47101362D01*
X94711143Y-46942397D01*
X94780608Y-46700213D01*
X93980000Y-45899605D01*
X93179392Y-46700213D01*
X87593081Y-46700213D01*
X87651954Y-46634320D01*
X87845184Y-46081913D01*
X87700924Y-45847000D01*
X86487000Y-45847000D01*
X86233000Y-45847000D01*
X86213000Y-45847000D01*
X86213000Y-45593000D01*
X86233000Y-45593000D01*
X86233000Y-45573000D01*
X86487000Y-45573000D01*
X86487000Y-45593000D01*
X87700924Y-45593000D01*
X87750480Y-45512302D01*
X92570856Y-45512302D01*
X92598638Y-46067368D01*
X92757603Y-46451143D01*
X92999787Y-46520608D01*
X93800395Y-45720000D01*
X94159605Y-45720000D01*
X94960213Y-46520608D01*
X95202397Y-46451143D01*
X95389144Y-45927698D01*
X95361362Y-45372632D01*
X95202397Y-44988857D01*
X94960213Y-44919392D01*
X94159605Y-45720000D01*
X93800395Y-45720000D01*
X92999787Y-44919392D01*
X92757603Y-44988857D01*
X92570856Y-45512302D01*
X87750480Y-45512302D01*
X87845184Y-45358087D01*
X87651954Y-44805680D01*
X87440310Y-44568800D01*
X93228436Y-44568800D01*
X93179392Y-44739787D01*
X93980000Y-45540395D01*
X94780608Y-44739787D01*
X94731564Y-44568800D01*
X104456854Y-44568800D01*
X104430299Y-44702300D01*
X104430300Y-44702305D01*
X104430300Y-53307300D01*
X104070700Y-53307300D01*
X103732025Y-53374667D01*
X103444910Y-53566510D01*
X103444908Y-53566513D01*
X92128010Y-64883410D01*
X91936167Y-65170525D01*
X91936167Y-65170526D01*
X91868799Y-65509200D01*
X91868800Y-65509205D01*
X91868800Y-67528395D01*
X91868799Y-67528400D01*
X91915339Y-67762367D01*
X91936167Y-67867075D01*
X92128010Y-68154190D01*
X94307400Y-70333579D01*
X94307400Y-74833562D01*
X94187698Y-74790856D01*
X93632632Y-74818638D01*
X93248857Y-74977603D01*
X93179392Y-75219787D01*
X93980000Y-76020395D01*
X93994143Y-76006253D01*
X94173748Y-76185858D01*
X94159605Y-76200000D01*
X94173748Y-76214143D01*
X93994143Y-76393748D01*
X93980000Y-76379605D01*
X93179392Y-77180213D01*
X93248857Y-77422397D01*
X93277577Y-77432643D01*
X92855220Y-77855000D01*
X92530478Y-77855000D01*
X92232370Y-77556371D01*
X91719100Y-77343243D01*
X91163339Y-77342758D01*
X90649697Y-77554990D01*
X90256371Y-77947630D01*
X90043243Y-78460900D01*
X90042758Y-79016661D01*
X90254990Y-79530303D01*
X90647630Y-79923629D01*
X91160900Y-80136757D01*
X91716661Y-80137242D01*
X92230303Y-79925010D01*
X92530837Y-79625000D01*
X93221795Y-79625000D01*
X93221800Y-79625001D01*
X93504284Y-79568810D01*
X93560475Y-79557633D01*
X93847590Y-79365790D01*
X93847591Y-79365789D01*
X95035900Y-78177479D01*
X95035900Y-78972521D01*
X94125294Y-79883126D01*
X93703339Y-79882758D01*
X93189697Y-80094990D01*
X92796371Y-80487630D01*
X92583243Y-81000900D01*
X92582758Y-81556661D01*
X92794990Y-82070303D01*
X93187630Y-82463629D01*
X93700900Y-82676757D01*
X94256661Y-82677242D01*
X94770303Y-82465010D01*
X95163629Y-82072370D01*
X95376757Y-81559100D01*
X95377128Y-81134452D01*
X96546687Y-79964892D01*
X96546690Y-79964890D01*
X96738533Y-79677775D01*
X96805901Y-79339100D01*
X96805900Y-79339095D01*
X96805900Y-67980905D01*
X96805901Y-67980900D01*
X96738533Y-67642225D01*
X96662478Y-67528400D01*
X96546690Y-67355110D01*
X96546687Y-67355108D01*
X95376874Y-66185294D01*
X95377242Y-65763339D01*
X95165010Y-65249697D01*
X94772370Y-64856371D01*
X94691704Y-64822876D01*
X104437279Y-55077300D01*
X105177520Y-55077300D01*
X106359755Y-56259534D01*
X106409383Y-56379643D01*
X106672173Y-56642892D01*
X107015701Y-56785538D01*
X107387667Y-56785862D01*
X107731443Y-56643817D01*
X107994692Y-56381027D01*
X108137338Y-56037499D01*
X108137662Y-55665533D01*
X107995617Y-55321757D01*
X107732827Y-55058508D01*
X107611513Y-55008134D01*
X106200300Y-53596920D01*
X106200300Y-49664976D01*
X106320974Y-49714958D01*
X106553000Y-49593817D01*
X106553000Y-48387000D01*
X106807000Y-48387000D01*
X106807000Y-49593817D01*
X107039026Y-49714958D01*
X107454947Y-49542688D01*
X107886821Y-49148490D01*
X107950000Y-49013687D01*
X108013179Y-49148490D01*
X108445053Y-49542688D01*
X108860974Y-49714958D01*
X109093000Y-49593817D01*
X109093000Y-48387000D01*
X109347000Y-48387000D01*
X109347000Y-49593817D01*
X109579026Y-49714958D01*
X109994947Y-49542688D01*
X110426821Y-49148490D01*
X110490000Y-49013687D01*
X110553179Y-49148490D01*
X110985053Y-49542688D01*
X111400974Y-49714958D01*
X111633000Y-49593817D01*
X111633000Y-48387000D01*
X109347000Y-48387000D01*
X109093000Y-48387000D01*
X106807000Y-48387000D01*
X106553000Y-48387000D01*
X106533000Y-48387000D01*
X106533000Y-48133000D01*
X106553000Y-48133000D01*
X106553000Y-48113000D01*
X106807000Y-48113000D01*
X106807000Y-48133000D01*
X109093000Y-48133000D01*
X109093000Y-48113000D01*
X109347000Y-48113000D01*
X109347000Y-48133000D01*
X111633000Y-48133000D01*
X111633000Y-45847000D01*
X111613000Y-45847000D01*
X111613000Y-45593000D01*
X111633000Y-45593000D01*
X111633000Y-45573000D01*
X111887000Y-45573000D01*
X111887000Y-45593000D01*
X114173000Y-45593000D01*
X114173000Y-45573000D01*
X114427000Y-45573000D01*
X114427000Y-45593000D01*
X114447000Y-45593000D01*
X114447000Y-45847000D01*
X114427000Y-45847000D01*
X114427000Y-45867000D01*
X114173000Y-45867000D01*
X114173000Y-45847000D01*
X111887000Y-45847000D01*
X111887000Y-48133000D01*
X111907000Y-48133000D01*
X111907000Y-48387000D01*
X111887000Y-48387000D01*
X111887000Y-49593817D01*
X112119026Y-49714958D01*
X112534947Y-49542688D01*
X112966821Y-49148490D01*
X113024336Y-49025772D01*
X113240330Y-49349029D01*
X113415000Y-49465740D01*
X113415000Y-60333200D01*
X113285362Y-60645401D01*
X113285038Y-61017367D01*
X113415000Y-61331900D01*
X113415000Y-64064795D01*
X113414999Y-64064800D01*
X113460267Y-64292370D01*
X113482367Y-64403475D01*
X113538730Y-64487828D01*
X113674210Y-64690590D01*
X116076555Y-67092934D01*
X116126183Y-67213043D01*
X116228990Y-67316030D01*
X114661264Y-68883756D01*
X114541157Y-68933383D01*
X114277908Y-69196173D01*
X114135262Y-69539701D01*
X114134938Y-69911667D01*
X114276983Y-70255443D01*
X114539773Y-70518692D01*
X114883301Y-70661338D01*
X115255267Y-70661662D01*
X115599043Y-70519617D01*
X115862292Y-70256827D01*
X115912666Y-70135514D01*
X130848908Y-55199271D01*
X130832560Y-55280000D01*
X130832560Y-56480000D01*
X130876838Y-56715317D01*
X131015910Y-56931441D01*
X131195000Y-57053808D01*
X131195000Y-62230073D01*
X130788769Y-62635596D01*
X130556265Y-63195528D01*
X130555761Y-63772659D01*
X125810510Y-68517910D01*
X125618667Y-68805025D01*
X125610979Y-68843674D01*
X125551299Y-69143700D01*
X125551300Y-69143705D01*
X125551300Y-75158309D01*
X125519670Y-75110971D01*
X125033489Y-74786115D01*
X124460000Y-74672041D01*
X123886511Y-74786115D01*
X123400330Y-75110971D01*
X123184336Y-75434228D01*
X123126821Y-75311510D01*
X122694947Y-74917312D01*
X122279026Y-74745042D01*
X122047000Y-74866183D01*
X122047000Y-76073000D01*
X122067000Y-76073000D01*
X122067000Y-76327000D01*
X122047000Y-76327000D01*
X122047000Y-76347000D01*
X121793000Y-76347000D01*
X121793000Y-76327000D01*
X121773000Y-76327000D01*
X121773000Y-76073000D01*
X121793000Y-76073000D01*
X121793000Y-74866183D01*
X121560974Y-74745042D01*
X121145053Y-74917312D01*
X120713179Y-75311510D01*
X120655664Y-75434228D01*
X120439670Y-75110971D01*
X119953489Y-74786115D01*
X119380000Y-74672041D01*
X118806511Y-74786115D01*
X118320330Y-75110971D01*
X118110000Y-75425752D01*
X117899670Y-75110971D01*
X117413489Y-74786115D01*
X116840000Y-74672041D01*
X116266511Y-74786115D01*
X115780330Y-75110971D01*
X115570000Y-75425752D01*
X115359670Y-75110971D01*
X114873489Y-74786115D01*
X114300000Y-74672041D01*
X113726511Y-74786115D01*
X113240330Y-75110971D01*
X113030000Y-75425752D01*
X112819670Y-75110971D01*
X112333489Y-74786115D01*
X111760000Y-74672041D01*
X111186511Y-74786115D01*
X110700330Y-75110971D01*
X110484336Y-75434228D01*
X110426821Y-75311510D01*
X109994947Y-74917312D01*
X109579026Y-74745042D01*
X109347000Y-74866183D01*
X109347000Y-76073000D01*
X109367000Y-76073000D01*
X109367000Y-76327000D01*
X109347000Y-76327000D01*
X109347000Y-76347000D01*
X109093000Y-76347000D01*
X109093000Y-76327000D01*
X109073000Y-76327000D01*
X109073000Y-76073000D01*
X109093000Y-76073000D01*
X109093000Y-74866183D01*
X108860974Y-74745042D01*
X108445053Y-74917312D01*
X108160973Y-75176609D01*
X108146762Y-75101083D01*
X108007690Y-74884959D01*
X107795490Y-74739969D01*
X107565000Y-74693294D01*
X107565000Y-71869822D01*
X107614838Y-71749799D01*
X107615162Y-71377833D01*
X107473117Y-71034057D01*
X107210327Y-70770808D01*
X106866799Y-70628162D01*
X106494833Y-70627838D01*
X106151057Y-70769883D01*
X105889700Y-71030784D01*
X105889700Y-70019322D01*
X105939538Y-69899299D01*
X105939862Y-69527333D01*
X105797817Y-69183557D01*
X105535027Y-68920308D01*
X105191499Y-68777662D01*
X104819533Y-68777338D01*
X104475757Y-68919383D01*
X104212508Y-69182173D01*
X104069862Y-69525701D01*
X104069538Y-69897667D01*
X104119700Y-70019069D01*
X104119700Y-77064695D01*
X104119699Y-77064700D01*
X104156845Y-77251441D01*
X104187067Y-77403375D01*
X104341833Y-77635000D01*
X104378910Y-77690490D01*
X105217512Y-78529092D01*
X105181400Y-78710641D01*
X105181400Y-78769359D01*
X105295474Y-79342848D01*
X105620330Y-79829029D01*
X106106511Y-80153885D01*
X106680000Y-80267959D01*
X107253489Y-80153885D01*
X107739670Y-79829029D01*
X107950000Y-79514248D01*
X108160330Y-79829029D01*
X108646511Y-80153885D01*
X109220000Y-80267959D01*
X109793489Y-80153885D01*
X110279670Y-79829029D01*
X110490000Y-79514248D01*
X110700330Y-79829029D01*
X111186511Y-80153885D01*
X111760000Y-80267959D01*
X111990525Y-80222105D01*
X113876308Y-82107887D01*
X113876310Y-82107890D01*
X114163425Y-82299733D01*
X114219616Y-82310910D01*
X114502100Y-82367101D01*
X114502105Y-82367100D01*
X128692495Y-82367100D01*
X128692500Y-82367101D01*
X128974984Y-82310910D01*
X129031175Y-82299733D01*
X129318290Y-82107890D01*
X129318291Y-82107889D01*
X133861187Y-77564992D01*
X133861190Y-77564990D01*
X134027530Y-77316044D01*
X134411036Y-77447807D01*
X134901413Y-77417482D01*
X135213617Y-77288164D01*
X135263130Y-77062735D01*
X134580000Y-76379605D01*
X134565858Y-76393748D01*
X134386253Y-76214143D01*
X134400395Y-76200000D01*
X134759605Y-76200000D01*
X135442735Y-76883130D01*
X135668164Y-76833617D01*
X135762506Y-76559026D01*
X140785042Y-76559026D01*
X140957312Y-76974947D01*
X141351510Y-77406821D01*
X141880973Y-77654968D01*
X142113000Y-77534469D01*
X142113000Y-76327000D01*
X142367000Y-76327000D01*
X142367000Y-77534469D01*
X142599027Y-77654968D01*
X143128490Y-77406821D01*
X143510000Y-76988848D01*
X143891510Y-77406821D01*
X144420973Y-77654968D01*
X144653000Y-77534469D01*
X144653000Y-76327000D01*
X144907000Y-76327000D01*
X144907000Y-77534469D01*
X145139027Y-77654968D01*
X145668490Y-77406821D01*
X146062688Y-76974947D01*
X146234958Y-76559026D01*
X146113817Y-76327000D01*
X144907000Y-76327000D01*
X144653000Y-76327000D01*
X142367000Y-76327000D01*
X142113000Y-76327000D01*
X140906183Y-76327000D01*
X140785042Y-76559026D01*
X135762506Y-76559026D01*
X135827807Y-76368964D01*
X135797482Y-75878587D01*
X135668164Y-75566383D01*
X135442735Y-75516870D01*
X134759605Y-76200000D01*
X134400395Y-76200000D01*
X134386253Y-76185858D01*
X134565858Y-76006253D01*
X134580000Y-76020395D01*
X135263130Y-75337265D01*
X135213617Y-75111836D01*
X134748964Y-74952193D01*
X134568209Y-74963371D01*
X140751783Y-68779796D01*
X140826115Y-69153489D01*
X141150971Y-69639670D01*
X141465752Y-69850000D01*
X141150971Y-70060330D01*
X140826115Y-70546511D01*
X140712041Y-71120000D01*
X140826115Y-71693489D01*
X141150971Y-72179670D01*
X141465752Y-72390000D01*
X141150971Y-72600330D01*
X140826115Y-73086511D01*
X140712041Y-73660000D01*
X140826115Y-74233489D01*
X141150971Y-74719670D01*
X141474228Y-74935664D01*
X141351510Y-74993179D01*
X140957312Y-75425053D01*
X140785042Y-75840974D01*
X140906183Y-76073000D01*
X142113000Y-76073000D01*
X142113000Y-76053000D01*
X142367000Y-76053000D01*
X142367000Y-76073000D01*
X144653000Y-76073000D01*
X144653000Y-76053000D01*
X144907000Y-76053000D01*
X144907000Y-76073000D01*
X146113817Y-76073000D01*
X146234958Y-75840974D01*
X146062688Y-75425053D01*
X145668490Y-74993179D01*
X145545772Y-74935664D01*
X145869029Y-74719670D01*
X146193885Y-74233489D01*
X146307959Y-73660000D01*
X146193885Y-73086511D01*
X145869029Y-72600330D01*
X145554248Y-72390000D01*
X145869029Y-72179670D01*
X146193885Y-71693489D01*
X146307959Y-71120000D01*
X146193885Y-70546511D01*
X145869029Y-70060330D01*
X145554248Y-69850000D01*
X145869029Y-69639670D01*
X146193885Y-69153489D01*
X146307959Y-68580000D01*
X146193885Y-68006511D01*
X145869029Y-67520330D01*
X145554248Y-67310000D01*
X145869029Y-67099670D01*
X146193885Y-66613489D01*
X146307959Y-66040000D01*
X146193885Y-65466511D01*
X145869029Y-64980330D01*
X145554248Y-64770000D01*
X145869029Y-64559670D01*
X146193885Y-64073489D01*
X146307959Y-63500000D01*
X146262105Y-63269475D01*
X146758487Y-62773092D01*
X146758490Y-62773090D01*
X146950333Y-62485975D01*
X146978469Y-62344526D01*
X147017701Y-62147300D01*
X147017700Y-62147295D01*
X147017700Y-52786105D01*
X147017701Y-52786100D01*
X146950333Y-52447425D01*
X146758490Y-52160310D01*
X146758487Y-52160308D01*
X145228390Y-50630210D01*
X145064795Y-50520900D01*
X144941275Y-50438367D01*
X144885084Y-50427190D01*
X144602600Y-50370999D01*
X144602595Y-50371000D01*
X130305700Y-50371000D01*
X130305700Y-47815105D01*
X130305701Y-47815100D01*
X130238333Y-47476426D01*
X130238333Y-47476425D01*
X130046490Y-47189310D01*
X130046487Y-47189308D01*
X125931490Y-43074310D01*
X125907095Y-43058010D01*
X125644375Y-42882467D01*
X125562425Y-42866166D01*
X125305700Y-42815099D01*
X125305695Y-42815100D01*
X120036300Y-42815100D01*
X119697625Y-42882467D01*
X119410510Y-43074310D01*
X119410508Y-43074313D01*
X119380000Y-43104821D01*
X119333190Y-43058010D01*
X119046075Y-42866167D01*
X118989884Y-42854990D01*
X118707400Y-42798799D01*
X118707395Y-42798800D01*
X71894205Y-42798800D01*
X71894200Y-42798799D01*
X71555526Y-42866166D01*
X71555524Y-42866167D01*
X71555525Y-42866167D01*
X71268410Y-43058010D01*
X71268408Y-43058013D01*
X67954210Y-46372210D01*
X67762367Y-46659325D01*
X67762367Y-46659326D01*
X67701817Y-46963724D01*
X67673584Y-46969340D01*
X67220365Y-47272172D01*
X66917533Y-47725391D01*
X66811193Y-48260000D01*
X66917533Y-48794609D01*
X67220365Y-49247828D01*
X67642664Y-49530000D01*
X67220365Y-49812172D01*
X66917533Y-50265391D01*
X66811193Y-50800000D01*
X66917533Y-51334609D01*
X67220365Y-51787828D01*
X67642664Y-52070000D01*
X67220365Y-52352172D01*
X66917533Y-52805391D01*
X66811193Y-53340000D01*
X66917533Y-53874609D01*
X67220365Y-54327828D01*
X67642664Y-54610000D01*
X67220365Y-54892172D01*
X66917533Y-55345391D01*
X66811193Y-55880000D01*
X66917533Y-56414609D01*
X67220365Y-56867828D01*
X67642664Y-57150000D01*
X67220365Y-57432172D01*
X66917533Y-57885391D01*
X66811193Y-58420000D01*
X66917533Y-58954609D01*
X67220365Y-59407828D01*
X67642664Y-59690000D01*
X67220365Y-59972172D01*
X66917533Y-60425391D01*
X66811193Y-60960000D01*
X66917533Y-61494609D01*
X67220365Y-61947828D01*
X67642664Y-62230000D01*
X67220365Y-62512172D01*
X66917533Y-62965391D01*
X66811193Y-63500000D01*
X66887774Y-63885000D01*
X62230005Y-63885000D01*
X62230000Y-63884999D01*
X61947516Y-63941190D01*
X61891325Y-63952367D01*
X61604210Y-64144210D01*
X61604208Y-64144213D01*
X55028026Y-70720394D01*
X55001172Y-70585391D01*
X54698340Y-70132172D01*
X54276041Y-69850000D01*
X54698340Y-69567828D01*
X55001172Y-69114609D01*
X55107512Y-68580000D01*
X55001172Y-68045391D01*
X54698340Y-67592172D01*
X54276041Y-67310000D01*
X54698340Y-67027828D01*
X55001172Y-66574609D01*
X55107512Y-66040000D01*
X55001172Y-65505391D01*
X54698340Y-65052172D01*
X54276041Y-64770000D01*
X54698340Y-64487828D01*
X55001172Y-64034609D01*
X55107512Y-63500000D01*
X55001172Y-62965391D01*
X54698340Y-62512172D01*
X54276041Y-62230000D01*
X54698340Y-61947828D01*
X55001172Y-61494609D01*
X55107512Y-60960000D01*
X55001172Y-60425391D01*
X54698340Y-59972172D01*
X54276041Y-59690000D01*
X54698340Y-59407828D01*
X55001172Y-58954609D01*
X55107512Y-58420000D01*
X55001172Y-57885391D01*
X54698340Y-57432172D01*
X54276688Y-57150433D01*
X54699635Y-56867828D01*
X55002467Y-56414609D01*
X55108807Y-55880000D01*
X55002467Y-55345391D01*
X54699635Y-54892172D01*
X54277336Y-54610000D01*
X54699635Y-54327828D01*
X55002467Y-53874609D01*
X55108807Y-53340000D01*
X55002467Y-52805391D01*
X54699635Y-52352172D01*
X54277336Y-52070000D01*
X54699635Y-51787828D01*
X55002467Y-51334609D01*
X55108807Y-50800000D01*
X55002467Y-50265391D01*
X54699635Y-49812172D01*
X54277336Y-49530000D01*
X54699635Y-49247828D01*
X55002467Y-48794609D01*
X55108807Y-48260000D01*
X55002467Y-47725391D01*
X54699635Y-47272172D01*
X54246416Y-46969340D01*
X53711807Y-46863000D01*
X52968193Y-46863000D01*
X52433584Y-46969340D01*
X51980365Y-47272172D01*
X51677533Y-47725391D01*
X51571193Y-48260000D01*
X50927000Y-48260000D01*
X50927000Y-40767000D01*
X147193000Y-40767000D01*
X147193000Y-88773000D01*
G36*
X118320330Y-49349029D02*
X118495000Y-49465740D01*
X118495000Y-52388095D01*
X118494999Y-52388100D01*
X118546640Y-52647711D01*
X118562367Y-52726775D01*
X118720207Y-52963000D01*
X118754210Y-53013890D01*
X120557855Y-54817534D01*
X120607483Y-54937643D01*
X120870273Y-55200892D01*
X121168374Y-55324675D01*
X121057162Y-55592501D01*
X121056838Y-55964467D01*
X121198883Y-56308243D01*
X121307923Y-56417473D01*
X121069808Y-56655173D01*
X120927162Y-56998701D01*
X120926838Y-57370667D01*
X121068883Y-57714443D01*
X121331673Y-57977692D01*
X121675201Y-58120338D01*
X122047167Y-58120662D01*
X122390943Y-57978617D01*
X122654192Y-57715827D01*
X122704566Y-57594514D01*
X124304253Y-55994826D01*
X124261162Y-56098601D01*
X124260838Y-56470567D01*
X124402883Y-56814343D01*
X124665673Y-57077592D01*
X125009201Y-57220238D01*
X125381167Y-57220562D01*
X125724943Y-57078517D01*
X125988192Y-56815727D01*
X126038566Y-56694414D01*
X127100187Y-55632792D01*
X127100190Y-55632790D01*
X127292033Y-55345675D01*
X127305097Y-55280000D01*
X127359401Y-55007000D01*
X127359400Y-55006995D01*
X127359400Y-53681242D01*
X127630801Y-53793938D01*
X128002767Y-53794262D01*
X128346543Y-53652217D01*
X128609792Y-53389427D01*
X128660166Y-53268114D01*
X129787279Y-52141000D01*
X140828008Y-52141000D01*
X140741400Y-52350090D01*
X140741400Y-53054250D01*
X140900150Y-53213000D01*
X142113000Y-53213000D01*
X142113000Y-53193000D01*
X142367000Y-53193000D01*
X142367000Y-53213000D01*
X144653000Y-53213000D01*
X144653000Y-53193000D01*
X144907000Y-53193000D01*
X144907000Y-53213000D01*
X144927000Y-53213000D01*
X144927000Y-53467000D01*
X144907000Y-53467000D01*
X144907000Y-53487000D01*
X144653000Y-53487000D01*
X144653000Y-53467000D01*
X142367000Y-53467000D01*
X142367000Y-53487000D01*
X142113000Y-53487000D01*
X142113000Y-53467000D01*
X140900150Y-53467000D01*
X140741400Y-53625750D01*
X140741400Y-54329910D01*
X140838073Y-54563299D01*
X141016702Y-54741927D01*
X141172023Y-54806263D01*
X141150971Y-54820330D01*
X140826115Y-55306511D01*
X140712041Y-55880000D01*
X140826115Y-56453489D01*
X141150971Y-56939670D01*
X141465752Y-57150000D01*
X141150971Y-57360330D01*
X141117861Y-57409882D01*
X137189690Y-53481710D01*
X137085195Y-53411889D01*
X136902575Y-53289867D01*
X136820293Y-53273500D01*
X136563900Y-53222499D01*
X136563895Y-53222500D01*
X130689105Y-53222500D01*
X130689100Y-53222499D01*
X130432707Y-53273500D01*
X130350425Y-53289867D01*
X130063310Y-53481710D01*
X130063308Y-53481713D01*
X117551281Y-65993739D01*
X117449627Y-65891908D01*
X117328313Y-65841534D01*
X115185000Y-63698220D01*
X115185000Y-49465740D01*
X115359670Y-49349029D01*
X115570000Y-49034248D01*
X115780330Y-49349029D01*
X116266511Y-49673885D01*
X116840000Y-49787959D01*
X117413489Y-49673885D01*
X117899670Y-49349029D01*
X118110000Y-49034248D01*
X118320330Y-49349029D01*
X118320330Y-49349029D01*
G37*
X118320330Y-49349029D02*
X118495000Y-49465740D01*
X118495000Y-52388095D01*
X118494999Y-52388100D01*
X118546640Y-52647711D01*
X118562367Y-52726775D01*
X118720207Y-52963000D01*
X118754210Y-53013890D01*
X120557855Y-54817534D01*
X120607483Y-54937643D01*
X120870273Y-55200892D01*
X121168374Y-55324675D01*
X121057162Y-55592501D01*
X121056838Y-55964467D01*
X121198883Y-56308243D01*
X121307923Y-56417473D01*
X121069808Y-56655173D01*
X120927162Y-56998701D01*
X120926838Y-57370667D01*
X121068883Y-57714443D01*
X121331673Y-57977692D01*
X121675201Y-58120338D01*
X122047167Y-58120662D01*
X122390943Y-57978617D01*
X122654192Y-57715827D01*
X122704566Y-57594514D01*
X124304253Y-55994826D01*
X124261162Y-56098601D01*
X124260838Y-56470567D01*
X124402883Y-56814343D01*
X124665673Y-57077592D01*
X125009201Y-57220238D01*
X125381167Y-57220562D01*
X125724943Y-57078517D01*
X125988192Y-56815727D01*
X126038566Y-56694414D01*
X127100187Y-55632792D01*
X127100190Y-55632790D01*
X127292033Y-55345675D01*
X127305097Y-55280000D01*
X127359401Y-55007000D01*
X127359400Y-55006995D01*
X127359400Y-53681242D01*
X127630801Y-53793938D01*
X128002767Y-53794262D01*
X128346543Y-53652217D01*
X128609792Y-53389427D01*
X128660166Y-53268114D01*
X129787279Y-52141000D01*
X140828008Y-52141000D01*
X140741400Y-52350090D01*
X140741400Y-53054250D01*
X140900150Y-53213000D01*
X142113000Y-53213000D01*
X142113000Y-53193000D01*
X142367000Y-53193000D01*
X142367000Y-53213000D01*
X144653000Y-53213000D01*
X144653000Y-53193000D01*
X144907000Y-53193000D01*
X144907000Y-53213000D01*
X144927000Y-53213000D01*
X144927000Y-53467000D01*
X144907000Y-53467000D01*
X144907000Y-53487000D01*
X144653000Y-53487000D01*
X144653000Y-53467000D01*
X142367000Y-53467000D01*
X142367000Y-53487000D01*
X142113000Y-53487000D01*
X142113000Y-53467000D01*
X140900150Y-53467000D01*
X140741400Y-53625750D01*
X140741400Y-54329910D01*
X140838073Y-54563299D01*
X141016702Y-54741927D01*
X141172023Y-54806263D01*
X141150971Y-54820330D01*
X140826115Y-55306511D01*
X140712041Y-55880000D01*
X140826115Y-56453489D01*
X141150971Y-56939670D01*
X141465752Y-57150000D01*
X141150971Y-57360330D01*
X141117861Y-57409882D01*
X137189690Y-53481710D01*
X137085195Y-53411889D01*
X136902575Y-53289867D01*
X136820293Y-53273500D01*
X136563900Y-53222499D01*
X136563895Y-53222500D01*
X130689105Y-53222500D01*
X130689100Y-53222499D01*
X130432707Y-53273500D01*
X130350425Y-53289867D01*
X130063310Y-53481710D01*
X130063308Y-53481713D01*
X117551281Y-65993739D01*
X117449627Y-65891908D01*
X117328313Y-65841534D01*
X115185000Y-63698220D01*
X115185000Y-49465740D01*
X115359670Y-49349029D01*
X115570000Y-49034248D01*
X115780330Y-49349029D01*
X116266511Y-49673885D01*
X116840000Y-49787959D01*
X117413489Y-49673885D01*
X117899670Y-49349029D01*
X118110000Y-49034248D01*
X118320330Y-49349029D01*
G36*
X133601570Y-55081178D02*
X133717263Y-55196871D01*
X133491836Y-55246383D01*
X133332193Y-55711036D01*
X133362518Y-56201413D01*
X133491836Y-56513617D01*
X133717265Y-56563130D01*
X134400395Y-55880000D01*
X134386253Y-55865858D01*
X134565858Y-55686253D01*
X134580000Y-55700395D01*
X134594143Y-55686253D01*
X134773748Y-55865858D01*
X134759605Y-55880000D01*
X135442735Y-56563130D01*
X135668164Y-56513617D01*
X135827807Y-56048964D01*
X135797482Y-55558587D01*
X135668164Y-55246383D01*
X135442737Y-55196871D01*
X135558430Y-55081178D01*
X135469752Y-54992500D01*
X136197320Y-54992500D01*
X140250608Y-59045787D01*
X140250610Y-59045790D01*
X140537725Y-59237633D01*
X140593916Y-59248810D01*
X140876400Y-59305001D01*
X140876405Y-59305000D01*
X141034260Y-59305000D01*
X141150971Y-59479670D01*
X141465752Y-59690000D01*
X141150971Y-59900330D01*
X140826115Y-60386511D01*
X140712041Y-60960000D01*
X140826115Y-61533489D01*
X141150971Y-62019670D01*
X141465752Y-62230000D01*
X141150971Y-62440330D01*
X141034260Y-62615000D01*
X136123700Y-62615000D01*
X136123700Y-62201605D01*
X136123701Y-62201600D01*
X136056333Y-61862926D01*
X136056333Y-61862925D01*
X135864490Y-61575810D01*
X135864487Y-61575808D01*
X135435944Y-61147265D01*
X135386317Y-61027157D01*
X135123527Y-60763908D01*
X134779999Y-60621262D01*
X134408033Y-60620938D01*
X134064257Y-60762983D01*
X133801008Y-61025773D01*
X133658362Y-61369301D01*
X133658038Y-61741267D01*
X133800083Y-62085043D01*
X134062873Y-62348292D01*
X134184186Y-62398666D01*
X134353700Y-62568179D01*
X134353700Y-63133421D01*
X133547699Y-63939422D01*
X133603735Y-63804472D01*
X133604264Y-63198188D01*
X133372738Y-62637851D01*
X132965000Y-62229401D01*
X132965000Y-57051192D01*
X133131441Y-56944090D01*
X133269020Y-56742735D01*
X133896870Y-56742735D01*
X133946383Y-56968164D01*
X134411036Y-57127807D01*
X134901413Y-57097482D01*
X135213617Y-56968164D01*
X135263130Y-56742735D01*
X134580000Y-56059605D01*
X133896870Y-56742735D01*
X133269020Y-56742735D01*
X133276431Y-56731890D01*
X133327440Y-56480000D01*
X133327440Y-55280000D01*
X133283162Y-55044683D01*
X133249583Y-54992500D01*
X133690248Y-54992500D01*
X133601570Y-55081178D01*
X133601570Y-55081178D01*
G37*
X133601570Y-55081178D02*
X133717263Y-55196871D01*
X133491836Y-55246383D01*
X133332193Y-55711036D01*
X133362518Y-56201413D01*
X133491836Y-56513617D01*
X133717265Y-56563130D01*
X134400395Y-55880000D01*
X134386253Y-55865858D01*
X134565858Y-55686253D01*
X134580000Y-55700395D01*
X134594143Y-55686253D01*
X134773748Y-55865858D01*
X134759605Y-55880000D01*
X135442735Y-56563130D01*
X135668164Y-56513617D01*
X135827807Y-56048964D01*
X135797482Y-55558587D01*
X135668164Y-55246383D01*
X135442737Y-55196871D01*
X135558430Y-55081178D01*
X135469752Y-54992500D01*
X136197320Y-54992500D01*
X140250608Y-59045787D01*
X140250610Y-59045790D01*
X140537725Y-59237633D01*
X140593916Y-59248810D01*
X140876400Y-59305001D01*
X140876405Y-59305000D01*
X141034260Y-59305000D01*
X141150971Y-59479670D01*
X141465752Y-59690000D01*
X141150971Y-59900330D01*
X140826115Y-60386511D01*
X140712041Y-60960000D01*
X140826115Y-61533489D01*
X141150971Y-62019670D01*
X141465752Y-62230000D01*
X141150971Y-62440330D01*
X141034260Y-62615000D01*
X136123700Y-62615000D01*
X136123700Y-62201605D01*
X136123701Y-62201600D01*
X136056333Y-61862926D01*
X136056333Y-61862925D01*
X135864490Y-61575810D01*
X135864487Y-61575808D01*
X135435944Y-61147265D01*
X135386317Y-61027157D01*
X135123527Y-60763908D01*
X134779999Y-60621262D01*
X134408033Y-60620938D01*
X134064257Y-60762983D01*
X133801008Y-61025773D01*
X133658362Y-61369301D01*
X133658038Y-61741267D01*
X133800083Y-62085043D01*
X134062873Y-62348292D01*
X134184186Y-62398666D01*
X134353700Y-62568179D01*
X134353700Y-63133421D01*
X133547699Y-63939422D01*
X133603735Y-63804472D01*
X133604264Y-63198188D01*
X133372738Y-62637851D01*
X132965000Y-62229401D01*
X132965000Y-57051192D01*
X133131441Y-56944090D01*
X133269020Y-56742735D01*
X133896870Y-56742735D01*
X133946383Y-56968164D01*
X134411036Y-57127807D01*
X134901413Y-57097482D01*
X135213617Y-56968164D01*
X135263130Y-56742735D01*
X134580000Y-56059605D01*
X133896870Y-56742735D01*
X133269020Y-56742735D01*
X133276431Y-56731890D01*
X133327440Y-56480000D01*
X133327440Y-55280000D01*
X133283162Y-55044683D01*
X133249583Y-54992500D01*
X133690248Y-54992500D01*
X133601570Y-55081178D01*
M02*
