G04 #@! TF.FileFunction,Soldermask,Top*
%FSLAX46Y46*%
G04 Gerber Fmt 4.6, Leading zero omitted, Abs format (unit mm)*
G04 Created by KiCad (PCBNEW 4.0.5) date 12/27/16 23:39:24*
%MOMM*%
%LPD*%
G01*
G04 APERTURE LIST*
%ADD10C,0.100000*%
%ADD11R,1.200000X1.200000*%
%ADD12C,1.200000*%
%ADD13O,2.199640X1.524000*%
%ADD14O,2.197100X1.524000*%
%ADD15R,1.727200X2.032000*%
%ADD16O,1.727200X2.032000*%
%ADD17R,1.727200X1.727200*%
%ADD18O,1.727200X1.727200*%
%ADD19C,1.524000*%
%ADD20O,1.600000X1.600000*%
%ADD21R,0.550000X1.925000*%
%ADD22C,1.778000*%
G04 APERTURE END LIST*
D10*
D11*
X73660000Y-68580000D03*
D12*
X73660000Y-66080000D03*
D11*
X73660000Y-76200000D03*
D12*
X73660000Y-73700000D03*
D11*
X81280000Y-58420000D03*
D12*
X83780000Y-58420000D03*
D11*
X73660000Y-83820000D03*
D12*
X73660000Y-81320000D03*
D11*
X132080000Y-55880000D03*
D12*
X134580000Y-55880000D03*
D11*
X132080000Y-76200000D03*
D12*
X134580000Y-76200000D03*
D13*
X68580000Y-83820000D03*
X68580000Y-81280000D03*
X68580000Y-78740000D03*
X68580000Y-76200000D03*
X68580000Y-73660000D03*
X68580000Y-71120000D03*
X68580000Y-68580000D03*
X68580000Y-66040000D03*
X68580000Y-63500000D03*
X68580000Y-60960000D03*
X68580000Y-58420000D03*
X68580000Y-55880000D03*
X68580000Y-53340000D03*
X68580000Y-50800000D03*
X68580000Y-48260000D03*
X53340000Y-48260000D03*
X53340000Y-50800000D03*
X53340000Y-53340000D03*
X53340000Y-55880000D03*
D14*
X53340000Y-58420000D03*
X53340000Y-60960000D03*
X53340000Y-63500000D03*
X53340000Y-66040000D03*
X53340000Y-68580000D03*
X53340000Y-71120000D03*
X53340000Y-73660000D03*
X53340000Y-76200000D03*
X53340000Y-78740000D03*
X53340000Y-81280000D03*
X53340000Y-83820000D03*
D15*
X78740000Y-53340000D03*
D16*
X81280000Y-53340000D03*
X83820000Y-53340000D03*
D17*
X142240000Y-53340000D03*
D18*
X144780000Y-53340000D03*
X142240000Y-55880000D03*
X144780000Y-55880000D03*
X142240000Y-58420000D03*
X144780000Y-58420000D03*
X142240000Y-60960000D03*
X144780000Y-60960000D03*
X142240000Y-63500000D03*
X144780000Y-63500000D03*
X142240000Y-66040000D03*
X144780000Y-66040000D03*
X142240000Y-68580000D03*
X144780000Y-68580000D03*
X142240000Y-71120000D03*
X144780000Y-71120000D03*
X142240000Y-73660000D03*
X144780000Y-73660000D03*
X142240000Y-76200000D03*
X144780000Y-76200000D03*
D15*
X76200000Y-45720000D03*
D16*
X78740000Y-45720000D03*
X81280000Y-45720000D03*
X83820000Y-45720000D03*
X86360000Y-45720000D03*
D17*
X106680000Y-76200000D03*
D18*
X106680000Y-78740000D03*
X109220000Y-76200000D03*
X109220000Y-78740000D03*
X111760000Y-76200000D03*
X111760000Y-78740000D03*
X114300000Y-76200000D03*
X114300000Y-78740000D03*
X116840000Y-76200000D03*
X116840000Y-78740000D03*
X119380000Y-76200000D03*
X119380000Y-78740000D03*
X121920000Y-76200000D03*
X121920000Y-78740000D03*
X124460000Y-76200000D03*
X124460000Y-78740000D03*
D17*
X106680000Y-45720000D03*
D18*
X106680000Y-48260000D03*
X109220000Y-45720000D03*
X109220000Y-48260000D03*
X111760000Y-45720000D03*
X111760000Y-48260000D03*
X114300000Y-45720000D03*
X114300000Y-48260000D03*
X116840000Y-45720000D03*
X116840000Y-48260000D03*
X119380000Y-45720000D03*
X119380000Y-48260000D03*
X121920000Y-45720000D03*
X121920000Y-48260000D03*
X124460000Y-45720000D03*
X124460000Y-48260000D03*
D19*
X91440000Y-48260000D03*
X93980000Y-45720000D03*
X93980000Y-50800000D03*
X91440000Y-63500000D03*
X93980000Y-60960000D03*
X93980000Y-66040000D03*
X91440000Y-78740000D03*
X93980000Y-76200000D03*
X93980000Y-81280000D03*
D20*
X78740000Y-66040000D03*
X78740000Y-68580000D03*
X78740000Y-71120000D03*
X78740000Y-73660000D03*
X78740000Y-76200000D03*
X78740000Y-78740000D03*
X78740000Y-81280000D03*
X78740000Y-83820000D03*
X86360000Y-83820000D03*
X86360000Y-81280000D03*
X86360000Y-78740000D03*
X86360000Y-76200000D03*
X86360000Y-73660000D03*
X86360000Y-71120000D03*
X86360000Y-68580000D03*
X86360000Y-66040000D03*
D21*
X107760000Y-68250000D03*
X108760000Y-68250000D03*
X109760000Y-68250000D03*
X110760000Y-68250000D03*
X111760000Y-68250000D03*
X112760000Y-68250000D03*
X113760000Y-68250000D03*
X114760000Y-68250000D03*
X115760000Y-68250000D03*
X116760000Y-68250000D03*
X117760000Y-68250000D03*
X118760000Y-68250000D03*
X119760000Y-68250000D03*
X120760000Y-68250000D03*
X121760000Y-68250000D03*
X121760000Y-58750000D03*
X120760000Y-58750000D03*
X119760000Y-58750000D03*
X118760000Y-58750000D03*
X117760000Y-58750000D03*
X116760000Y-58750000D03*
X115760000Y-58750000D03*
X114760000Y-58750000D03*
X113760000Y-58750000D03*
X112760000Y-58750000D03*
X111760000Y-58750000D03*
X110760000Y-58750000D03*
X109760000Y-58750000D03*
X108760000Y-58750000D03*
X107760000Y-58750000D03*
D22*
X132080000Y-63500000D03*
X132080000Y-68580000D03*
M02*
